SplineFontDB: 3.2
FontName: HD44780UA00
FullName: HD44780UA00
FamilyName: HD44780UA00
Weight: Regular
Copyright: 
UComments: "2025-12-13: Created with FontForge (http://fontforge.org)"
Version: 001.000
ItalicAngle: 0
UnderlinePosition: 0
UnderlineWidth: 38
Ascent: 760
Descent: 0
InvalidEm: 0
LayerCount: 2
Layer: 0 0 "Back" 1
Layer: 1 0 "Fore" 0
XUID: [1021 352 1697451382 11162]
FSType: 0
OS2Version: 0
OS2_WeightWidthSlopeOnly: 0
OS2_UseTypoMetrics: 1
CreationTime: 1765659561
ModificationTime: 1771201686
PfmFamily: 17
TTFWeight: 400
TTFWidth: 5
LineGap: 68
VLineGap: 0
OS2TypoAscent: 0
OS2TypoAOffset: 1
OS2TypoDescent: 0
OS2TypoDOffset: 1
OS2TypoLinegap: 68
OS2WinAscent: 0
OS2WinAOffset: 1
OS2WinDescent: 0
OS2WinDOffset: 1
HheadAscent: 0
HheadAOffset: 1
HheadDescent: 0
HheadDOffset: 1
OS2Vendor: 'PfEd'
MarkAttachClasses: 1
DEI: 91125
LangName: 1033
Encoding: UnicodeBmp
Compacted: 1
UnicodeInterp: none
NameList: AGL For New Fonts
DisplaySize: -36
AntiAlias: 1
FitToEm: 1
WinInfo: 448 32 14
BeginPrivate: 0
EndPrivate
TeXData: 1 0 0 346030 173015 115343 0 1048576 115343 783286 444596 497025 792723 393216 433062 380633 303038 157286 324010 404750 52429 2506097 1059062 262144
BeginChars: 65536 1043

StartChar: exclam
Encoding: 33 33 0
Width: 660
VWidth: 825
Flags: HW
LayerCount: 2
Fore
SplineSet
320 100 m 1
 320 0 l 1
 220 0 l 1
 220 100 l 1
 320 100 l 1
320 430 m 1
 320 330 l 1
 220 330 l 1
 220 430 l 1
 320 430 l 1
320 540 m 1
 320 440 l 1
 220 440 l 1
 220 540 l 1
 320 540 l 1
320 650 m 1
 320 550 l 1
 220 550 l 1
 220 650 l 1
 320 650 l 1
320 760 m 1
 320 660 l 1
 220 660 l 1
 220 760 l 1
 320 760 l 1
EndSplineSet
EndChar

StartChar: quotedbl
Encoding: 34 34 1
Width: 660
VWidth: 825
Flags: HW
LayerCount: 2
Fore
SplineSet
430 540 m 1
 430 440 l 1
 330 440 l 1
 330 540 l 1
 430 540 l 1
210 540 m 1
 210 440 l 1
 110 440 l 1
 110 540 l 1
 210 540 l 1
430 650 m 1
 430 550 l 1
 330 550 l 1
 330 650 l 1
 430 650 l 1
210 650 m 1
 210 550 l 1
 110 550 l 1
 110 650 l 1
 210 650 l 1
430 760 m 1
 430 660 l 1
 330 660 l 1
 330 760 l 1
 430 760 l 1
210 760 m 1
 210 660 l 1
 110 660 l 1
 110 760 l 1
 210 760 l 1
EndSplineSet
EndChar

StartChar: numbersign
Encoding: 35 35 2
Width: 660
VWidth: 825
Flags: HW
LayerCount: 2
Fore
SplineSet
430 100 m 1
 430 0 l 1
 330 0 l 1
 330 100 l 1
 430 100 l 1
210 100 m 1
 210 0 l 1
 110 0 l 1
 110 100 l 1
 210 100 l 1
430 210 m 1
 430 110 l 1
 330 110 l 1
 330 210 l 1
 430 210 l 1
210 210 m 1
 210 110 l 1
 110 110 l 1
 110 210 l 1
 210 210 l 1
540 320 m 1
 540 220 l 1
 440 220 l 1
 440 320 l 1
 540 320 l 1
430 320 m 1
 430 220 l 1
 330 220 l 1
 330 320 l 1
 430 320 l 1
320 320 m 1
 320 220 l 1
 220 220 l 1
 220 320 l 1
 320 320 l 1
210 320 m 1
 210 220 l 1
 110 220 l 1
 110 320 l 1
 210 320 l 1
100 320 m 1
 100 220 l 1
 0 220 l 1
 0 320 l 1
 100 320 l 1
430 430 m 1
 430 330 l 1
 330 330 l 1
 330 430 l 1
 430 430 l 1
210 430 m 1
 210 330 l 1
 110 330 l 1
 110 430 l 1
 210 430 l 1
540 540 m 1
 540 440 l 1
 440 440 l 1
 440 540 l 1
 540 540 l 1
430 540 m 1
 430 440 l 1
 330 440 l 1
 330 540 l 1
 430 540 l 1
320 540 m 1
 320 440 l 1
 220 440 l 1
 220 540 l 1
 320 540 l 1
210 540 m 1
 210 440 l 1
 110 440 l 1
 110 540 l 1
 210 540 l 1
100 540 m 1
 100 440 l 1
 0 440 l 1
 0 540 l 1
 100 540 l 1
430 650 m 1
 430 550 l 1
 330 550 l 1
 330 650 l 1
 430 650 l 1
210 650 m 1
 210 550 l 1
 110 550 l 1
 110 650 l 1
 210 650 l 1
430 760 m 1
 430 660 l 1
 330 660 l 1
 330 760 l 1
 430 760 l 1
210 760 m 1
 210 660 l 1
 110 660 l 1
 110 760 l 1
 210 760 l 1
EndSplineSet
EndChar

StartChar: dollar
Encoding: 36 36 3
Width: 660
VWidth: 825
Flags: HW
LayerCount: 2
Fore
SplineSet
320 100 m 1
 320 0 l 1
 220 0 l 1
 220 100 l 1
 320 100 l 1
430 210 m 1
 430 110 l 1
 330 110 l 1
 330 210 l 1
 430 210 l 1
320 210 m 1
 320 110 l 1
 220 110 l 1
 220 210 l 1
 320 210 l 1
210 210 m 1
 210 110 l 1
 110 110 l 1
 110 210 l 1
 210 210 l 1
100 210 m 1
 100 110 l 1
 0 110 l 1
 0 210 l 1
 100 210 l 1
540 320 m 1
 540 220 l 1
 440 220 l 1
 440 320 l 1
 540 320 l 1
320 320 m 1
 320 220 l 1
 220 220 l 1
 220 320 l 1
 320 320 l 1
430 430 m 1
 430 330 l 1
 330 330 l 1
 330 430 l 1
 430 430 l 1
320 430 m 1
 320 330 l 1
 220 330 l 1
 220 430 l 1
 320 430 l 1
210 430 m 1
 210 330 l 1
 110 330 l 1
 110 430 l 1
 210 430 l 1
320 540 m 1
 320 440 l 1
 220 440 l 1
 220 540 l 1
 320 540 l 1
100 540 m 1
 100 440 l 1
 0 440 l 1
 0 540 l 1
 100 540 l 1
540 650 m 1
 540 550 l 1
 440 550 l 1
 440 650 l 1
 540 650 l 1
430 650 m 1
 430 550 l 1
 330 550 l 1
 330 650 l 1
 430 650 l 1
320 650 m 1
 320 550 l 1
 220 550 l 1
 220 650 l 1
 320 650 l 1
210 650 m 1
 210 550 l 1
 110 550 l 1
 110 650 l 1
 210 650 l 1
320 760 m 1
 320 660 l 1
 220 660 l 1
 220 760 l 1
 320 760 l 1
EndSplineSet
EndChar

StartChar: percent
Encoding: 37 37 4
Width: 660
VWidth: 825
Flags: HW
LayerCount: 2
Fore
SplineSet
540 100 m 1
 540 0 l 1
 440 0 l 1
 440 100 l 1
 540 100 l 1
430 100 m 1
 430 0 l 1
 330 0 l 1
 330 100 l 1
 430 100 l 1
540 210 m 1
 540 110 l 1
 440 110 l 1
 440 210 l 1
 540 210 l 1
430 210 m 1
 430 110 l 1
 330 110 l 1
 330 210 l 1
 430 210 l 1
100 210 m 1
 100 110 l 1
 0 110 l 1
 0 210 l 1
 100 210 l 1
210 320 m 1
 210 220 l 1
 110 220 l 1
 110 320 l 1
 210 320 l 1
320 430 m 1
 320 330 l 1
 220 330 l 1
 220 430 l 1
 320 430 l 1
430 540 m 1
 430 440 l 1
 330 440 l 1
 330 540 l 1
 430 540 l 1
540 650 m 1
 540 550 l 1
 440 550 l 1
 440 650 l 1
 540 650 l 1
210 650 m 1
 210 550 l 1
 110 550 l 1
 110 650 l 1
 210 650 l 1
100 650 m 1
 100 550 l 1
 0 550 l 1
 0 650 l 1
 100 650 l 1
210 760 m 1
 210 660 l 1
 110 660 l 1
 110 760 l 1
 210 760 l 1
100 760 m 1
 100 660 l 1
 0 660 l 1
 0 760 l 1
 100 760 l 1
EndSplineSet
EndChar

StartChar: a
Encoding: 97 97 5
Width: 660
VWidth: 825
Flags: HW
LayerCount: 2
Fore
SplineSet
540 100 m 1
 540 0 l 1
 440 0 l 1
 440 100 l 1
 540 100 l 1
430 100 m 1
 430 0 l 1
 330 0 l 1
 330 100 l 1
 430 100 l 1
320 100 m 1
 320 0 l 1
 220 0 l 1
 220 100 l 1
 320 100 l 1
210 100 m 1
 210 0 l 1
 110 0 l 1
 110 100 l 1
 210 100 l 1
540 210 m 1
 540 110 l 1
 440 110 l 1
 440 210 l 1
 540 210 l 1
100 210 m 1
 100 110 l 1
 0 110 l 1
 0 210 l 1
 100 210 l 1
540 320 m 1
 540 220 l 1
 440 220 l 1
 440 320 l 1
 540 320 l 1
430 320 m 1
 430 220 l 1
 330 220 l 1
 330 320 l 1
 430 320 l 1
320 320 m 1
 320 220 l 1
 220 220 l 1
 220 320 l 1
 320 320 l 1
210 320 m 1
 210 220 l 1
 110 220 l 1
 110 320 l 1
 210 320 l 1
540 430 m 1
 540 330 l 1
 440 330 l 1
 440 430 l 1
 540 430 l 1
430 540 m 1
 430 440 l 1
 330 440 l 1
 330 540 l 1
 430 540 l 1
320 540 m 1
 320 440 l 1
 220 440 l 1
 220 540 l 1
 320 540 l 1
210 540 m 1
 210 440 l 1
 110 440 l 1
 110 540 l 1
 210 540 l 1
EndSplineSet
EndChar

StartChar: asciitilde
Encoding: 126 126 6
Width: 660
VWidth: 825
Flags: HW
LayerCount: 2
Fore
SplineSet
430 320 m 5
 430 220 l 5
 330 220 l 5
 330 320 l 5
 430 320 l 5
100 320 m 5
 100 220 l 5
 0 220 l 5
 0 320 l 5
 100 320 l 5
540 430 m 5
 540 330 l 5
 440 330 l 5
 440 430 l 5
 540 430 l 5
320 430 m 5
 320 330 l 5
 220 330 l 5
 220 430 l 5
 320 430 l 5
210 430 m 5
 210 330 l 5
 110 330 l 5
 110 430 l 5
 210 430 l 5
EndSplineSet
EndChar

StartChar: ampersand
Encoding: 38 38 7
Width: 660
VWidth: 825
Flags: HW
LayerCount: 2
Fore
SplineSet
540 100 m 1
 540 0 l 1
 440 0 l 1
 440 100 l 1
 540 100 l 1
320 100 m 1
 320 0 l 1
 220 0 l 1
 220 100 l 1
 320 100 l 1
210 100 m 1
 210 0 l 1
 110 0 l 1
 110 100 l 1
 210 100 l 1
430 210 m 1
 430 110 l 1
 330 110 l 1
 330 210 l 1
 430 210 l 1
100 210 m 1
 100 110 l 1
 0 110 l 1
 0 210 l 1
 100 210 l 1
540 320 m 1
 540 220 l 1
 440 220 l 1
 440 320 l 1
 540 320 l 1
320 320 m 1
 320 220 l 1
 220 220 l 1
 220 320 l 1
 320 320 l 1
100 320 m 1
 100 220 l 1
 0 220 l 1
 0 320 l 1
 100 320 l 1
210 430 m 1
 210 330 l 1
 110 330 l 1
 110 430 l 1
 210 430 l 1
320 540 m 1
 320 440 l 1
 220 440 l 1
 220 540 l 1
 320 540 l 1
100 540 m 1
 100 440 l 1
 0 440 l 1
 0 540 l 1
 100 540 l 1
430 650 m 1
 430 550 l 1
 330 550 l 1
 330 650 l 1
 430 650 l 1
100 650 m 1
 100 550 l 1
 0 550 l 1
 0 650 l 1
 100 650 l 1
320 760 m 1
 320 660 l 1
 220 660 l 1
 220 760 l 1
 320 760 l 1
210 760 m 1
 210 660 l 1
 110 660 l 1
 110 760 l 1
 210 760 l 1
EndSplineSet
EndChar

StartChar: quotesingle
Encoding: 39 39 9
Width: 660
VWidth: 825
Flags: HW
LayerCount: 2
Fore
SplineSet
320 540 m 1
 320 440 l 1
 220 440 l 1
 220 540 l 1
 320 540 l 1
320 650 m 1
 320 550 l 1
 220 550 l 1
 220 650 l 1
 320 650 l 1
320 760 m 1
 320 660 l 1
 220 660 l 1
 220 760 l 1
 320 760 l 1
EndSplineSet
EndChar

StartChar: parenleft
Encoding: 40 40 10
Width: 660
VWidth: 825
Flags: HW
LayerCount: 2
Fore
SplineSet
430 100 m 1
 430 0 l 1
 330 0 l 1
 330 100 l 1
 430 100 l 1
320 210 m 1
 320 110 l 1
 220 110 l 1
 220 210 l 1
 320 210 l 1
210 320 m 1
 210 220 l 1
 110 220 l 1
 110 320 l 1
 210 320 l 1
210 430 m 1
 210 330 l 1
 110 330 l 1
 110 430 l 1
 210 430 l 1
210 540 m 1
 210 440 l 1
 110 440 l 1
 110 540 l 1
 210 540 l 1
320 650 m 1
 320 550 l 1
 220 550 l 1
 220 650 l 1
 320 650 l 1
430 760 m 1
 430 660 l 1
 330 660 l 1
 330 760 l 1
 430 760 l 1
EndSplineSet
EndChar

StartChar: parenright
Encoding: 41 41 11
Width: 660
VWidth: 825
Flags: HW
LayerCount: 2
Fore
SplineSet
210 100 m 1
 210 0 l 1
 110 0 l 1
 110 100 l 1
 210 100 l 1
320 210 m 1
 320 110 l 1
 220 110 l 1
 220 210 l 1
 320 210 l 1
430 320 m 1
 430 220 l 1
 330 220 l 1
 330 320 l 1
 430 320 l 1
430 430 m 1
 430 330 l 1
 330 330 l 1
 330 430 l 1
 430 430 l 1
430 540 m 1
 430 440 l 1
 330 440 l 1
 330 540 l 1
 430 540 l 1
320 650 m 1
 320 550 l 1
 220 550 l 1
 220 650 l 1
 320 650 l 1
210 760 m 1
 210 660 l 1
 110 660 l 1
 110 760 l 1
 210 760 l 1
EndSplineSet
EndChar

StartChar: asterisk
Encoding: 42 42 12
Width: 660
VWidth: 825
Flags: HW
LayerCount: 2
Fore
SplineSet
320 210 m 1
 320 110 l 1
 220 110 l 1
 220 210 l 1
 320 210 l 1
540 320 m 1
 540 220 l 1
 440 220 l 1
 440 320 l 1
 540 320 l 1
320 320 m 1
 320 220 l 1
 220 220 l 1
 220 320 l 1
 320 320 l 1
100 320 m 1
 100 220 l 1
 0 220 l 1
 0 320 l 1
 100 320 l 1
430 430 m 1
 430 330 l 1
 330 330 l 1
 330 430 l 1
 430 430 l 1
320 430 m 1
 320 330 l 1
 220 330 l 1
 220 430 l 1
 320 430 l 1
210 430 m 1
 210 330 l 1
 110 330 l 1
 110 430 l 1
 210 430 l 1
540 540 m 1
 540 440 l 1
 440 440 l 1
 440 540 l 1
 540 540 l 1
320 540 m 1
 320 440 l 1
 220 440 l 1
 220 540 l 1
 320 540 l 1
100 540 m 1
 100 440 l 1
 0 440 l 1
 0 540 l 1
 100 540 l 1
320 650 m 1
 320 550 l 1
 220 550 l 1
 220 650 l 1
 320 650 l 1
EndSplineSet
EndChar

StartChar: plus
Encoding: 43 43 13
Width: 660
VWidth: 825
Flags: HW
LayerCount: 2
Fore
SplineSet
320 210 m 1
 320 110 l 1
 220 110 l 1
 220 210 l 1
 320 210 l 1
320 320 m 1
 320 220 l 1
 220 220 l 1
 220 320 l 1
 320 320 l 1
540 430 m 1
 540 330 l 1
 440 330 l 1
 440 430 l 1
 540 430 l 1
430 430 m 1
 430 330 l 1
 330 330 l 1
 330 430 l 1
 430 430 l 1
320 430 m 1
 320 330 l 1
 220 330 l 1
 220 430 l 1
 320 430 l 1
210 430 m 1
 210 330 l 1
 110 330 l 1
 110 430 l 1
 210 430 l 1
100 430 m 1
 100 330 l 1
 0 330 l 1
 0 430 l 1
 100 430 l 1
320 540 m 1
 320 440 l 1
 220 440 l 1
 220 540 l 1
 320 540 l 1
320 650 m 1
 320 550 l 1
 220 550 l 1
 220 650 l 1
 320 650 l 1
EndSplineSet
EndChar

StartChar: comma
Encoding: 44 44 14
Width: 660
VWidth: 825
Flags: HW
LayerCount: 2
Fore
SplineSet
210 100 m 1
 210 0 l 1
 110 0 l 1
 110 100 l 1
 210 100 l 1
320 210 m 1
 320 110 l 1
 220 110 l 1
 220 210 l 1
 320 210 l 1
320 320 m 1
 320 220 l 1
 220 220 l 1
 220 320 l 1
 320 320 l 1
210 320 m 1
 210 220 l 1
 110 220 l 1
 110 320 l 1
 210 320 l 1
EndSplineSet
EndChar

StartChar: hyphen
Encoding: 45 45 15
Width: 660
VWidth: 825
Flags: HW
LayerCount: 2
Fore
SplineSet
540 430 m 1
 540 330 l 1
 440 330 l 1
 440 430 l 1
 540 430 l 1
430 430 m 1
 430 330 l 1
 330 330 l 1
 330 430 l 1
 430 430 l 1
320 430 m 1
 320 330 l 1
 220 330 l 1
 220 430 l 1
 320 430 l 1
210 430 m 1
 210 330 l 1
 110 330 l 1
 110 430 l 1
 210 430 l 1
100 430 m 1
 100 330 l 1
 0 330 l 1
 0 430 l 1
 100 430 l 1
EndSplineSet
EndChar

StartChar: period
Encoding: 46 46 16
Width: 660
VWidth: 825
Flags: HW
LayerCount: 2
Fore
SplineSet
320 100 m 1
 320 0 l 1
 220 0 l 1
 220 100 l 1
 320 100 l 1
210 100 m 1
 210 0 l 1
 110 0 l 1
 110 100 l 1
 210 100 l 1
320 210 m 1
 320 110 l 1
 220 110 l 1
 220 210 l 1
 320 210 l 1
210 210 m 1
 210 110 l 1
 110 110 l 1
 110 210 l 1
 210 210 l 1
EndSplineSet
EndChar

StartChar: slash
Encoding: 47 47 17
Width: 660
VWidth: 825
Flags: HW
LayerCount: 2
Fore
SplineSet
100 210 m 1
 100 110 l 1
 0 110 l 1
 0 210 l 1
 100 210 l 1
210 320 m 1
 210 220 l 1
 110 220 l 1
 110 320 l 1
 210 320 l 1
320 430 m 1
 320 330 l 1
 220 330 l 1
 220 430 l 1
 320 430 l 1
430 540 m 1
 430 440 l 1
 330 440 l 1
 330 540 l 1
 430 540 l 1
540 650 m 1
 540 550 l 1
 440 550 l 1
 440 650 l 1
 540 650 l 1
EndSplineSet
EndChar

StartChar: zero
Encoding: 48 48 18
Width: 660
VWidth: 825
Flags: HW
LayerCount: 2
Fore
SplineSet
430 100 m 1
 430 0 l 1
 330 0 l 1
 330 100 l 1
 430 100 l 1
320 100 m 1
 320 0 l 1
 220 0 l 1
 220 100 l 1
 320 100 l 1
210 100 m 1
 210 0 l 1
 110 0 l 1
 110 100 l 1
 210 100 l 1
540 210 m 1
 540 110 l 1
 440 110 l 1
 440 210 l 1
 540 210 l 1
100 210 m 1
 100 110 l 1
 0 110 l 1
 0 210 l 1
 100 210 l 1
540 320 m 1
 540 220 l 1
 440 220 l 1
 440 320 l 1
 540 320 l 1
210 320 m 1
 210 220 l 1
 110 220 l 1
 110 320 l 1
 210 320 l 1
100 320 m 1
 100 220 l 1
 0 220 l 1
 0 320 l 1
 100 320 l 1
540 430 m 1
 540 330 l 1
 440 330 l 1
 440 430 l 1
 540 430 l 1
320 430 m 1
 320 330 l 1
 220 330 l 1
 220 430 l 1
 320 430 l 1
100 430 m 1
 100 330 l 1
 0 330 l 1
 0 430 l 1
 100 430 l 1
540 540 m 1
 540 440 l 1
 440 440 l 1
 440 540 l 1
 540 540 l 1
430 540 m 1
 430 440 l 1
 330 440 l 1
 330 540 l 1
 430 540 l 1
100 540 m 1
 100 440 l 1
 0 440 l 1
 0 540 l 1
 100 540 l 1
540 650 m 1
 540 550 l 1
 440 550 l 1
 440 650 l 1
 540 650 l 1
100 650 m 1
 100 550 l 1
 0 550 l 1
 0 650 l 1
 100 650 l 1
430 760 m 1
 430 660 l 1
 330 660 l 1
 330 760 l 1
 430 760 l 1
320 760 m 1
 320 660 l 1
 220 660 l 1
 220 760 l 1
 320 760 l 1
210 760 m 1
 210 660 l 1
 110 660 l 1
 110 760 l 1
 210 760 l 1
EndSplineSet
EndChar

StartChar: one
Encoding: 49 49 19
Width: 660
VWidth: 825
Flags: HW
LayerCount: 2
Fore
SplineSet
430 100 m 1
 430 0 l 1
 330 0 l 1
 330 100 l 1
 430 100 l 1
320 100 m 1
 320 0 l 1
 220 0 l 1
 220 100 l 1
 320 100 l 1
210 100 m 1
 210 0 l 1
 110 0 l 1
 110 100 l 1
 210 100 l 1
320 210 m 1
 320 110 l 1
 220 110 l 1
 220 210 l 1
 320 210 l 1
320 320 m 1
 320 220 l 1
 220 220 l 1
 220 320 l 1
 320 320 l 1
320 430 m 1
 320 330 l 1
 220 330 l 1
 220 430 l 1
 320 430 l 1
320 540 m 1
 320 440 l 1
 220 440 l 1
 220 540 l 1
 320 540 l 1
320 650 m 1
 320 550 l 1
 220 550 l 1
 220 650 l 1
 320 650 l 1
210 650 m 1
 210 550 l 1
 110 550 l 1
 110 650 l 1
 210 650 l 1
320 760 m 1
 320 660 l 1
 220 660 l 1
 220 760 l 1
 320 760 l 1
EndSplineSet
EndChar

StartChar: two
Encoding: 50 50 20
Width: 660
VWidth: 825
Flags: HW
LayerCount: 2
Fore
SplineSet
540 100 m 1
 540 0 l 1
 440 0 l 1
 440 100 l 1
 540 100 l 1
430 100 m 1
 430 0 l 1
 330 0 l 1
 330 100 l 1
 430 100 l 1
320 100 m 1
 320 0 l 1
 220 0 l 1
 220 100 l 1
 320 100 l 1
210 100 m 1
 210 0 l 1
 110 0 l 1
 110 100 l 1
 210 100 l 1
100 100 m 1
 100 0 l 1
 0 0 l 1
 0 100 l 1
 100 100 l 1
210 210 m 1
 210 110 l 1
 110 110 l 1
 110 210 l 1
 210 210 l 1
320 320 m 1
 320 220 l 1
 220 220 l 1
 220 320 l 1
 320 320 l 1
430 430 m 1
 430 330 l 1
 330 330 l 1
 330 430 l 1
 430 430 l 1
540 540 m 1
 540 440 l 1
 440 440 l 1
 440 540 l 1
 540 540 l 1
540 650 m 1
 540 550 l 1
 440 550 l 1
 440 650 l 1
 540 650 l 1
100 650 m 1
 100 550 l 1
 0 550 l 1
 0 650 l 1
 100 650 l 1
430 760 m 1
 430 660 l 1
 330 660 l 1
 330 760 l 1
 430 760 l 1
320 760 m 1
 320 660 l 1
 220 660 l 1
 220 760 l 1
 320 760 l 1
210 760 m 1
 210 660 l 1
 110 660 l 1
 110 760 l 1
 210 760 l 1
EndSplineSet
EndChar

StartChar: three
Encoding: 51 51 21
Width: 660
VWidth: 825
Flags: HW
LayerCount: 2
Fore
SplineSet
430 100 m 1
 430 0 l 1
 330 0 l 1
 330 100 l 1
 430 100 l 1
320 100 m 1
 320 0 l 1
 220 0 l 1
 220 100 l 1
 320 100 l 1
210 100 m 1
 210 0 l 1
 110 0 l 1
 110 100 l 1
 210 100 l 1
540 210 m 1
 540 110 l 1
 440 110 l 1
 440 210 l 1
 540 210 l 1
100 210 m 1
 100 110 l 1
 0 110 l 1
 0 210 l 1
 100 210 l 1
540 320 m 1
 540 220 l 1
 440 220 l 1
 440 320 l 1
 540 320 l 1
430 430 m 1
 430 330 l 1
 330 330 l 1
 330 430 l 1
 430 430 l 1
320 540 m 1
 320 440 l 1
 220 440 l 1
 220 540 l 1
 320 540 l 1
430 650 m 1
 430 550 l 1
 330 550 l 1
 330 650 l 1
 430 650 l 1
540 760 m 1
 540 660 l 1
 440 660 l 1
 440 760 l 1
 540 760 l 1
430 760 m 1
 430 660 l 1
 330 660 l 1
 330 760 l 1
 430 760 l 1
320 760 m 1
 320 660 l 1
 220 660 l 1
 220 760 l 1
 320 760 l 1
210 760 m 1
 210 660 l 1
 110 660 l 1
 110 760 l 1
 210 760 l 1
100 760 m 1
 100 660 l 1
 0 660 l 1
 0 760 l 1
 100 760 l 1
EndSplineSet
EndChar

StartChar: four
Encoding: 52 52 22
Width: 660
VWidth: 825
Flags: HW
LayerCount: 2
Fore
SplineSet
430 100 m 1
 430 0 l 1
 330 0 l 1
 330 100 l 1
 430 100 l 1
430 210 m 1
 430 110 l 1
 330 110 l 1
 330 210 l 1
 430 210 l 1
540 320 m 1
 540 220 l 1
 440 220 l 1
 440 320 l 1
 540 320 l 1
430 320 m 1
 430 220 l 1
 330 220 l 1
 330 320 l 1
 430 320 l 1
320 320 m 1
 320 220 l 1
 220 220 l 1
 220 320 l 1
 320 320 l 1
210 320 m 1
 210 220 l 1
 110 220 l 1
 110 320 l 1
 210 320 l 1
100 320 m 1
 100 220 l 1
 0 220 l 1
 0 320 l 1
 100 320 l 1
430 430 m 1
 430 330 l 1
 330 330 l 1
 330 430 l 1
 430 430 l 1
100 430 m 1
 100 330 l 1
 0 330 l 1
 0 430 l 1
 100 430 l 1
430 540 m 1
 430 440 l 1
 330 440 l 1
 330 540 l 1
 430 540 l 1
210 540 m 1
 210 440 l 1
 110 440 l 1
 110 540 l 1
 210 540 l 1
430 650 m 1
 430 550 l 1
 330 550 l 1
 330 650 l 1
 430 650 l 1
320 650 m 1
 320 550 l 1
 220 550 l 1
 220 650 l 1
 320 650 l 1
430 760 m 1
 430 660 l 1
 330 660 l 1
 330 760 l 1
 430 760 l 1
EndSplineSet
EndChar

StartChar: five
Encoding: 53 53 23
Width: 660
VWidth: 825
Flags: HW
LayerCount: 2
Fore
SplineSet
430 100 m 1
 430 0 l 1
 330 0 l 1
 330 100 l 1
 430 100 l 1
320 100 m 1
 320 0 l 1
 220 0 l 1
 220 100 l 1
 320 100 l 1
210 100 m 1
 210 0 l 1
 110 0 l 1
 110 100 l 1
 210 100 l 1
540 210 m 1
 540 110 l 1
 440 110 l 1
 440 210 l 1
 540 210 l 1
100 210 m 1
 100 110 l 1
 0 110 l 1
 0 210 l 1
 100 210 l 1
540 320 m 1
 540 220 l 1
 440 220 l 1
 440 320 l 1
 540 320 l 1
540 430 m 1
 540 330 l 1
 440 330 l 1
 440 430 l 1
 540 430 l 1
430 540 m 1
 430 440 l 1
 330 440 l 1
 330 540 l 1
 430 540 l 1
320 540 m 1
 320 440 l 1
 220 440 l 1
 220 540 l 1
 320 540 l 1
210 540 m 1
 210 440 l 1
 110 440 l 1
 110 540 l 1
 210 540 l 1
100 540 m 1
 100 440 l 1
 0 440 l 1
 0 540 l 1
 100 540 l 1
100 650 m 1
 100 550 l 1
 0 550 l 1
 0 650 l 1
 100 650 l 1
540 760 m 1
 540 660 l 1
 440 660 l 1
 440 760 l 1
 540 760 l 1
430 760 m 1
 430 660 l 1
 330 660 l 1
 330 760 l 1
 430 760 l 1
320 760 m 1
 320 660 l 1
 220 660 l 1
 220 760 l 1
 320 760 l 1
210 760 m 1
 210 660 l 1
 110 660 l 1
 110 760 l 1
 210 760 l 1
100 760 m 1
 100 660 l 1
 0 660 l 1
 0 760 l 1
 100 760 l 1
EndSplineSet
EndChar

StartChar: six
Encoding: 54 54 24
Width: 660
VWidth: 825
Flags: HW
LayerCount: 2
Fore
SplineSet
430 100 m 1
 430 0 l 1
 330 0 l 1
 330 100 l 1
 430 100 l 1
320 100 m 1
 320 0 l 1
 220 0 l 1
 220 100 l 1
 320 100 l 1
210 100 m 1
 210 0 l 1
 110 0 l 1
 110 100 l 1
 210 100 l 1
540 210 m 1
 540 110 l 1
 440 110 l 1
 440 210 l 1
 540 210 l 1
100 210 m 1
 100 110 l 1
 0 110 l 1
 0 210 l 1
 100 210 l 1
540 320 m 1
 540 220 l 1
 440 220 l 1
 440 320 l 1
 540 320 l 1
100 320 m 1
 100 220 l 1
 0 220 l 1
 0 320 l 1
 100 320 l 1
430 430 m 1
 430 330 l 1
 330 330 l 1
 330 430 l 1
 430 430 l 1
320 430 m 1
 320 330 l 1
 220 330 l 1
 220 430 l 1
 320 430 l 1
210 430 m 1
 210 330 l 1
 110 330 l 1
 110 430 l 1
 210 430 l 1
100 430 m 1
 100 330 l 1
 0 330 l 1
 0 430 l 1
 100 430 l 1
100 540 m 1
 100 440 l 1
 0 440 l 1
 0 540 l 1
 100 540 l 1
210 650 m 1
 210 550 l 1
 110 550 l 1
 110 650 l 1
 210 650 l 1
430 760 m 1
 430 660 l 1
 330 660 l 1
 330 760 l 1
 430 760 l 1
320 760 m 1
 320 660 l 1
 220 660 l 1
 220 760 l 1
 320 760 l 1
EndSplineSet
EndChar

StartChar: seven
Encoding: 55 55 25
Width: 660
VWidth: 825
Flags: HW
LayerCount: 2
Fore
SplineSet
210 100 m 1
 210 0 l 1
 110 0 l 1
 110 100 l 1
 210 100 l 1
210 210 m 1
 210 110 l 1
 110 110 l 1
 110 210 l 1
 210 210 l 1
210 320 m 1
 210 220 l 1
 110 220 l 1
 110 320 l 1
 210 320 l 1
320 430 m 1
 320 330 l 1
 220 330 l 1
 220 430 l 1
 320 430 l 1
430 540 m 1
 430 440 l 1
 330 440 l 1
 330 540 l 1
 430 540 l 1
540 650 m 1
 540 550 l 1
 440 550 l 1
 440 650 l 1
 540 650 l 1
540 760 m 1
 540 660 l 1
 440 660 l 1
 440 760 l 1
 540 760 l 1
430 760 m 1
 430 660 l 1
 330 660 l 1
 330 760 l 1
 430 760 l 1
320 760 m 1
 320 660 l 1
 220 660 l 1
 220 760 l 1
 320 760 l 1
210 760 m 1
 210 660 l 1
 110 660 l 1
 110 760 l 1
 210 760 l 1
100 760 m 1
 100 660 l 1
 0 660 l 1
 0 760 l 1
 100 760 l 1
EndSplineSet
EndChar

StartChar: eight
Encoding: 56 56 26
Width: 660
VWidth: 825
Flags: HW
LayerCount: 2
Fore
SplineSet
430 100 m 1
 430 0 l 1
 330 0 l 1
 330 100 l 1
 430 100 l 1
320 100 m 1
 320 0 l 1
 220 0 l 1
 220 100 l 1
 320 100 l 1
210 100 m 1
 210 0 l 1
 110 0 l 1
 110 100 l 1
 210 100 l 1
540 210 m 1
 540 110 l 1
 440 110 l 1
 440 210 l 1
 540 210 l 1
100 210 m 1
 100 110 l 1
 0 110 l 1
 0 210 l 1
 100 210 l 1
540 320 m 1
 540 220 l 1
 440 220 l 1
 440 320 l 1
 540 320 l 1
100 320 m 1
 100 220 l 1
 0 220 l 1
 0 320 l 1
 100 320 l 1
430 430 m 1
 430 330 l 1
 330 330 l 1
 330 430 l 1
 430 430 l 1
320 430 m 1
 320 330 l 1
 220 330 l 1
 220 430 l 1
 320 430 l 1
210 430 m 1
 210 330 l 1
 110 330 l 1
 110 430 l 1
 210 430 l 1
540 540 m 1
 540 440 l 1
 440 440 l 1
 440 540 l 1
 540 540 l 1
100 540 m 1
 100 440 l 1
 0 440 l 1
 0 540 l 1
 100 540 l 1
540 650 m 1
 540 550 l 1
 440 550 l 1
 440 650 l 1
 540 650 l 1
100 650 m 1
 100 550 l 1
 0 550 l 1
 0 650 l 1
 100 650 l 1
430 760 m 1
 430 660 l 1
 330 660 l 1
 330 760 l 1
 430 760 l 1
320 760 m 1
 320 660 l 1
 220 660 l 1
 220 760 l 1
 320 760 l 1
210 760 m 1
 210 660 l 1
 110 660 l 1
 110 760 l 1
 210 760 l 1
EndSplineSet
EndChar

StartChar: nine
Encoding: 57 57 27
Width: 660
VWidth: 825
Flags: HW
LayerCount: 2
Fore
SplineSet
320 100 m 1
 320 0 l 1
 220 0 l 1
 220 100 l 1
 320 100 l 1
210 100 m 1
 210 0 l 1
 110 0 l 1
 110 100 l 1
 210 100 l 1
430 210 m 1
 430 110 l 1
 330 110 l 1
 330 210 l 1
 430 210 l 1
540 320 m 1
 540 220 l 1
 440 220 l 1
 440 320 l 1
 540 320 l 1
540 430 m 1
 540 330 l 1
 440 330 l 1
 440 430 l 1
 540 430 l 1
430 430 m 1
 430 330 l 1
 330 330 l 1
 330 430 l 1
 430 430 l 1
320 430 m 1
 320 330 l 1
 220 330 l 1
 220 430 l 1
 320 430 l 1
210 430 m 1
 210 330 l 1
 110 330 l 1
 110 430 l 1
 210 430 l 1
540 540 m 1
 540 440 l 1
 440 440 l 1
 440 540 l 1
 540 540 l 1
100 540 m 1
 100 440 l 1
 0 440 l 1
 0 540 l 1
 100 540 l 1
540 650 m 1
 540 550 l 1
 440 550 l 1
 440 650 l 1
 540 650 l 1
100 650 m 1
 100 550 l 1
 0 550 l 1
 0 650 l 1
 100 650 l 1
430 760 m 1
 430 660 l 1
 330 660 l 1
 330 760 l 1
 430 760 l 1
320 760 m 1
 320 660 l 1
 220 660 l 1
 220 760 l 1
 320 760 l 1
210 760 m 1
 210 660 l 1
 110 660 l 1
 110 760 l 1
 210 760 l 1
EndSplineSet
EndChar

StartChar: colon
Encoding: 58 58 28
Width: 660
VWidth: 825
Flags: HW
LayerCount: 2
Fore
SplineSet
320 210 m 1
 320 110 l 1
 220 110 l 1
 220 210 l 1
 320 210 l 1
210 210 m 1
 210 110 l 1
 110 110 l 1
 110 210 l 1
 210 210 l 1
320 320 m 1
 320 220 l 1
 220 220 l 1
 220 320 l 1
 320 320 l 1
210 320 m 1
 210 220 l 1
 110 220 l 1
 110 320 l 1
 210 320 l 1
320 540 m 1
 320 440 l 1
 220 440 l 1
 220 540 l 1
 320 540 l 1
210 540 m 1
 210 440 l 1
 110 440 l 1
 110 540 l 1
 210 540 l 1
320 650 m 1
 320 550 l 1
 220 550 l 1
 220 650 l 1
 320 650 l 1
210 650 m 1
 210 550 l 1
 110 550 l 1
 110 650 l 1
 210 650 l 1
EndSplineSet
EndChar

StartChar: semicolon
Encoding: 59 59 29
Width: 660
VWidth: 825
Flags: HW
LayerCount: 2
Fore
SplineSet
210 100 m 1
 210 0 l 1
 110 0 l 1
 110 100 l 1
 210 100 l 1
320 210 m 1
 320 110 l 1
 220 110 l 1
 220 210 l 1
 320 210 l 1
320 320 m 1
 320 220 l 1
 220 220 l 1
 220 320 l 1
 320 320 l 1
210 320 m 1
 210 220 l 1
 110 220 l 1
 110 320 l 1
 210 320 l 1
320 540 m 1
 320 440 l 1
 220 440 l 1
 220 540 l 1
 320 540 l 1
210 540 m 1
 210 440 l 1
 110 440 l 1
 110 540 l 1
 210 540 l 1
320 650 m 1
 320 550 l 1
 220 550 l 1
 220 650 l 1
 320 650 l 1
210 650 m 1
 210 550 l 1
 110 550 l 1
 110 650 l 1
 210 650 l 1
EndSplineSet
EndChar

StartChar: less
Encoding: 60 60 30
Width: 660
VWidth: 825
Flags: HW
LayerCount: 2
Fore
SplineSet
430 100 m 1
 430 0 l 1
 330 0 l 1
 330 100 l 1
 430 100 l 1
320 210 m 1
 320 110 l 1
 220 110 l 1
 220 210 l 1
 320 210 l 1
210 320 m 1
 210 220 l 1
 110 220 l 1
 110 320 l 1
 210 320 l 1
100 430 m 1
 100 330 l 1
 0 330 l 1
 0 430 l 1
 100 430 l 1
210 540 m 1
 210 440 l 1
 110 440 l 1
 110 540 l 1
 210 540 l 1
320 650 m 1
 320 550 l 1
 220 550 l 1
 220 650 l 1
 320 650 l 1
430 760 m 1
 430 660 l 1
 330 660 l 1
 330 760 l 1
 430 760 l 1
EndSplineSet
EndChar

StartChar: equal
Encoding: 61 61 31
Width: 660
VWidth: 825
Flags: HW
LayerCount: 2
Fore
SplineSet
540 320 m 1
 540 220 l 1
 440 220 l 1
 440 320 l 1
 540 320 l 1
430 320 m 1
 430 220 l 1
 330 220 l 1
 330 320 l 1
 430 320 l 1
320 320 m 1
 320 220 l 1
 220 220 l 1
 220 320 l 1
 320 320 l 1
210 320 m 1
 210 220 l 1
 110 220 l 1
 110 320 l 1
 210 320 l 1
100 320 m 1
 100 220 l 1
 0 220 l 1
 0 320 l 1
 100 320 l 1
540 540 m 1
 540 440 l 1
 440 440 l 1
 440 540 l 1
 540 540 l 1
430 540 m 1
 430 440 l 1
 330 440 l 1
 330 540 l 1
 430 540 l 1
320 540 m 1
 320 440 l 1
 220 440 l 1
 220 540 l 1
 320 540 l 1
210 540 m 1
 210 440 l 1
 110 440 l 1
 110 540 l 1
 210 540 l 1
100 540 m 1
 100 440 l 1
 0 440 l 1
 0 540 l 1
 100 540 l 1
EndSplineSet
EndChar

StartChar: greater
Encoding: 62 62 32
Width: 660
VWidth: 825
Flags: HW
LayerCount: 2
Fore
SplineSet
210 100 m 1
 210 0 l 1
 110 0 l 1
 110 100 l 1
 210 100 l 1
320 210 m 1
 320 110 l 1
 220 110 l 1
 220 210 l 1
 320 210 l 1
430 320 m 1
 430 220 l 1
 330 220 l 1
 330 320 l 1
 430 320 l 1
540 430 m 1
 540 330 l 1
 440 330 l 1
 440 430 l 1
 540 430 l 1
430 540 m 1
 430 440 l 1
 330 440 l 1
 330 540 l 1
 430 540 l 1
320 650 m 1
 320 550 l 1
 220 550 l 1
 220 650 l 1
 320 650 l 1
210 760 m 1
 210 660 l 1
 110 660 l 1
 110 760 l 1
 210 760 l 1
EndSplineSet
EndChar

StartChar: question
Encoding: 63 63 33
Width: 660
VWidth: 825
Flags: HW
LayerCount: 2
Fore
SplineSet
320 100 m 1
 320 0 l 1
 220 0 l 1
 220 100 l 1
 320 100 l 1
320 320 m 1
 320 220 l 1
 220 220 l 1
 220 320 l 1
 320 320 l 1
430 430 m 1
 430 330 l 1
 330 330 l 1
 330 430 l 1
 430 430 l 1
540 540 m 1
 540 440 l 1
 440 440 l 1
 440 540 l 1
 540 540 l 1
540 650 m 1
 540 550 l 1
 440 550 l 1
 440 650 l 1
 540 650 l 1
100 650 m 1
 100 550 l 1
 0 550 l 1
 0 650 l 1
 100 650 l 1
430 760 m 1
 430 660 l 1
 330 660 l 1
 330 760 l 1
 430 760 l 1
320 760 m 1
 320 660 l 1
 220 660 l 1
 220 760 l 1
 320 760 l 1
210 760 m 1
 210 660 l 1
 110 660 l 1
 110 760 l 1
 210 760 l 1
EndSplineSet
EndChar

StartChar: at
Encoding: 64 64 34
Width: 660
VWidth: 825
Flags: HW
LayerCount: 2
Fore
SplineSet
430 100 m 1
 430 0 l 1
 330 0 l 1
 330 100 l 1
 430 100 l 1
320 100 m 1
 320 0 l 1
 220 0 l 1
 220 100 l 1
 320 100 l 1
210 100 m 1
 210 0 l 1
 110 0 l 1
 110 100 l 1
 210 100 l 1
540 210 m 1
 540 110 l 1
 440 110 l 1
 440 210 l 1
 540 210 l 1
320 210 m 1
 320 110 l 1
 220 110 l 1
 220 210 l 1
 320 210 l 1
100 210 m 1
 100 110 l 1
 0 110 l 1
 0 210 l 1
 100 210 l 1
540 320 m 1
 540 220 l 1
 440 220 l 1
 440 320 l 1
 540 320 l 1
320 320 m 1
 320 220 l 1
 220 220 l 1
 220 320 l 1
 320 320 l 1
100 320 m 1
 100 220 l 1
 0 220 l 1
 0 320 l 1
 100 320 l 1
540 430 m 1
 540 330 l 1
 440 330 l 1
 440 430 l 1
 540 430 l 1
320 430 m 1
 320 330 l 1
 220 330 l 1
 220 430 l 1
 320 430 l 1
210 430 m 1
 210 330 l 1
 110 330 l 1
 110 430 l 1
 210 430 l 1
540 540 m 1
 540 440 l 1
 440 440 l 1
 440 540 l 1
 540 540 l 1
540 650 m 1
 540 550 l 1
 440 550 l 1
 440 650 l 1
 540 650 l 1
100 650 m 1
 100 550 l 1
 0 550 l 1
 0 650 l 1
 100 650 l 1
430 760 m 1
 430 660 l 1
 330 660 l 1
 330 760 l 1
 430 760 l 1
320 760 m 1
 320 660 l 1
 220 660 l 1
 220 760 l 1
 320 760 l 1
210 760 m 1
 210 660 l 1
 110 660 l 1
 110 760 l 1
 210 760 l 1
EndSplineSet
EndChar

StartChar: l
Encoding: 108 108 35
Width: 660
VWidth: 825
Flags: HW
LayerCount: 2
Fore
SplineSet
430 100 m 1
 430 0 l 1
 330 0 l 1
 330 100 l 1
 430 100 l 1
320 100 m 1
 320 0 l 1
 220 0 l 1
 220 100 l 1
 320 100 l 1
210 100 m 1
 210 0 l 1
 110 0 l 1
 110 100 l 1
 210 100 l 1
320 210 m 1
 320 110 l 1
 220 110 l 1
 220 210 l 1
 320 210 l 1
320 320 m 1
 320 220 l 1
 220 220 l 1
 220 320 l 1
 320 320 l 1
320 430 m 1
 320 330 l 1
 220 330 l 1
 220 430 l 1
 320 430 l 1
320 540 m 1
 320 440 l 1
 220 440 l 1
 220 540 l 1
 320 540 l 1
320 650 m 1
 320 550 l 1
 220 550 l 1
 220 650 l 1
 320 650 l 1
320 760 m 1
 320 660 l 1
 220 660 l 1
 220 760 l 1
 320 760 l 1
210 760 m 1
 210 660 l 1
 110 660 l 1
 110 760 l 1
 210 760 l 1
EndSplineSet
EndChar

StartChar: A
Encoding: 65 65 36
Width: 660
VWidth: 825
Flags: HW
LayerCount: 2
Fore
SplineSet
540 100 m 1
 540 0 l 1
 440 0 l 1
 440 100 l 1
 540 100 l 1
100 100 m 1
 100 0 l 1
 0 0 l 1
 0 100 l 1
 100 100 l 1
540 210 m 1
 540 110 l 1
 440 110 l 1
 440 210 l 1
 540 210 l 1
100 210 m 1
 100 110 l 1
 0 110 l 1
 0 210 l 1
 100 210 l 1
540 320 m 1
 540 220 l 1
 440 220 l 1
 440 320 l 1
 540 320 l 1
430 320 m 1
 430 220 l 1
 330 220 l 1
 330 320 l 1
 430 320 l 1
320 320 m 1
 320 220 l 1
 220 220 l 1
 220 320 l 1
 320 320 l 1
210 320 m 1
 210 220 l 1
 110 220 l 1
 110 320 l 1
 210 320 l 1
100 320 m 1
 100 220 l 1
 0 220 l 1
 0 320 l 1
 100 320 l 1
540 430 m 1
 540 330 l 1
 440 330 l 1
 440 430 l 1
 540 430 l 1
100 430 m 1
 100 330 l 1
 0 330 l 1
 0 430 l 1
 100 430 l 1
540 540 m 1
 540 440 l 1
 440 440 l 1
 440 540 l 1
 540 540 l 1
100 540 m 1
 100 440 l 1
 0 440 l 1
 0 540 l 1
 100 540 l 1
540 650 m 1
 540 550 l 1
 440 550 l 1
 440 650 l 1
 540 650 l 1
100 650 m 1
 100 550 l 1
 0 550 l 1
 0 650 l 1
 100 650 l 1
430 760 m 1
 430 660 l 1
 330 660 l 1
 330 760 l 1
 430 760 l 1
320 760 m 1
 320 660 l 1
 220 660 l 1
 220 760 l 1
 320 760 l 1
210 760 m 1
 210 660 l 1
 110 660 l 1
 110 760 l 1
 210 760 l 1
EndSplineSet
EndChar

StartChar: B
Encoding: 66 66 37
Width: 660
VWidth: 825
Flags: HW
LayerCount: 2
Fore
SplineSet
430 100 m 1
 430 0 l 1
 330 0 l 1
 330 100 l 1
 430 100 l 1
320 100 m 1
 320 0 l 1
 220 0 l 1
 220 100 l 1
 320 100 l 1
210 100 m 1
 210 0 l 1
 110 0 l 1
 110 100 l 1
 210 100 l 1
100 100 m 1
 100 0 l 1
 0 0 l 1
 0 100 l 1
 100 100 l 1
540 210 m 1
 540 110 l 1
 440 110 l 1
 440 210 l 1
 540 210 l 1
100 210 m 1
 100 110 l 1
 0 110 l 1
 0 210 l 1
 100 210 l 1
540 320 m 1
 540 220 l 1
 440 220 l 1
 440 320 l 1
 540 320 l 1
100 320 m 1
 100 220 l 1
 0 220 l 1
 0 320 l 1
 100 320 l 1
430 430 m 1
 430 330 l 1
 330 330 l 1
 330 430 l 1
 430 430 l 1
320 430 m 1
 320 330 l 1
 220 330 l 1
 220 430 l 1
 320 430 l 1
210 430 m 1
 210 330 l 1
 110 330 l 1
 110 430 l 1
 210 430 l 1
100 430 m 1
 100 330 l 1
 0 330 l 1
 0 430 l 1
 100 430 l 1
540 540 m 1
 540 440 l 1
 440 440 l 1
 440 540 l 1
 540 540 l 1
100 540 m 1
 100 440 l 1
 0 440 l 1
 0 540 l 1
 100 540 l 1
540 650 m 1
 540 550 l 1
 440 550 l 1
 440 650 l 1
 540 650 l 1
100 650 m 1
 100 550 l 1
 0 550 l 1
 0 650 l 1
 100 650 l 1
430 760 m 1
 430 660 l 1
 330 660 l 1
 330 760 l 1
 430 760 l 1
320 760 m 1
 320 660 l 1
 220 660 l 1
 220 760 l 1
 320 760 l 1
210 760 m 1
 210 660 l 1
 110 660 l 1
 110 760 l 1
 210 760 l 1
100 760 m 1
 100 660 l 1
 0 660 l 1
 0 760 l 1
 100 760 l 1
EndSplineSet
EndChar

StartChar: C
Encoding: 67 67 38
Width: 660
VWidth: 825
Flags: HW
LayerCount: 2
Fore
SplineSet
430 100 m 1
 430 0 l 1
 330 0 l 1
 330 100 l 1
 430 100 l 1
320 100 m 1
 320 0 l 1
 220 0 l 1
 220 100 l 1
 320 100 l 1
210 100 m 1
 210 0 l 1
 110 0 l 1
 110 100 l 1
 210 100 l 1
540 210 m 1
 540 110 l 1
 440 110 l 1
 440 210 l 1
 540 210 l 1
100 210 m 1
 100 110 l 1
 0 110 l 1
 0 210 l 1
 100 210 l 1
100 320 m 1
 100 220 l 1
 0 220 l 1
 0 320 l 1
 100 320 l 1
100 430 m 1
 100 330 l 1
 0 330 l 1
 0 430 l 1
 100 430 l 1
100 540 m 1
 100 440 l 1
 0 440 l 1
 0 540 l 1
 100 540 l 1
540 650 m 1
 540 550 l 1
 440 550 l 1
 440 650 l 1
 540 650 l 1
100 650 m 1
 100 550 l 1
 0 550 l 1
 0 650 l 1
 100 650 l 1
430 760 m 1
 430 660 l 1
 330 660 l 1
 330 760 l 1
 430 760 l 1
320 760 m 1
 320 660 l 1
 220 660 l 1
 220 760 l 1
 320 760 l 1
210 760 m 1
 210 660 l 1
 110 660 l 1
 110 760 l 1
 210 760 l 1
EndSplineSet
EndChar

StartChar: D
Encoding: 68 68 39
Width: 660
VWidth: 825
Flags: HW
LayerCount: 2
Fore
SplineSet
320 100 m 1
 320 0 l 1
 220 0 l 1
 220 100 l 1
 320 100 l 1
210 100 m 1
 210 0 l 1
 110 0 l 1
 110 100 l 1
 210 100 l 1
100 100 m 1
 100 0 l 1
 0 0 l 1
 0 100 l 1
 100 100 l 1
430 210 m 1
 430 110 l 1
 330 110 l 1
 330 210 l 1
 430 210 l 1
100 210 m 1
 100 110 l 1
 0 110 l 1
 0 210 l 1
 100 210 l 1
540 320 m 1
 540 220 l 1
 440 220 l 1
 440 320 l 1
 540 320 l 1
100 320 m 1
 100 220 l 1
 0 220 l 1
 0 320 l 1
 100 320 l 1
540 430 m 1
 540 330 l 1
 440 330 l 1
 440 430 l 1
 540 430 l 1
100 430 m 1
 100 330 l 1
 0 330 l 1
 0 430 l 1
 100 430 l 1
540 540 m 1
 540 440 l 1
 440 440 l 1
 440 540 l 1
 540 540 l 1
100 540 m 1
 100 440 l 1
 0 440 l 1
 0 540 l 1
 100 540 l 1
430 650 m 1
 430 550 l 1
 330 550 l 1
 330 650 l 1
 430 650 l 1
100 650 m 1
 100 550 l 1
 0 550 l 1
 0 650 l 1
 100 650 l 1
320 760 m 1
 320 660 l 1
 220 660 l 1
 220 760 l 1
 320 760 l 1
210 760 m 1
 210 660 l 1
 110 660 l 1
 110 760 l 1
 210 760 l 1
100 760 m 1
 100 660 l 1
 0 660 l 1
 0 760 l 1
 100 760 l 1
EndSplineSet
EndChar

StartChar: E
Encoding: 69 69 40
Width: 660
VWidth: 825
Flags: HW
LayerCount: 2
Fore
SplineSet
540 100 m 1
 540 0 l 1
 440 0 l 1
 440 100 l 1
 540 100 l 1
430 100 m 1
 430 0 l 1
 330 0 l 1
 330 100 l 1
 430 100 l 1
320 100 m 1
 320 0 l 1
 220 0 l 1
 220 100 l 1
 320 100 l 1
210 100 m 1
 210 0 l 1
 110 0 l 1
 110 100 l 1
 210 100 l 1
100 100 m 1
 100 0 l 1
 0 0 l 1
 0 100 l 1
 100 100 l 1
100 210 m 1
 100 110 l 1
 0 110 l 1
 0 210 l 1
 100 210 l 1
100 320 m 1
 100 220 l 1
 0 220 l 1
 0 320 l 1
 100 320 l 1
430 430 m 1
 430 330 l 1
 330 330 l 1
 330 430 l 1
 430 430 l 1
320 430 m 1
 320 330 l 1
 220 330 l 1
 220 430 l 1
 320 430 l 1
210 430 m 1
 210 330 l 1
 110 330 l 1
 110 430 l 1
 210 430 l 1
100 430 m 1
 100 330 l 1
 0 330 l 1
 0 430 l 1
 100 430 l 1
100 540 m 1
 100 440 l 1
 0 440 l 1
 0 540 l 1
 100 540 l 1
100 650 m 1
 100 550 l 1
 0 550 l 1
 0 650 l 1
 100 650 l 1
540 760 m 1
 540 660 l 1
 440 660 l 1
 440 760 l 1
 540 760 l 1
430 760 m 1
 430 660 l 1
 330 660 l 1
 330 760 l 1
 430 760 l 1
320 760 m 1
 320 660 l 1
 220 660 l 1
 220 760 l 1
 320 760 l 1
210 760 m 1
 210 660 l 1
 110 660 l 1
 110 760 l 1
 210 760 l 1
100 760 m 1
 100 660 l 1
 0 660 l 1
 0 760 l 1
 100 760 l 1
EndSplineSet
EndChar

StartChar: F
Encoding: 70 70 41
Width: 660
VWidth: 825
Flags: HW
LayerCount: 2
Fore
SplineSet
100 100 m 1
 100 0 l 1
 0 0 l 1
 0 100 l 1
 100 100 l 1
100 210 m 1
 100 110 l 1
 0 110 l 1
 0 210 l 1
 100 210 l 1
100 320 m 1
 100 220 l 1
 0 220 l 1
 0 320 l 1
 100 320 l 1
430 430 m 1
 430 330 l 1
 330 330 l 1
 330 430 l 1
 430 430 l 1
320 430 m 1
 320 330 l 1
 220 330 l 1
 220 430 l 1
 320 430 l 1
210 430 m 1
 210 330 l 1
 110 330 l 1
 110 430 l 1
 210 430 l 1
100 430 m 1
 100 330 l 1
 0 330 l 1
 0 430 l 1
 100 430 l 1
100 540 m 1
 100 440 l 1
 0 440 l 1
 0 540 l 1
 100 540 l 1
100 650 m 1
 100 550 l 1
 0 550 l 1
 0 650 l 1
 100 650 l 1
540 760 m 1
 540 660 l 1
 440 660 l 1
 440 760 l 1
 540 760 l 1
430 760 m 1
 430 660 l 1
 330 660 l 1
 330 760 l 1
 430 760 l 1
320 760 m 1
 320 660 l 1
 220 660 l 1
 220 760 l 1
 320 760 l 1
210 760 m 1
 210 660 l 1
 110 660 l 1
 110 760 l 1
 210 760 l 1
100 760 m 1
 100 660 l 1
 0 660 l 1
 0 760 l 1
 100 760 l 1
EndSplineSet
EndChar

StartChar: G
Encoding: 71 71 42
Width: 660
VWidth: 825
Flags: HW
LayerCount: 2
Fore
SplineSet
540 100 m 1
 540 0 l 1
 440 0 l 1
 440 100 l 1
 540 100 l 1
430 100 m 1
 430 0 l 1
 330 0 l 1
 330 100 l 1
 430 100 l 1
320 100 m 1
 320 0 l 1
 220 0 l 1
 220 100 l 1
 320 100 l 1
210 100 m 1
 210 0 l 1
 110 0 l 1
 110 100 l 1
 210 100 l 1
540 210 m 1
 540 110 l 1
 440 110 l 1
 440 210 l 1
 540 210 l 1
100 210 m 1
 100 110 l 1
 0 110 l 1
 0 210 l 1
 100 210 l 1
540 320 m 1
 540 220 l 1
 440 220 l 1
 440 320 l 1
 540 320 l 1
100 320 m 1
 100 220 l 1
 0 220 l 1
 0 320 l 1
 100 320 l 1
540 430 m 1
 540 330 l 1
 440 330 l 1
 440 430 l 1
 540 430 l 1
430 430 m 1
 430 330 l 1
 330 330 l 1
 330 430 l 1
 430 430 l 1
320 430 m 1
 320 330 l 1
 220 330 l 1
 220 430 l 1
 320 430 l 1
100 430 m 1
 100 330 l 1
 0 330 l 1
 0 430 l 1
 100 430 l 1
100 540 m 1
 100 440 l 1
 0 440 l 1
 0 540 l 1
 100 540 l 1
540 650 m 1
 540 550 l 1
 440 550 l 1
 440 650 l 1
 540 650 l 1
100 650 m 1
 100 550 l 1
 0 550 l 1
 0 650 l 1
 100 650 l 1
430 760 m 1
 430 660 l 1
 330 660 l 1
 330 760 l 1
 430 760 l 1
320 760 m 1
 320 660 l 1
 220 660 l 1
 220 760 l 1
 320 760 l 1
210 760 m 1
 210 660 l 1
 110 660 l 1
 110 760 l 1
 210 760 l 1
EndSplineSet
EndChar

StartChar: H
Encoding: 72 72 43
Width: 660
VWidth: 825
Flags: HW
LayerCount: 2
Fore
SplineSet
540 100 m 1
 540 0 l 1
 440 0 l 1
 440 100 l 1
 540 100 l 1
100 100 m 1
 100 0 l 1
 0 0 l 1
 0 100 l 1
 100 100 l 1
540 210 m 1
 540 110 l 1
 440 110 l 1
 440 210 l 1
 540 210 l 1
100 210 m 1
 100 110 l 1
 0 110 l 1
 0 210 l 1
 100 210 l 1
540 320 m 1
 540 220 l 1
 440 220 l 1
 440 320 l 1
 540 320 l 1
100 320 m 1
 100 220 l 1
 0 220 l 1
 0 320 l 1
 100 320 l 1
540 430 m 1
 540 330 l 1
 440 330 l 1
 440 430 l 1
 540 430 l 1
430 430 m 1
 430 330 l 1
 330 330 l 1
 330 430 l 1
 430 430 l 1
320 430 m 1
 320 330 l 1
 220 330 l 1
 220 430 l 1
 320 430 l 1
210 430 m 1
 210 330 l 1
 110 330 l 1
 110 430 l 1
 210 430 l 1
100 430 m 1
 100 330 l 1
 0 330 l 1
 0 430 l 1
 100 430 l 1
540 540 m 1
 540 440 l 1
 440 440 l 1
 440 540 l 1
 540 540 l 1
100 540 m 1
 100 440 l 1
 0 440 l 1
 0 540 l 1
 100 540 l 1
540 650 m 1
 540 550 l 1
 440 550 l 1
 440 650 l 1
 540 650 l 1
100 650 m 1
 100 550 l 1
 0 550 l 1
 0 650 l 1
 100 650 l 1
540 760 m 1
 540 660 l 1
 440 660 l 1
 440 760 l 1
 540 760 l 1
100 760 m 1
 100 660 l 1
 0 660 l 1
 0 760 l 1
 100 760 l 1
EndSplineSet
EndChar

StartChar: I
Encoding: 73 73 44
Width: 660
VWidth: 825
Flags: HW
LayerCount: 2
Fore
SplineSet
430 100 m 1
 430 0 l 1
 330 0 l 1
 330 100 l 1
 430 100 l 1
320 100 m 1
 320 0 l 1
 220 0 l 1
 220 100 l 1
 320 100 l 1
210 100 m 1
 210 0 l 1
 110 0 l 1
 110 100 l 1
 210 100 l 1
320 210 m 1
 320 110 l 1
 220 110 l 1
 220 210 l 1
 320 210 l 1
320 320 m 1
 320 220 l 1
 220 220 l 1
 220 320 l 1
 320 320 l 1
320 430 m 1
 320 330 l 1
 220 330 l 1
 220 430 l 1
 320 430 l 1
320 540 m 1
 320 440 l 1
 220 440 l 1
 220 540 l 1
 320 540 l 1
320 650 m 1
 320 550 l 1
 220 550 l 1
 220 650 l 1
 320 650 l 1
430 760 m 1
 430 660 l 1
 330 660 l 1
 330 760 l 1
 430 760 l 1
320 760 m 1
 320 660 l 1
 220 660 l 1
 220 760 l 1
 320 760 l 1
210 760 m 1
 210 660 l 1
 110 660 l 1
 110 760 l 1
 210 760 l 1
EndSplineSet
EndChar

StartChar: J
Encoding: 74 74 45
Width: 660
VWidth: 825
Flags: HW
LayerCount: 2
Fore
SplineSet
320 100 m 1
 320 0 l 1
 220 0 l 1
 220 100 l 1
 320 100 l 1
210 100 m 1
 210 0 l 1
 110 0 l 1
 110 100 l 1
 210 100 l 1
430 210 m 1
 430 110 l 1
 330 110 l 1
 330 210 l 1
 430 210 l 1
100 210 m 1
 100 110 l 1
 0 110 l 1
 0 210 l 1
 100 210 l 1
430 320 m 1
 430 220 l 1
 330 220 l 1
 330 320 l 1
 430 320 l 1
430 430 m 1
 430 330 l 1
 330 330 l 1
 330 430 l 1
 430 430 l 1
430 540 m 1
 430 440 l 1
 330 440 l 1
 330 540 l 1
 430 540 l 1
430 650 m 1
 430 550 l 1
 330 550 l 1
 330 650 l 1
 430 650 l 1
540 760 m 1
 540 660 l 1
 440 660 l 1
 440 760 l 1
 540 760 l 1
430 760 m 1
 430 660 l 1
 330 660 l 1
 330 760 l 1
 430 760 l 1
320 760 m 1
 320 660 l 1
 220 660 l 1
 220 760 l 1
 320 760 l 1
EndSplineSet
EndChar

StartChar: K
Encoding: 75 75 46
Width: 660
VWidth: 825
Flags: HW
LayerCount: 2
Fore
SplineSet
540 100 m 1
 540 0 l 1
 440 0 l 1
 440 100 l 1
 540 100 l 1
100 100 m 1
 100 0 l 1
 0 0 l 1
 0 100 l 1
 100 100 l 1
430 210 m 1
 430 110 l 1
 330 110 l 1
 330 210 l 1
 430 210 l 1
100 210 m 1
 100 110 l 1
 0 110 l 1
 0 210 l 1
 100 210 l 1
320 320 m 1
 320 220 l 1
 220 220 l 1
 220 320 l 1
 320 320 l 1
100 320 m 1
 100 220 l 1
 0 220 l 1
 0 320 l 1
 100 320 l 1
210 430 m 1
 210 330 l 1
 110 330 l 1
 110 430 l 1
 210 430 l 1
100 430 m 1
 100 330 l 1
 0 330 l 1
 0 430 l 1
 100 430 l 1
320 540 m 1
 320 440 l 1
 220 440 l 1
 220 540 l 1
 320 540 l 1
100 540 m 1
 100 440 l 1
 0 440 l 1
 0 540 l 1
 100 540 l 1
430 650 m 1
 430 550 l 1
 330 550 l 1
 330 650 l 1
 430 650 l 1
100 650 m 1
 100 550 l 1
 0 550 l 1
 0 650 l 1
 100 650 l 1
540 760 m 1
 540 660 l 1
 440 660 l 1
 440 760 l 1
 540 760 l 1
100 760 m 1
 100 660 l 1
 0 660 l 1
 0 760 l 1
 100 760 l 1
EndSplineSet
EndChar

StartChar: L
Encoding: 76 76 47
Width: 660
VWidth: 825
Flags: HW
LayerCount: 2
Fore
SplineSet
540 100 m 1
 540 0 l 1
 440 0 l 1
 440 100 l 1
 540 100 l 1
430 100 m 1
 430 0 l 1
 330 0 l 1
 330 100 l 1
 430 100 l 1
320 100 m 1
 320 0 l 1
 220 0 l 1
 220 100 l 1
 320 100 l 1
210 100 m 1
 210 0 l 1
 110 0 l 1
 110 100 l 1
 210 100 l 1
100 100 m 1
 100 0 l 1
 0 0 l 1
 0 100 l 1
 100 100 l 1
100 210 m 1
 100 110 l 1
 0 110 l 1
 0 210 l 1
 100 210 l 1
100 320 m 1
 100 220 l 1
 0 220 l 1
 0 320 l 1
 100 320 l 1
100 430 m 1
 100 330 l 1
 0 330 l 1
 0 430 l 1
 100 430 l 1
100 540 m 1
 100 440 l 1
 0 440 l 1
 0 540 l 1
 100 540 l 1
100 650 m 1
 100 550 l 1
 0 550 l 1
 0 650 l 1
 100 650 l 1
100 760 m 1
 100 660 l 1
 0 660 l 1
 0 760 l 1
 100 760 l 1
EndSplineSet
EndChar

StartChar: M
Encoding: 77 77 48
Width: 660
VWidth: 825
Flags: HW
LayerCount: 2
Fore
SplineSet
540 100 m 1
 540 0 l 1
 440 0 l 1
 440 100 l 1
 540 100 l 1
100 100 m 1
 100 0 l 1
 0 0 l 1
 0 100 l 1
 100 100 l 1
540 210 m 1
 540 110 l 1
 440 110 l 1
 440 210 l 1
 540 210 l 1
100 210 m 1
 100 110 l 1
 0 110 l 1
 0 210 l 1
 100 210 l 1
540 320 m 1
 540 220 l 1
 440 220 l 1
 440 320 l 1
 540 320 l 1
100 320 m 1
 100 220 l 1
 0 220 l 1
 0 320 l 1
 100 320 l 1
540 430 m 1
 540 330 l 1
 440 330 l 1
 440 430 l 1
 540 430 l 1
320 430 m 1
 320 330 l 1
 220 330 l 1
 220 430 l 1
 320 430 l 1
100 430 m 1
 100 330 l 1
 0 330 l 1
 0 430 l 1
 100 430 l 1
540 540 m 1
 540 440 l 1
 440 440 l 1
 440 540 l 1
 540 540 l 1
320 540 m 1
 320 440 l 1
 220 440 l 1
 220 540 l 1
 320 540 l 1
100 540 m 1
 100 440 l 1
 0 440 l 1
 0 540 l 1
 100 540 l 1
540 650 m 1
 540 550 l 1
 440 550 l 1
 440 650 l 1
 540 650 l 1
430 650 m 1
 430 550 l 1
 330 550 l 1
 330 650 l 1
 430 650 l 1
210 650 m 1
 210 550 l 1
 110 550 l 1
 110 650 l 1
 210 650 l 1
100 650 m 1
 100 550 l 1
 0 550 l 1
 0 650 l 1
 100 650 l 1
540 760 m 1
 540 660 l 1
 440 660 l 1
 440 760 l 1
 540 760 l 1
100 760 m 1
 100 660 l 1
 0 660 l 1
 0 760 l 1
 100 760 l 1
EndSplineSet
EndChar

StartChar: N
Encoding: 78 78 49
Width: 660
VWidth: 825
Flags: HW
LayerCount: 2
Fore
SplineSet
540 100 m 1
 540 0 l 1
 440 0 l 1
 440 100 l 1
 540 100 l 1
100 100 m 1
 100 0 l 1
 0 0 l 1
 0 100 l 1
 100 100 l 1
540 210 m 1
 540 110 l 1
 440 110 l 1
 440 210 l 1
 540 210 l 1
100 210 m 1
 100 110 l 1
 0 110 l 1
 0 210 l 1
 100 210 l 1
540 320 m 1
 540 220 l 1
 440 220 l 1
 440 320 l 1
 540 320 l 1
430 320 m 1
 430 220 l 1
 330 220 l 1
 330 320 l 1
 430 320 l 1
100 320 m 1
 100 220 l 1
 0 220 l 1
 0 320 l 1
 100 320 l 1
540 430 m 1
 540 330 l 1
 440 330 l 1
 440 430 l 1
 540 430 l 1
320 430 m 1
 320 330 l 1
 220 330 l 1
 220 430 l 1
 320 430 l 1
100 430 m 1
 100 330 l 1
 0 330 l 1
 0 430 l 1
 100 430 l 1
540 540 m 1
 540 440 l 1
 440 440 l 1
 440 540 l 1
 540 540 l 1
210 540 m 1
 210 440 l 1
 110 440 l 1
 110 540 l 1
 210 540 l 1
100 540 m 1
 100 440 l 1
 0 440 l 1
 0 540 l 1
 100 540 l 1
540 650 m 1
 540 550 l 1
 440 550 l 1
 440 650 l 1
 540 650 l 1
100 650 m 1
 100 550 l 1
 0 550 l 1
 0 650 l 1
 100 650 l 1
540 760 m 1
 540 660 l 1
 440 660 l 1
 440 760 l 1
 540 760 l 1
100 760 m 1
 100 660 l 1
 0 660 l 1
 0 760 l 1
 100 760 l 1
EndSplineSet
EndChar

StartChar: O
Encoding: 79 79 50
Width: 660
VWidth: 825
Flags: HW
LayerCount: 2
Fore
SplineSet
430 100 m 1
 430 0 l 1
 330 0 l 1
 330 100 l 1
 430 100 l 1
320 100 m 1
 320 0 l 1
 220 0 l 1
 220 100 l 1
 320 100 l 1
210 100 m 1
 210 0 l 1
 110 0 l 1
 110 100 l 1
 210 100 l 1
540 210 m 1
 540 110 l 1
 440 110 l 1
 440 210 l 1
 540 210 l 1
100 210 m 1
 100 110 l 1
 0 110 l 1
 0 210 l 1
 100 210 l 1
540 320 m 1
 540 220 l 1
 440 220 l 1
 440 320 l 1
 540 320 l 1
100 320 m 1
 100 220 l 1
 0 220 l 1
 0 320 l 1
 100 320 l 1
540 430 m 1
 540 330 l 1
 440 330 l 1
 440 430 l 1
 540 430 l 1
100 430 m 1
 100 330 l 1
 0 330 l 1
 0 430 l 1
 100 430 l 1
540 540 m 1
 540 440 l 1
 440 440 l 1
 440 540 l 1
 540 540 l 1
100 540 m 1
 100 440 l 1
 0 440 l 1
 0 540 l 1
 100 540 l 1
540 650 m 1
 540 550 l 1
 440 550 l 1
 440 650 l 1
 540 650 l 1
100 650 m 1
 100 550 l 1
 0 550 l 1
 0 650 l 1
 100 650 l 1
430 760 m 1
 430 660 l 1
 330 660 l 1
 330 760 l 1
 430 760 l 1
320 760 m 1
 320 660 l 1
 220 660 l 1
 220 760 l 1
 320 760 l 1
210 760 m 1
 210 660 l 1
 110 660 l 1
 110 760 l 1
 210 760 l 1
EndSplineSet
EndChar

StartChar: P
Encoding: 80 80 51
Width: 660
VWidth: 825
Flags: HW
LayerCount: 2
Fore
SplineSet
100 100 m 1
 100 0 l 1
 0 0 l 1
 0 100 l 1
 100 100 l 1
100 210 m 1
 100 110 l 1
 0 110 l 1
 0 210 l 1
 100 210 l 1
100 320 m 1
 100 220 l 1
 0 220 l 1
 0 320 l 1
 100 320 l 1
430 430 m 1
 430 330 l 1
 330 330 l 1
 330 430 l 1
 430 430 l 1
320 430 m 1
 320 330 l 1
 220 330 l 1
 220 430 l 1
 320 430 l 1
210 430 m 1
 210 330 l 1
 110 330 l 1
 110 430 l 1
 210 430 l 1
100 430 m 1
 100 330 l 1
 0 330 l 1
 0 430 l 1
 100 430 l 1
540 540 m 1
 540 440 l 1
 440 440 l 1
 440 540 l 1
 540 540 l 1
100 540 m 1
 100 440 l 1
 0 440 l 1
 0 540 l 1
 100 540 l 1
540 650 m 1
 540 550 l 1
 440 550 l 1
 440 650 l 1
 540 650 l 1
100 650 m 1
 100 550 l 1
 0 550 l 1
 0 650 l 1
 100 650 l 1
430 760 m 1
 430 660 l 1
 330 660 l 1
 330 760 l 1
 430 760 l 1
320 760 m 1
 320 660 l 1
 220 660 l 1
 220 760 l 1
 320 760 l 1
210 760 m 1
 210 660 l 1
 110 660 l 1
 110 760 l 1
 210 760 l 1
100 760 m 1
 100 660 l 1
 0 660 l 1
 0 760 l 1
 100 760 l 1
EndSplineSet
EndChar

StartChar: Q
Encoding: 81 81 52
Width: 660
VWidth: 825
Flags: HW
LayerCount: 2
Fore
SplineSet
540 100 m 1
 540 0 l 1
 440 0 l 1
 440 100 l 1
 540 100 l 1
320 100 m 1
 320 0 l 1
 220 0 l 1
 220 100 l 1
 320 100 l 1
210 100 m 1
 210 0 l 1
 110 0 l 1
 110 100 l 1
 210 100 l 1
430 210 m 1
 430 110 l 1
 330 110 l 1
 330 210 l 1
 430 210 l 1
100 210 m 1
 100 110 l 1
 0 110 l 1
 0 210 l 1
 100 210 l 1
540 320 m 1
 540 220 l 1
 440 220 l 1
 440 320 l 1
 540 320 l 1
320 320 m 1
 320 220 l 1
 220 220 l 1
 220 320 l 1
 320 320 l 1
100 320 m 1
 100 220 l 1
 0 220 l 1
 0 320 l 1
 100 320 l 1
540 430 m 1
 540 330 l 1
 440 330 l 1
 440 430 l 1
 540 430 l 1
100 430 m 1
 100 330 l 1
 0 330 l 1
 0 430 l 1
 100 430 l 1
540 540 m 1
 540 440 l 1
 440 440 l 1
 440 540 l 1
 540 540 l 1
100 540 m 1
 100 440 l 1
 0 440 l 1
 0 540 l 1
 100 540 l 1
540 650 m 1
 540 550 l 1
 440 550 l 1
 440 650 l 1
 540 650 l 1
100 650 m 1
 100 550 l 1
 0 550 l 1
 0 650 l 1
 100 650 l 1
430 760 m 1
 430 660 l 1
 330 660 l 1
 330 760 l 1
 430 760 l 1
320 760 m 1
 320 660 l 1
 220 660 l 1
 220 760 l 1
 320 760 l 1
210 760 m 1
 210 660 l 1
 110 660 l 1
 110 760 l 1
 210 760 l 1
EndSplineSet
EndChar

StartChar: R
Encoding: 82 82 53
Width: 660
VWidth: 825
Flags: HW
LayerCount: 2
Fore
SplineSet
540 100 m 1
 540 0 l 1
 440 0 l 1
 440 100 l 1
 540 100 l 1
100 100 m 1
 100 0 l 1
 0 0 l 1
 0 100 l 1
 100 100 l 1
430 210 m 1
 430 110 l 1
 330 110 l 1
 330 210 l 1
 430 210 l 1
100 210 m 1
 100 110 l 1
 0 110 l 1
 0 210 l 1
 100 210 l 1
320 320 m 1
 320 220 l 1
 220 220 l 1
 220 320 l 1
 320 320 l 1
100 320 m 1
 100 220 l 1
 0 220 l 1
 0 320 l 1
 100 320 l 1
430 430 m 1
 430 330 l 1
 330 330 l 1
 330 430 l 1
 430 430 l 1
320 430 m 1
 320 330 l 1
 220 330 l 1
 220 430 l 1
 320 430 l 1
210 430 m 1
 210 330 l 1
 110 330 l 1
 110 430 l 1
 210 430 l 1
100 430 m 1
 100 330 l 1
 0 330 l 1
 0 430 l 1
 100 430 l 1
540 540 m 1
 540 440 l 1
 440 440 l 1
 440 540 l 1
 540 540 l 1
100 540 m 1
 100 440 l 1
 0 440 l 1
 0 540 l 1
 100 540 l 1
540 650 m 1
 540 550 l 1
 440 550 l 1
 440 650 l 1
 540 650 l 1
100 650 m 1
 100 550 l 1
 0 550 l 1
 0 650 l 1
 100 650 l 1
430 760 m 1
 430 660 l 1
 330 660 l 1
 330 760 l 1
 430 760 l 1
320 760 m 1
 320 660 l 1
 220 660 l 1
 220 760 l 1
 320 760 l 1
210 760 m 1
 210 660 l 1
 110 660 l 1
 110 760 l 1
 210 760 l 1
100 760 m 1
 100 660 l 1
 0 660 l 1
 0 760 l 1
 100 760 l 1
EndSplineSet
EndChar

StartChar: S
Encoding: 83 83 54
Width: 660
VWidth: 825
Flags: HW
LayerCount: 2
Fore
SplineSet
430 100 m 1
 430 0 l 1
 330 0 l 1
 330 100 l 1
 430 100 l 1
320 100 m 1
 320 0 l 1
 220 0 l 1
 220 100 l 1
 320 100 l 1
210 100 m 1
 210 0 l 1
 110 0 l 1
 110 100 l 1
 210 100 l 1
100 100 m 1
 100 0 l 1
 0 0 l 1
 0 100 l 1
 100 100 l 1
540 210 m 1
 540 110 l 1
 440 110 l 1
 440 210 l 1
 540 210 l 1
540 320 m 1
 540 220 l 1
 440 220 l 1
 440 320 l 1
 540 320 l 1
430 430 m 1
 430 330 l 1
 330 330 l 1
 330 430 l 1
 430 430 l 1
320 430 m 1
 320 330 l 1
 220 330 l 1
 220 430 l 1
 320 430 l 1
210 430 m 1
 210 330 l 1
 110 330 l 1
 110 430 l 1
 210 430 l 1
100 540 m 1
 100 440 l 1
 0 440 l 1
 0 540 l 1
 100 540 l 1
100 650 m 1
 100 550 l 1
 0 550 l 1
 0 650 l 1
 100 650 l 1
540 760 m 1
 540 660 l 1
 440 660 l 1
 440 760 l 1
 540 760 l 1
430 760 m 1
 430 660 l 1
 330 660 l 1
 330 760 l 1
 430 760 l 1
320 760 m 1
 320 660 l 1
 220 660 l 1
 220 760 l 1
 320 760 l 1
210 760 m 1
 210 660 l 1
 110 660 l 1
 110 760 l 1
 210 760 l 1
EndSplineSet
EndChar

StartChar: T
Encoding: 84 84 55
Width: 660
VWidth: 825
Flags: HW
LayerCount: 2
Fore
SplineSet
320 100 m 1
 320 0 l 1
 220 0 l 1
 220 100 l 1
 320 100 l 1
320 210 m 1
 320 110 l 1
 220 110 l 1
 220 210 l 1
 320 210 l 1
320 320 m 1
 320 220 l 1
 220 220 l 1
 220 320 l 1
 320 320 l 1
320 430 m 1
 320 330 l 1
 220 330 l 1
 220 430 l 1
 320 430 l 1
320 540 m 1
 320 440 l 1
 220 440 l 1
 220 540 l 1
 320 540 l 1
320 650 m 1
 320 550 l 1
 220 550 l 1
 220 650 l 1
 320 650 l 1
540 760 m 1
 540 660 l 1
 440 660 l 1
 440 760 l 1
 540 760 l 1
430 760 m 1
 430 660 l 1
 330 660 l 1
 330 760 l 1
 430 760 l 1
320 760 m 1
 320 660 l 1
 220 660 l 1
 220 760 l 1
 320 760 l 1
210 760 m 1
 210 660 l 1
 110 660 l 1
 110 760 l 1
 210 760 l 1
100 760 m 1
 100 660 l 1
 0 660 l 1
 0 760 l 1
 100 760 l 1
EndSplineSet
EndChar

StartChar: U
Encoding: 85 85 56
Width: 660
VWidth: 825
Flags: HW
LayerCount: 2
Fore
SplineSet
430 100 m 1
 430 0 l 1
 330 0 l 1
 330 100 l 1
 430 100 l 1
320 100 m 1
 320 0 l 1
 220 0 l 1
 220 100 l 1
 320 100 l 1
210 100 m 1
 210 0 l 1
 110 0 l 1
 110 100 l 1
 210 100 l 1
540 210 m 1
 540 110 l 1
 440 110 l 1
 440 210 l 1
 540 210 l 1
100 210 m 1
 100 110 l 1
 0 110 l 1
 0 210 l 1
 100 210 l 1
540 320 m 1
 540 220 l 1
 440 220 l 1
 440 320 l 1
 540 320 l 1
100 320 m 1
 100 220 l 1
 0 220 l 1
 0 320 l 1
 100 320 l 1
540 430 m 1
 540 330 l 1
 440 330 l 1
 440 430 l 1
 540 430 l 1
100 430 m 1
 100 330 l 1
 0 330 l 1
 0 430 l 1
 100 430 l 1
540 540 m 1
 540 440 l 1
 440 440 l 1
 440 540 l 1
 540 540 l 1
100 540 m 1
 100 440 l 1
 0 440 l 1
 0 540 l 1
 100 540 l 1
540 650 m 1
 540 550 l 1
 440 550 l 1
 440 650 l 1
 540 650 l 1
100 650 m 1
 100 550 l 1
 0 550 l 1
 0 650 l 1
 100 650 l 1
540 760 m 1
 540 660 l 1
 440 660 l 1
 440 760 l 1
 540 760 l 1
100 760 m 1
 100 660 l 1
 0 660 l 1
 0 760 l 1
 100 760 l 1
EndSplineSet
EndChar

StartChar: V
Encoding: 86 86 57
Width: 660
VWidth: 825
Flags: HW
LayerCount: 2
Fore
SplineSet
320 100 m 1
 320 0 l 1
 220 0 l 1
 220 100 l 1
 320 100 l 1
430 210 m 1
 430 110 l 1
 330 110 l 1
 330 210 l 1
 430 210 l 1
210 210 m 1
 210 110 l 1
 110 110 l 1
 110 210 l 1
 210 210 l 1
540 320 m 1
 540 220 l 1
 440 220 l 1
 440 320 l 1
 540 320 l 1
100 320 m 1
 100 220 l 1
 0 220 l 1
 0 320 l 1
 100 320 l 1
540 430 m 1
 540 330 l 1
 440 330 l 1
 440 430 l 1
 540 430 l 1
100 430 m 1
 100 330 l 1
 0 330 l 1
 0 430 l 1
 100 430 l 1
540 540 m 1
 540 440 l 1
 440 440 l 1
 440 540 l 1
 540 540 l 1
100 540 m 1
 100 440 l 1
 0 440 l 1
 0 540 l 1
 100 540 l 1
540 650 m 1
 540 550 l 1
 440 550 l 1
 440 650 l 1
 540 650 l 1
100 650 m 1
 100 550 l 1
 0 550 l 1
 0 650 l 1
 100 650 l 1
540 760 m 1
 540 660 l 1
 440 660 l 1
 440 760 l 1
 540 760 l 1
100 760 m 1
 100 660 l 1
 0 660 l 1
 0 760 l 1
 100 760 l 1
EndSplineSet
EndChar

StartChar: W
Encoding: 87 87 58
Width: 660
VWidth: 825
Flags: HW
LayerCount: 2
Fore
SplineSet
430 100 m 1
 430 0 l 1
 330 0 l 1
 330 100 l 1
 430 100 l 1
210 100 m 1
 210 0 l 1
 110 0 l 1
 110 100 l 1
 210 100 l 1
540 210 m 1
 540 110 l 1
 440 110 l 1
 440 210 l 1
 540 210 l 1
320 210 m 1
 320 110 l 1
 220 110 l 1
 220 210 l 1
 320 210 l 1
100 210 m 1
 100 110 l 1
 0 110 l 1
 0 210 l 1
 100 210 l 1
540 320 m 1
 540 220 l 1
 440 220 l 1
 440 320 l 1
 540 320 l 1
320 320 m 1
 320 220 l 1
 220 220 l 1
 220 320 l 1
 320 320 l 1
100 320 m 1
 100 220 l 1
 0 220 l 1
 0 320 l 1
 100 320 l 1
540 430 m 1
 540 330 l 1
 440 330 l 1
 440 430 l 1
 540 430 l 1
320 430 m 1
 320 330 l 1
 220 330 l 1
 220 430 l 1
 320 430 l 1
100 430 m 1
 100 330 l 1
 0 330 l 1
 0 430 l 1
 100 430 l 1
540 540 m 1
 540 440 l 1
 440 440 l 1
 440 540 l 1
 540 540 l 1
100 540 m 1
 100 440 l 1
 0 440 l 1
 0 540 l 1
 100 540 l 1
540 650 m 1
 540 550 l 1
 440 550 l 1
 440 650 l 1
 540 650 l 1
100 650 m 1
 100 550 l 1
 0 550 l 1
 0 650 l 1
 100 650 l 1
540 760 m 1
 540 660 l 1
 440 660 l 1
 440 760 l 1
 540 760 l 1
100 760 m 1
 100 660 l 1
 0 660 l 1
 0 760 l 1
 100 760 l 1
EndSplineSet
EndChar

StartChar: X
Encoding: 88 88 59
Width: 660
VWidth: 825
Flags: HW
LayerCount: 2
Fore
SplineSet
540 100 m 1
 540 0 l 1
 440 0 l 1
 440 100 l 1
 540 100 l 1
100 100 m 1
 100 0 l 1
 0 0 l 1
 0 100 l 1
 100 100 l 1
540 210 m 1
 540 110 l 1
 440 110 l 1
 440 210 l 1
 540 210 l 1
100 210 m 1
 100 110 l 1
 0 110 l 1
 0 210 l 1
 100 210 l 1
430 320 m 1
 430 220 l 1
 330 220 l 1
 330 320 l 1
 430 320 l 1
210 320 m 1
 210 220 l 1
 110 220 l 1
 110 320 l 1
 210 320 l 1
320 430 m 1
 320 330 l 1
 220 330 l 1
 220 430 l 1
 320 430 l 1
430 540 m 1
 430 440 l 1
 330 440 l 1
 330 540 l 1
 430 540 l 1
210 540 m 1
 210 440 l 1
 110 440 l 1
 110 540 l 1
 210 540 l 1
540 650 m 1
 540 550 l 1
 440 550 l 1
 440 650 l 1
 540 650 l 1
100 650 m 1
 100 550 l 1
 0 550 l 1
 0 650 l 1
 100 650 l 1
540 760 m 1
 540 660 l 1
 440 660 l 1
 440 760 l 1
 540 760 l 1
100 760 m 1
 100 660 l 1
 0 660 l 1
 0 760 l 1
 100 760 l 1
EndSplineSet
EndChar

StartChar: Y
Encoding: 89 89 60
Width: 660
VWidth: 825
Flags: HW
LayerCount: 2
Fore
SplineSet
320 100 m 1
 320 0 l 1
 220 0 l 1
 220 100 l 1
 320 100 l 1
320 210 m 1
 320 110 l 1
 220 110 l 1
 220 210 l 1
 320 210 l 1
320 320 m 1
 320 220 l 1
 220 220 l 1
 220 320 l 1
 320 320 l 1
430 430 m 1
 430 330 l 1
 330 330 l 1
 330 430 l 1
 430 430 l 1
210 430 m 1
 210 330 l 1
 110 330 l 1
 110 430 l 1
 210 430 l 1
540 540 m 1
 540 440 l 1
 440 440 l 1
 440 540 l 1
 540 540 l 1
100 540 m 1
 100 440 l 1
 0 440 l 1
 0 540 l 1
 100 540 l 1
540 650 m 1
 540 550 l 1
 440 550 l 1
 440 650 l 1
 540 650 l 1
100 650 m 1
 100 550 l 1
 0 550 l 1
 0 650 l 1
 100 650 l 1
540 760 m 1
 540 660 l 1
 440 660 l 1
 440 760 l 1
 540 760 l 1
100 760 m 1
 100 660 l 1
 0 660 l 1
 0 760 l 1
 100 760 l 1
EndSplineSet
EndChar

StartChar: Z
Encoding: 90 90 61
Width: 660
VWidth: 825
Flags: HW
LayerCount: 2
Fore
SplineSet
540 100 m 1
 540 0 l 1
 440 0 l 1
 440 100 l 1
 540 100 l 1
430 100 m 1
 430 0 l 1
 330 0 l 1
 330 100 l 1
 430 100 l 1
320 100 m 1
 320 0 l 1
 220 0 l 1
 220 100 l 1
 320 100 l 1
210 100 m 1
 210 0 l 1
 110 0 l 1
 110 100 l 1
 210 100 l 1
100 100 m 1
 100 0 l 1
 0 0 l 1
 0 100 l 1
 100 100 l 1
100 210 m 1
 100 110 l 1
 0 110 l 1
 0 210 l 1
 100 210 l 1
210 320 m 1
 210 220 l 1
 110 220 l 1
 110 320 l 1
 210 320 l 1
320 430 m 1
 320 330 l 1
 220 330 l 1
 220 430 l 1
 320 430 l 1
430 540 m 1
 430 440 l 1
 330 440 l 1
 330 540 l 1
 430 540 l 1
540 650 m 1
 540 550 l 1
 440 550 l 1
 440 650 l 1
 540 650 l 1
540 760 m 1
 540 660 l 1
 440 660 l 1
 440 760 l 1
 540 760 l 1
430 760 m 1
 430 660 l 1
 330 660 l 1
 330 760 l 1
 430 760 l 1
320 760 m 1
 320 660 l 1
 220 660 l 1
 220 760 l 1
 320 760 l 1
210 760 m 1
 210 660 l 1
 110 660 l 1
 110 760 l 1
 210 760 l 1
100 760 m 1
 100 660 l 1
 0 660 l 1
 0 760 l 1
 100 760 l 1
EndSplineSet
EndChar

StartChar: bracketleft
Encoding: 91 91 62
Width: 660
VWidth: 825
Flags: HW
LayerCount: 2
Fore
SplineSet
430 100 m 1
 430 0 l 1
 330 0 l 1
 330 100 l 1
 430 100 l 1
320 100 m 1
 320 0 l 1
 220 0 l 1
 220 100 l 1
 320 100 l 1
210 100 m 1
 210 0 l 1
 110 0 l 1
 110 100 l 1
 210 100 l 1
210 210 m 1
 210 110 l 1
 110 110 l 1
 110 210 l 1
 210 210 l 1
210 320 m 1
 210 220 l 1
 110 220 l 1
 110 320 l 1
 210 320 l 1
210 430 m 1
 210 330 l 1
 110 330 l 1
 110 430 l 1
 210 430 l 1
210 540 m 1
 210 440 l 1
 110 440 l 1
 110 540 l 1
 210 540 l 1
210 650 m 1
 210 550 l 1
 110 550 l 1
 110 650 l 1
 210 650 l 1
430 760 m 1
 430 660 l 1
 330 660 l 1
 330 760 l 1
 430 760 l 1
320 760 m 1
 320 660 l 1
 220 660 l 1
 220 760 l 1
 320 760 l 1
210 760 m 1
 210 660 l 1
 110 660 l 1
 110 760 l 1
 210 760 l 1
EndSplineSet
EndChar

StartChar: bracketright
Encoding: 93 93 63
Width: 660
VWidth: 825
Flags: HW
LayerCount: 2
Fore
SplineSet
430 100 m 1
 430 0 l 1
 330 0 l 1
 330 100 l 1
 430 100 l 1
320 100 m 1
 320 0 l 1
 220 0 l 1
 220 100 l 1
 320 100 l 1
210 100 m 1
 210 0 l 1
 110 0 l 1
 110 100 l 1
 210 100 l 1
430 210 m 1
 430 110 l 1
 330 110 l 1
 330 210 l 1
 430 210 l 1
430 320 m 1
 430 220 l 1
 330 220 l 1
 330 320 l 1
 430 320 l 1
430 430 m 1
 430 330 l 1
 330 330 l 1
 330 430 l 1
 430 430 l 1
430 540 m 1
 430 440 l 1
 330 440 l 1
 330 540 l 1
 430 540 l 1
430 650 m 1
 430 550 l 1
 330 550 l 1
 330 650 l 1
 430 650 l 1
430 760 m 1
 430 660 l 1
 330 660 l 1
 330 760 l 1
 430 760 l 1
320 760 m 1
 320 660 l 1
 220 660 l 1
 220 760 l 1
 320 760 l 1
210 760 m 1
 210 660 l 1
 110 660 l 1
 110 760 l 1
 210 760 l 1
EndSplineSet
EndChar

StartChar: asciicircum
Encoding: 94 94 64
Width: 660
VWidth: 825
Flags: HW
LayerCount: 2
Fore
SplineSet
540 540 m 1
 540 440 l 1
 440 440 l 1
 440 540 l 1
 540 540 l 1
100 540 m 1
 100 440 l 1
 0 440 l 1
 0 540 l 1
 100 540 l 1
430 650 m 1
 430 550 l 1
 330 550 l 1
 330 650 l 1
 430 650 l 1
210 650 m 1
 210 550 l 1
 110 550 l 1
 110 650 l 1
 210 650 l 1
320 760 m 1
 320 660 l 1
 220 660 l 1
 220 760 l 1
 320 760 l 1
EndSplineSet
EndChar

StartChar: underscore
Encoding: 95 95 65
Width: 660
VWidth: 825
Flags: HW
LayerCount: 2
Fore
SplineSet
540 100 m 1
 540 0 l 1
 440 0 l 1
 440 100 l 1
 540 100 l 1
430 100 m 1
 430 0 l 1
 330 0 l 1
 330 100 l 1
 430 100 l 1
320 100 m 1
 320 0 l 1
 220 0 l 1
 220 100 l 1
 320 100 l 1
210 100 m 1
 210 0 l 1
 110 0 l 1
 110 100 l 1
 210 100 l 1
100 100 m 1
 100 0 l 1
 0 0 l 1
 0 100 l 1
 100 100 l 1
EndSplineSet
EndChar

StartChar: grave
Encoding: 96 96 66
Width: 660
VWidth: 825
Flags: HW
LayerCount: 2
Fore
SplineSet
430 540 m 1
 430 440 l 1
 330 440 l 1
 330 540 l 1
 430 540 l 1
320 650 m 1
 320 550 l 1
 220 550 l 1
 220 650 l 1
 320 650 l 1
210 760 m 1
 210 660 l 1
 110 660 l 1
 110 760 l 1
 210 760 l 1
EndSplineSet
EndChar

StartChar: b
Encoding: 98 98 67
Width: 660
VWidth: 825
Flags: HW
LayerCount: 2
Fore
SplineSet
430 100 m 1
 430 0 l 1
 330 0 l 1
 330 100 l 1
 430 100 l 1
320 100 m 1
 320 0 l 1
 220 0 l 1
 220 100 l 1
 320 100 l 1
210 100 m 1
 210 0 l 1
 110 0 l 1
 110 100 l 1
 210 100 l 1
100 100 m 1
 100 0 l 1
 0 0 l 1
 0 100 l 1
 100 100 l 1
540 210 m 1
 540 110 l 1
 440 110 l 1
 440 210 l 1
 540 210 l 1
100 210 m 1
 100 110 l 1
 0 110 l 1
 0 210 l 1
 100 210 l 1
540 320 m 1
 540 220 l 1
 440 220 l 1
 440 320 l 1
 540 320 l 1
100 320 m 1
 100 220 l 1
 0 220 l 1
 0 320 l 1
 100 320 l 1
540 430 m 1
 540 330 l 1
 440 330 l 1
 440 430 l 1
 540 430 l 1
210 430 m 1
 210 330 l 1
 110 330 l 1
 110 430 l 1
 210 430 l 1
100 430 m 1
 100 330 l 1
 0 330 l 1
 0 430 l 1
 100 430 l 1
430 540 m 1
 430 440 l 1
 330 440 l 1
 330 540 l 1
 430 540 l 1
320 540 m 1
 320 440 l 1
 220 440 l 1
 220 540 l 1
 320 540 l 1
100 540 m 1
 100 440 l 1
 0 440 l 1
 0 540 l 1
 100 540 l 1
100 650 m 1
 100 550 l 1
 0 550 l 1
 0 650 l 1
 100 650 l 1
100 760 m 1
 100 660 l 1
 0 660 l 1
 0 760 l 1
 100 760 l 1
EndSplineSet
EndChar

StartChar: c
Encoding: 99 99 68
Width: 660
VWidth: 825
Flags: HW
LayerCount: 2
Fore
SplineSet
430 100 m 1
 430 0 l 1
 330 0 l 1
 330 100 l 1
 430 100 l 1
320 100 m 1
 320 0 l 1
 220 0 l 1
 220 100 l 1
 320 100 l 1
210 100 m 1
 210 0 l 1
 110 0 l 1
 110 100 l 1
 210 100 l 1
540 210 m 1
 540 110 l 1
 440 110 l 1
 440 210 l 1
 540 210 l 1
100 210 m 1
 100 110 l 1
 0 110 l 1
 0 210 l 1
 100 210 l 1
100 320 m 1
 100 220 l 1
 0 220 l 1
 0 320 l 1
 100 320 l 1
100 430 m 1
 100 330 l 1
 0 330 l 1
 0 430 l 1
 100 430 l 1
430 540 m 1
 430 440 l 1
 330 440 l 1
 330 540 l 1
 430 540 l 1
320 540 m 1
 320 440 l 1
 220 440 l 1
 220 540 l 1
 320 540 l 1
210 540 m 1
 210 440 l 1
 110 440 l 1
 110 540 l 1
 210 540 l 1
EndSplineSet
EndChar

StartChar: d
Encoding: 100 100 69
Width: 660
VWidth: 825
Flags: HW
LayerCount: 2
Fore
SplineSet
540 100 m 1
 540 0 l 1
 440 0 l 1
 440 100 l 1
 540 100 l 1
430 100 m 1
 430 0 l 1
 330 0 l 1
 330 100 l 1
 430 100 l 1
320 100 m 1
 320 0 l 1
 220 0 l 1
 220 100 l 1
 320 100 l 1
210 100 m 1
 210 0 l 1
 110 0 l 1
 110 100 l 1
 210 100 l 1
540 210 m 1
 540 110 l 1
 440 110 l 1
 440 210 l 1
 540 210 l 1
100 210 m 1
 100 110 l 1
 0 110 l 1
 0 210 l 1
 100 210 l 1
540 320 m 1
 540 220 l 1
 440 220 l 1
 440 320 l 1
 540 320 l 1
100 320 m 1
 100 220 l 1
 0 220 l 1
 0 320 l 1
 100 320 l 1
540 430 m 1
 540 330 l 1
 440 330 l 1
 440 430 l 1
 540 430 l 1
430 430 m 1
 430 330 l 1
 330 330 l 1
 330 430 l 1
 430 430 l 1
100 430 m 1
 100 330 l 1
 0 330 l 1
 0 430 l 1
 100 430 l 1
540 540 m 1
 540 440 l 1
 440 440 l 1
 440 540 l 1
 540 540 l 1
320 540 m 1
 320 440 l 1
 220 440 l 1
 220 540 l 1
 320 540 l 1
210 540 m 1
 210 440 l 1
 110 440 l 1
 110 540 l 1
 210 540 l 1
540 650 m 1
 540 550 l 1
 440 550 l 1
 440 650 l 1
 540 650 l 1
540 760 m 1
 540 660 l 1
 440 660 l 1
 440 760 l 1
 540 760 l 1
EndSplineSet
EndChar

StartChar: e
Encoding: 101 101 70
Width: 660
VWidth: 825
Flags: HW
LayerCount: 2
Fore
SplineSet
430 100 m 1
 430 0 l 1
 330 0 l 1
 330 100 l 1
 430 100 l 1
320 100 m 1
 320 0 l 1
 220 0 l 1
 220 100 l 1
 320 100 l 1
210 100 m 1
 210 0 l 1
 110 0 l 1
 110 100 l 1
 210 100 l 1
100 210 m 1
 100 110 l 1
 0 110 l 1
 0 210 l 1
 100 210 l 1
540 320 m 1
 540 220 l 1
 440 220 l 1
 440 320 l 1
 540 320 l 1
430 320 m 1
 430 220 l 1
 330 220 l 1
 330 320 l 1
 430 320 l 1
320 320 m 1
 320 220 l 1
 220 220 l 1
 220 320 l 1
 320 320 l 1
210 320 m 1
 210 220 l 1
 110 220 l 1
 110 320 l 1
 210 320 l 1
100 320 m 1
 100 220 l 1
 0 220 l 1
 0 320 l 1
 100 320 l 1
540 430 m 1
 540 330 l 1
 440 330 l 1
 440 430 l 1
 540 430 l 1
100 430 m 1
 100 330 l 1
 0 330 l 1
 0 430 l 1
 100 430 l 1
430 540 m 1
 430 440 l 1
 330 440 l 1
 330 540 l 1
 430 540 l 1
320 540 m 1
 320 440 l 1
 220 440 l 1
 220 540 l 1
 320 540 l 1
210 540 m 1
 210 440 l 1
 110 440 l 1
 110 540 l 1
 210 540 l 1
EndSplineSet
EndChar

StartChar: f
Encoding: 102 102 71
Width: 660
VWidth: 825
Flags: HW
LayerCount: 2
Fore
SplineSet
210 100 m 1
 210 0 l 1
 110 0 l 1
 110 100 l 1
 210 100 l 1
210 210 m 1
 210 110 l 1
 110 110 l 1
 110 210 l 1
 210 210 l 1
210 320 m 1
 210 220 l 1
 110 220 l 1
 110 320 l 1
 210 320 l 1
320 430 m 1
 320 330 l 1
 220 330 l 1
 220 430 l 1
 320 430 l 1
210 430 m 1
 210 330 l 1
 110 330 l 1
 110 430 l 1
 210 430 l 1
100 430 m 1
 100 330 l 1
 0 330 l 1
 0 430 l 1
 100 430 l 1
210 540 m 1
 210 440 l 1
 110 440 l 1
 110 540 l 1
 210 540 l 1
540 650 m 1
 540 550 l 1
 440 550 l 1
 440 650 l 1
 540 650 l 1
210 650 m 1
 210 550 l 1
 110 550 l 1
 110 650 l 1
 210 650 l 1
430 760 m 1
 430 660 l 1
 330 660 l 1
 330 760 l 1
 430 760 l 1
320 760 m 1
 320 660 l 1
 220 660 l 1
 220 760 l 1
 320 760 l 1
EndSplineSet
EndChar

StartChar: g
Encoding: 103 103 72
Width: 660
VWidth: 825
Flags: HW
LayerCount: 2
Fore
SplineSet
430 100 m 1
 430 0 l 1
 330 0 l 1
 330 100 l 1
 430 100 l 1
320 100 m 1
 320 0 l 1
 220 0 l 1
 220 100 l 1
 320 100 l 1
210 100 m 1
 210 0 l 1
 110 0 l 1
 110 100 l 1
 210 100 l 1
540 210 m 1
 540 110 l 1
 440 110 l 1
 440 210 l 1
 540 210 l 1
540 320 m 1
 540 220 l 1
 440 220 l 1
 440 320 l 1
 540 320 l 1
430 320 m 1
 430 220 l 1
 330 220 l 1
 330 320 l 1
 430 320 l 1
320 320 m 1
 320 220 l 1
 220 220 l 1
 220 320 l 1
 320 320 l 1
210 320 m 1
 210 220 l 1
 110 220 l 1
 110 320 l 1
 210 320 l 1
540 430 m 1
 540 330 l 1
 440 330 l 1
 440 430 l 1
 540 430 l 1
100 430 m 1
 100 330 l 1
 0 330 l 1
 0 430 l 1
 100 430 l 1
540 540 m 1
 540 440 l 1
 440 440 l 1
 440 540 l 1
 540 540 l 1
100 540 m 1
 100 440 l 1
 0 440 l 1
 0 540 l 1
 100 540 l 1
540 650 m 1
 540 550 l 1
 440 550 l 1
 440 650 l 1
 540 650 l 1
430 650 m 1
 430 550 l 1
 330 550 l 1
 330 650 l 1
 430 650 l 1
320 650 m 1
 320 550 l 1
 220 550 l 1
 220 650 l 1
 320 650 l 1
210 650 m 1
 210 550 l 1
 110 550 l 1
 110 650 l 1
 210 650 l 1
EndSplineSet
EndChar

StartChar: h
Encoding: 104 104 73
Width: 660
VWidth: 825
Flags: HW
LayerCount: 2
Fore
SplineSet
540 100 m 1
 540 0 l 1
 440 0 l 1
 440 100 l 1
 540 100 l 1
100 100 m 1
 100 0 l 1
 0 0 l 1
 0 100 l 1
 100 100 l 1
540 210 m 1
 540 110 l 1
 440 110 l 1
 440 210 l 1
 540 210 l 1
100 210 m 1
 100 110 l 1
 0 110 l 1
 0 210 l 1
 100 210 l 1
540 320 m 1
 540 220 l 1
 440 220 l 1
 440 320 l 1
 540 320 l 1
100 320 m 1
 100 220 l 1
 0 220 l 1
 0 320 l 1
 100 320 l 1
540 430 m 1
 540 330 l 1
 440 330 l 1
 440 430 l 1
 540 430 l 1
210 430 m 1
 210 330 l 1
 110 330 l 1
 110 430 l 1
 210 430 l 1
100 430 m 1
 100 330 l 1
 0 330 l 1
 0 430 l 1
 100 430 l 1
430 540 m 1
 430 440 l 1
 330 440 l 1
 330 540 l 1
 430 540 l 1
320 540 m 1
 320 440 l 1
 220 440 l 1
 220 540 l 1
 320 540 l 1
100 540 m 1
 100 440 l 1
 0 440 l 1
 0 540 l 1
 100 540 l 1
100 650 m 1
 100 550 l 1
 0 550 l 1
 0 650 l 1
 100 650 l 1
100 760 m 1
 100 660 l 1
 0 660 l 1
 0 760 l 1
 100 760 l 1
EndSplineSet
EndChar

StartChar: i
Encoding: 105 105 74
Width: 660
VWidth: 825
Flags: HW
LayerCount: 2
Fore
SplineSet
430 100 m 1
 430 0 l 1
 330 0 l 1
 330 100 l 1
 430 100 l 1
320 100 m 1
 320 0 l 1
 220 0 l 1
 220 100 l 1
 320 100 l 1
210 100 m 1
 210 0 l 1
 110 0 l 1
 110 100 l 1
 210 100 l 1
320 210 m 1
 320 110 l 1
 220 110 l 1
 220 210 l 1
 320 210 l 1
320 320 m 1
 320 220 l 1
 220 220 l 1
 220 320 l 1
 320 320 l 1
320 430 m 1
 320 330 l 1
 220 330 l 1
 220 430 l 1
 320 430 l 1
320 540 m 1
 320 440 l 1
 220 440 l 1
 220 540 l 1
 320 540 l 1
210 540 m 1
 210 440 l 1
 110 440 l 1
 110 540 l 1
 210 540 l 1
320 760 m 1
 320 660 l 1
 220 660 l 1
 220 760 l 1
 320 760 l 1
EndSplineSet
EndChar

StartChar: j
Encoding: 106 106 75
Width: 660
VWidth: 825
Flags: HW
LayerCount: 2
Fore
SplineSet
320 100 m 1
 320 0 l 1
 220 0 l 1
 220 100 l 1
 320 100 l 1
210 100 m 1
 210 0 l 1
 110 0 l 1
 110 100 l 1
 210 100 l 1
430 210 m 1
 430 110 l 1
 330 110 l 1
 330 210 l 1
 430 210 l 1
100 210 m 1
 100 110 l 1
 0 110 l 1
 0 210 l 1
 100 210 l 1
430 320 m 1
 430 220 l 1
 330 220 l 1
 330 320 l 1
 430 320 l 1
430 430 m 1
 430 330 l 1
 330 330 l 1
 330 430 l 1
 430 430 l 1
430 540 m 1
 430 440 l 1
 330 440 l 1
 330 540 l 1
 430 540 l 1
320 540 m 1
 320 440 l 1
 220 440 l 1
 220 540 l 1
 320 540 l 1
430 760 m 1
 430 660 l 1
 330 660 l 1
 330 760 l 1
 430 760 l 1
EndSplineSet
EndChar

StartChar: k
Encoding: 107 107 76
Width: 660
VWidth: 825
Flags: HW
LayerCount: 2
Fore
SplineSet
430 100 m 1
 430 0 l 1
 330 0 l 1
 330 100 l 1
 430 100 l 1
100 100 m 1
 100 0 l 1
 0 0 l 1
 0 100 l 1
 100 100 l 1
320 210 m 1
 320 110 l 1
 220 110 l 1
 220 210 l 1
 320 210 l 1
100 210 m 1
 100 110 l 1
 0 110 l 1
 0 210 l 1
 100 210 l 1
210 320 m 1
 210 220 l 1
 110 220 l 1
 110 320 l 1
 210 320 l 1
100 320 m 1
 100 220 l 1
 0 220 l 1
 0 320 l 1
 100 320 l 1
320 430 m 1
 320 330 l 1
 220 330 l 1
 220 430 l 1
 320 430 l 1
100 430 m 1
 100 330 l 1
 0 330 l 1
 0 430 l 1
 100 430 l 1
430 540 m 1
 430 440 l 1
 330 440 l 1
 330 540 l 1
 430 540 l 1
100 540 m 1
 100 440 l 1
 0 440 l 1
 0 540 l 1
 100 540 l 1
100 650 m 1
 100 550 l 1
 0 550 l 1
 0 650 l 1
 100 650 l 1
100 760 m 1
 100 660 l 1
 0 660 l 1
 0 760 l 1
 100 760 l 1
EndSplineSet
EndChar

StartChar: m
Encoding: 109 109 77
Width: 660
VWidth: 825
Flags: HW
LayerCount: 2
Fore
SplineSet
540 100 m 1
 540 0 l 1
 440 0 l 1
 440 100 l 1
 540 100 l 1
100 100 m 1
 100 0 l 1
 0 0 l 1
 0 100 l 1
 100 100 l 1
540 210 m 1
 540 110 l 1
 440 110 l 1
 440 210 l 1
 540 210 l 1
100 210 m 1
 100 110 l 1
 0 110 l 1
 0 210 l 1
 100 210 l 1
540 320 m 1
 540 220 l 1
 440 220 l 1
 440 320 l 1
 540 320 l 1
320 320 m 1
 320 220 l 1
 220 220 l 1
 220 320 l 1
 320 320 l 1
100 320 m 1
 100 220 l 1
 0 220 l 1
 0 320 l 1
 100 320 l 1
540 430 m 1
 540 330 l 1
 440 330 l 1
 440 430 l 1
 540 430 l 1
320 430 m 1
 320 330 l 1
 220 330 l 1
 220 430 l 1
 320 430 l 1
100 430 m 1
 100 330 l 1
 0 330 l 1
 0 430 l 1
 100 430 l 1
430 540 m 1
 430 440 l 1
 330 440 l 1
 330 540 l 1
 430 540 l 1
210 540 m 1
 210 440 l 1
 110 440 l 1
 110 540 l 1
 210 540 l 1
100 540 m 1
 100 440 l 1
 0 440 l 1
 0 540 l 1
 100 540 l 1
EndSplineSet
EndChar

StartChar: n
Encoding: 110 110 78
Width: 660
VWidth: 825
Flags: HW
LayerCount: 2
Fore
SplineSet
540 100 m 1
 540 0 l 1
 440 0 l 1
 440 100 l 1
 540 100 l 1
100 100 m 1
 100 0 l 1
 0 0 l 1
 0 100 l 1
 100 100 l 1
540 210 m 1
 540 110 l 1
 440 110 l 1
 440 210 l 1
 540 210 l 1
100 210 m 1
 100 110 l 1
 0 110 l 1
 0 210 l 1
 100 210 l 1
540 320 m 1
 540 220 l 1
 440 220 l 1
 440 320 l 1
 540 320 l 1
100 320 m 1
 100 220 l 1
 0 220 l 1
 0 320 l 1
 100 320 l 1
540 430 m 1
 540 330 l 1
 440 330 l 1
 440 430 l 1
 540 430 l 1
210 430 m 1
 210 330 l 1
 110 330 l 1
 110 430 l 1
 210 430 l 1
100 430 m 1
 100 330 l 1
 0 330 l 1
 0 430 l 1
 100 430 l 1
430 540 m 1
 430 440 l 1
 330 440 l 1
 330 540 l 1
 430 540 l 1
320 540 m 1
 320 440 l 1
 220 440 l 1
 220 540 l 1
 320 540 l 1
100 540 m 1
 100 440 l 1
 0 440 l 1
 0 540 l 1
 100 540 l 1
EndSplineSet
EndChar

StartChar: o
Encoding: 111 111 79
Width: 660
VWidth: 825
Flags: HW
LayerCount: 2
Fore
SplineSet
430 100 m 5
 430 0 l 5
 330 0 l 5
 330 100 l 5
 430 100 l 5
320 100 m 5
 320 0 l 5
 220 0 l 5
 220 100 l 5
 320 100 l 5
210 100 m 5
 210 0 l 5
 110 0 l 5
 110 100 l 5
 210 100 l 5
540 210 m 5
 540 110 l 5
 440 110 l 5
 440 210 l 5
 540 210 l 5
100 210 m 5
 100 110 l 5
 0 110 l 5
 0 210 l 5
 100 210 l 5
540 320 m 5
 540 220 l 5
 440 220 l 5
 440 320 l 5
 540 320 l 5
100 320 m 5
 100 220 l 5
 0 220 l 5
 0 320 l 5
 100 320 l 5
540 430 m 5
 540 330 l 5
 440 330 l 5
 440 430 l 5
 540 430 l 5
100 430 m 5
 100 330 l 5
 0 330 l 5
 0 430 l 5
 100 430 l 5
430 540 m 5
 430 440 l 5
 330 440 l 5
 330 540 l 5
 430 540 l 5
320 540 m 5
 320 440 l 5
 220 440 l 5
 220 540 l 5
 320 540 l 5
210 540 m 5
 210 440 l 5
 110 440 l 5
 110 540 l 5
 210 540 l 5
EndSplineSet
EndChar

StartChar: p
Encoding: 112 112 80
Width: 660
VWidth: 825
Flags: HW
LayerCount: 2
Fore
SplineSet
100 100 m 1
 100 0 l 1
 0 0 l 1
 0 100 l 1
 100 100 l 1
100 210 m 1
 100 110 l 1
 0 110 l 1
 0 210 l 1
 100 210 l 1
430 320 m 1
 430 220 l 1
 330 220 l 1
 330 320 l 1
 430 320 l 1
320 320 m 1
 320 220 l 1
 220 220 l 1
 220 320 l 1
 320 320 l 1
210 320 m 1
 210 220 l 1
 110 220 l 1
 110 320 l 1
 210 320 l 1
100 320 m 1
 100 220 l 1
 0 220 l 1
 0 320 l 1
 100 320 l 1
540 430 m 1
 540 330 l 1
 440 330 l 1
 440 430 l 1
 540 430 l 1
100 430 m 1
 100 330 l 1
 0 330 l 1
 0 430 l 1
 100 430 l 1
430 540 m 1
 430 440 l 1
 330 440 l 1
 330 540 l 1
 430 540 l 1
320 540 m 1
 320 440 l 1
 220 440 l 1
 220 540 l 1
 320 540 l 1
210 540 m 1
 210 440 l 1
 110 440 l 1
 110 540 l 1
 210 540 l 1
100 540 m 1
 100 440 l 1
 0 440 l 1
 0 540 l 1
 100 540 l 1
EndSplineSet
EndChar

StartChar: q
Encoding: 113 113 81
Width: 660
VWidth: 825
Flags: HW
LayerCount: 2
Fore
SplineSet
540 100 m 1
 540 0 l 1
 440 0 l 1
 440 100 l 1
 540 100 l 1
540 210 m 1
 540 110 l 1
 440 110 l 1
 440 210 l 1
 540 210 l 1
540 320 m 1
 540 220 l 1
 440 220 l 1
 440 320 l 1
 540 320 l 1
430 320 m 1
 430 220 l 1
 330 220 l 1
 330 320 l 1
 430 320 l 1
320 320 m 1
 320 220 l 1
 220 220 l 1
 220 320 l 1
 320 320 l 1
210 320 m 1
 210 220 l 1
 110 220 l 1
 110 320 l 1
 210 320 l 1
540 430 m 1
 540 330 l 1
 440 330 l 1
 440 430 l 1
 540 430 l 1
430 430 m 1
 430 330 l 1
 330 330 l 1
 330 430 l 1
 430 430 l 1
100 430 m 1
 100 330 l 1
 0 330 l 1
 0 430 l 1
 100 430 l 1
540 540 m 1
 540 440 l 1
 440 440 l 1
 440 540 l 1
 540 540 l 1
320 540 m 1
 320 440 l 1
 220 440 l 1
 220 540 l 1
 320 540 l 1
210 540 m 1
 210 440 l 1
 110 440 l 1
 110 540 l 1
 210 540 l 1
EndSplineSet
EndChar

StartChar: r
Encoding: 114 114 82
Width: 660
VWidth: 825
Flags: HW
LayerCount: 2
Fore
SplineSet
100 100 m 1
 100 0 l 1
 0 0 l 1
 0 100 l 1
 100 100 l 1
100 210 m 1
 100 110 l 1
 0 110 l 1
 0 210 l 1
 100 210 l 1
100 320 m 1
 100 220 l 1
 0 220 l 1
 0 320 l 1
 100 320 l 1
540 430 m 1
 540 330 l 1
 440 330 l 1
 440 430 l 1
 540 430 l 1
210 430 m 1
 210 330 l 1
 110 330 l 1
 110 430 l 1
 210 430 l 1
100 430 m 1
 100 330 l 1
 0 330 l 1
 0 430 l 1
 100 430 l 1
430 540 m 1
 430 440 l 1
 330 440 l 1
 330 540 l 1
 430 540 l 1
320 540 m 1
 320 440 l 1
 220 440 l 1
 220 540 l 1
 320 540 l 1
100 540 m 1
 100 440 l 1
 0 440 l 1
 0 540 l 1
 100 540 l 1
EndSplineSet
EndChar

StartChar: s
Encoding: 115 115 83
Width: 660
VWidth: 825
Flags: HW
LayerCount: 2
Fore
SplineSet
430 100 m 1
 430 0 l 1
 330 0 l 1
 330 100 l 1
 430 100 l 1
320 100 m 1
 320 0 l 1
 220 0 l 1
 220 100 l 1
 320 100 l 1
210 100 m 1
 210 0 l 1
 110 0 l 1
 110 100 l 1
 210 100 l 1
100 100 m 1
 100 0 l 1
 0 0 l 1
 0 100 l 1
 100 100 l 1
540 210 m 1
 540 110 l 1
 440 110 l 1
 440 210 l 1
 540 210 l 1
430 320 m 1
 430 220 l 1
 330 220 l 1
 330 320 l 1
 430 320 l 1
320 320 m 1
 320 220 l 1
 220 220 l 1
 220 320 l 1
 320 320 l 1
210 320 m 1
 210 220 l 1
 110 220 l 1
 110 320 l 1
 210 320 l 1
100 430 m 1
 100 330 l 1
 0 330 l 1
 0 430 l 1
 100 430 l 1
430 540 m 1
 430 440 l 1
 330 440 l 1
 330 540 l 1
 430 540 l 1
320 540 m 1
 320 440 l 1
 220 440 l 1
 220 540 l 1
 320 540 l 1
210 540 m 1
 210 440 l 1
 110 440 l 1
 110 540 l 1
 210 540 l 1
EndSplineSet
EndChar

StartChar: t
Encoding: 116 116 84
Width: 660
VWidth: 825
Flags: HW
LayerCount: 2
Fore
SplineSet
430 100 m 1
 430 0 l 1
 330 0 l 1
 330 100 l 1
 430 100 l 1
320 100 m 1
 320 0 l 1
 220 0 l 1
 220 100 l 1
 320 100 l 1
540 210 m 1
 540 110 l 1
 440 110 l 1
 440 210 l 1
 540 210 l 1
210 210 m 1
 210 110 l 1
 110 110 l 1
 110 210 l 1
 210 210 l 1
210 320 m 1
 210 220 l 1
 110 220 l 1
 110 320 l 1
 210 320 l 1
210 430 m 1
 210 330 l 1
 110 330 l 1
 110 430 l 1
 210 430 l 1
320 540 m 1
 320 440 l 1
 220 440 l 1
 220 540 l 1
 320 540 l 1
210 540 m 1
 210 440 l 1
 110 440 l 1
 110 540 l 1
 210 540 l 1
100 540 m 1
 100 440 l 1
 0 440 l 1
 0 540 l 1
 100 540 l 1
210 650 m 1
 210 550 l 1
 110 550 l 1
 110 650 l 1
 210 650 l 1
210 760 m 1
 210 660 l 1
 110 660 l 1
 110 760 l 1
 210 760 l 1
EndSplineSet
EndChar

StartChar: u
Encoding: 117 117 85
Width: 660
VWidth: 825
Flags: HW
LayerCount: 2
Fore
SplineSet
540 100 m 1
 540 0 l 1
 440 0 l 1
 440 100 l 1
 540 100 l 1
320 100 m 1
 320 0 l 1
 220 0 l 1
 220 100 l 1
 320 100 l 1
210 100 m 1
 210 0 l 1
 110 0 l 1
 110 100 l 1
 210 100 l 1
540 210 m 1
 540 110 l 1
 440 110 l 1
 440 210 l 1
 540 210 l 1
430 210 m 1
 430 110 l 1
 330 110 l 1
 330 210 l 1
 430 210 l 1
100 210 m 1
 100 110 l 1
 0 110 l 1
 0 210 l 1
 100 210 l 1
540 320 m 1
 540 220 l 1
 440 220 l 1
 440 320 l 1
 540 320 l 1
100 320 m 1
 100 220 l 1
 0 220 l 1
 0 320 l 1
 100 320 l 1
540 430 m 1
 540 330 l 1
 440 330 l 1
 440 430 l 1
 540 430 l 1
100 430 m 1
 100 330 l 1
 0 330 l 1
 0 430 l 1
 100 430 l 1
540 540 m 1
 540 440 l 1
 440 440 l 1
 440 540 l 1
 540 540 l 1
100 540 m 1
 100 440 l 1
 0 440 l 1
 0 540 l 1
 100 540 l 1
EndSplineSet
EndChar

StartChar: v
Encoding: 118 118 86
Width: 660
VWidth: 825
Flags: HW
LayerCount: 2
Fore
SplineSet
320 100 m 1
 320 0 l 1
 220 0 l 1
 220 100 l 1
 320 100 l 1
430 210 m 1
 430 110 l 1
 330 110 l 1
 330 210 l 1
 430 210 l 1
210 210 m 1
 210 110 l 1
 110 110 l 1
 110 210 l 1
 210 210 l 1
540 320 m 1
 540 220 l 1
 440 220 l 1
 440 320 l 1
 540 320 l 1
100 320 m 1
 100 220 l 1
 0 220 l 1
 0 320 l 1
 100 320 l 1
540 430 m 1
 540 330 l 1
 440 330 l 1
 440 430 l 1
 540 430 l 1
100 430 m 1
 100 330 l 1
 0 330 l 1
 0 430 l 1
 100 430 l 1
540 540 m 1
 540 440 l 1
 440 440 l 1
 440 540 l 1
 540 540 l 1
100 540 m 1
 100 440 l 1
 0 440 l 1
 0 540 l 1
 100 540 l 1
EndSplineSet
EndChar

StartChar: w
Encoding: 119 119 87
Width: 660
VWidth: 825
Flags: HW
LayerCount: 2
Fore
SplineSet
430 100 m 1
 430 0 l 1
 330 0 l 1
 330 100 l 1
 430 100 l 1
210 100 m 1
 210 0 l 1
 110 0 l 1
 110 100 l 1
 210 100 l 1
540 210 m 1
 540 110 l 1
 440 110 l 1
 440 210 l 1
 540 210 l 1
320 210 m 1
 320 110 l 1
 220 110 l 1
 220 210 l 1
 320 210 l 1
100 210 m 1
 100 110 l 1
 0 110 l 1
 0 210 l 1
 100 210 l 1
540 320 m 1
 540 220 l 1
 440 220 l 1
 440 320 l 1
 540 320 l 1
320 320 m 1
 320 220 l 1
 220 220 l 1
 220 320 l 1
 320 320 l 1
100 320 m 1
 100 220 l 1
 0 220 l 1
 0 320 l 1
 100 320 l 1
540 430 m 1
 540 330 l 1
 440 330 l 1
 440 430 l 1
 540 430 l 1
100 430 m 1
 100 330 l 1
 0 330 l 1
 0 430 l 1
 100 430 l 1
540 540 m 1
 540 440 l 1
 440 440 l 1
 440 540 l 1
 540 540 l 1
100 540 m 1
 100 440 l 1
 0 440 l 1
 0 540 l 1
 100 540 l 1
EndSplineSet
EndChar

StartChar: x
Encoding: 120 120 88
Width: 660
VWidth: 825
Flags: HW
LayerCount: 2
Fore
SplineSet
540 100 m 1
 540 0 l 1
 440 0 l 1
 440 100 l 1
 540 100 l 1
100 100 m 1
 100 0 l 1
 0 0 l 1
 0 100 l 1
 100 100 l 1
430 210 m 1
 430 110 l 1
 330 110 l 1
 330 210 l 1
 430 210 l 1
210 210 m 1
 210 110 l 1
 110 110 l 1
 110 210 l 1
 210 210 l 1
320 320 m 1
 320 220 l 1
 220 220 l 1
 220 320 l 1
 320 320 l 1
430 430 m 1
 430 330 l 1
 330 330 l 1
 330 430 l 1
 430 430 l 1
210 430 m 1
 210 330 l 1
 110 330 l 1
 110 430 l 1
 210 430 l 1
540 540 m 1
 540 440 l 1
 440 440 l 1
 440 540 l 1
 540 540 l 1
100 540 m 1
 100 440 l 1
 0 440 l 1
 0 540 l 1
 100 540 l 1
EndSplineSet
EndChar

StartChar: y
Encoding: 121 121 89
Width: 660
VWidth: 825
Flags: HW
LayerCount: 2
Fore
SplineSet
430 100 m 1
 430 0 l 1
 330 0 l 1
 330 100 l 1
 430 100 l 1
320 100 m 1
 320 0 l 1
 220 0 l 1
 220 100 l 1
 320 100 l 1
210 100 m 1
 210 0 l 1
 110 0 l 1
 110 100 l 1
 210 100 l 1
540 210 m 1
 540 110 l 1
 440 110 l 1
 440 210 l 1
 540 210 l 1
540 320 m 1
 540 220 l 1
 440 220 l 1
 440 320 l 1
 540 320 l 1
430 320 m 1
 430 220 l 1
 330 220 l 1
 330 320 l 1
 430 320 l 1
320 320 m 1
 320 220 l 1
 220 220 l 1
 220 320 l 1
 320 320 l 1
210 320 m 1
 210 220 l 1
 110 220 l 1
 110 320 l 1
 210 320 l 1
540 430 m 1
 540 330 l 1
 440 330 l 1
 440 430 l 1
 540 430 l 1
100 430 m 1
 100 330 l 1
 0 330 l 1
 0 430 l 1
 100 430 l 1
540 540 m 1
 540 440 l 1
 440 440 l 1
 440 540 l 1
 540 540 l 1
100 540 m 1
 100 440 l 1
 0 440 l 1
 0 540 l 1
 100 540 l 1
EndSplineSet
EndChar

StartChar: z
Encoding: 122 122 90
Width: 660
VWidth: 825
Flags: HW
LayerCount: 2
Fore
SplineSet
540 100 m 1
 540 0 l 1
 440 0 l 1
 440 100 l 1
 540 100 l 1
430 100 m 1
 430 0 l 1
 330 0 l 1
 330 100 l 1
 430 100 l 1
320 100 m 1
 320 0 l 1
 220 0 l 1
 220 100 l 1
 320 100 l 1
210 100 m 1
 210 0 l 1
 110 0 l 1
 110 100 l 1
 210 100 l 1
100 100 m 1
 100 0 l 1
 0 0 l 1
 0 100 l 1
 100 100 l 1
210 210 m 1
 210 110 l 1
 110 110 l 1
 110 210 l 1
 210 210 l 1
320 320 m 1
 320 220 l 1
 220 220 l 1
 220 320 l 1
 320 320 l 1
430 430 m 1
 430 330 l 1
 330 330 l 1
 330 430 l 1
 430 430 l 1
540 540 m 1
 540 440 l 1
 440 440 l 1
 440 540 l 1
 540 540 l 1
430 540 m 1
 430 440 l 1
 330 440 l 1
 330 540 l 1
 430 540 l 1
320 540 m 1
 320 440 l 1
 220 440 l 1
 220 540 l 1
 320 540 l 1
210 540 m 1
 210 440 l 1
 110 440 l 1
 110 540 l 1
 210 540 l 1
100 540 m 1
 100 440 l 1
 0 440 l 1
 0 540 l 1
 100 540 l 1
EndSplineSet
EndChar

StartChar: braceleft
Encoding: 123 123 91
Width: 660
VWidth: 825
Flags: HW
LayerCount: 2
Fore
SplineSet
430 100 m 1
 430 0 l 1
 330 0 l 1
 330 100 l 1
 430 100 l 1
320 210 m 1
 320 110 l 1
 220 110 l 1
 220 210 l 1
 320 210 l 1
320 320 m 1
 320 220 l 1
 220 220 l 1
 220 320 l 1
 320 320 l 1
210 430 m 1
 210 330 l 1
 110 330 l 1
 110 430 l 1
 210 430 l 1
320 540 m 1
 320 440 l 1
 220 440 l 1
 220 540 l 1
 320 540 l 1
320 650 m 1
 320 550 l 1
 220 550 l 1
 220 650 l 1
 320 650 l 1
430 760 m 1
 430 660 l 1
 330 660 l 1
 330 760 l 1
 430 760 l 1
EndSplineSet
EndChar

StartChar: bar
Encoding: 124 124 92
Width: 660
VWidth: 825
Flags: HW
LayerCount: 2
Fore
SplineSet
320 100 m 1
 320 0 l 1
 220 0 l 1
 220 100 l 1
 320 100 l 1
320 210 m 1
 320 110 l 1
 220 110 l 1
 220 210 l 1
 320 210 l 1
320 320 m 1
 320 220 l 1
 220 220 l 1
 220 320 l 1
 320 320 l 1
320 430 m 1
 320 330 l 1
 220 330 l 1
 220 430 l 1
 320 430 l 1
320 540 m 1
 320 440 l 1
 220 440 l 1
 220 540 l 1
 320 540 l 1
320 650 m 1
 320 550 l 1
 220 550 l 1
 220 650 l 1
 320 650 l 1
320 760 m 1
 320 660 l 1
 220 660 l 1
 220 760 l 1
 320 760 l 1
EndSplineSet
EndChar

StartChar: braceright
Encoding: 125 125 93
Width: 660
VWidth: 825
Flags: HW
LayerCount: 2
Fore
SplineSet
210 100 m 1
 210 0 l 1
 110 0 l 1
 110 100 l 1
 210 100 l 1
320 210 m 1
 320 110 l 1
 220 110 l 1
 220 210 l 1
 320 210 l 1
320 320 m 1
 320 220 l 1
 220 220 l 1
 220 320 l 1
 320 320 l 1
430 430 m 1
 430 330 l 1
 330 330 l 1
 330 430 l 1
 430 430 l 1
320 540 m 1
 320 440 l 1
 220 440 l 1
 220 540 l 1
 320 540 l 1
320 650 m 1
 320 550 l 1
 220 550 l 1
 220 650 l 1
 320 650 l 1
210 760 m 1
 210 660 l 1
 110 660 l 1
 110 760 l 1
 210 760 l 1
EndSplineSet
EndChar

StartChar: cent
Encoding: 162 162 94
Width: 660
VWidth: 825
Flags: HW
LayerCount: 2
Fore
SplineSet
320 100 m 1
 320 0 l 1
 220 0 l 1
 220 100 l 1
 320 100 l 1
430 210 m 1
 430 110 l 1
 330 110 l 1
 330 210 l 1
 430 210 l 1
320 210 m 1
 320 110 l 1
 220 110 l 1
 220 210 l 1
 320 210 l 1
210 210 m 1
 210 110 l 1
 110 110 l 1
 110 210 l 1
 210 210 l 1
540 320 m 1
 540 220 l 1
 440 220 l 1
 440 320 l 1
 540 320 l 1
320 320 m 1
 320 220 l 1
 220 220 l 1
 220 320 l 1
 320 320 l 1
100 320 m 1
 100 220 l 1
 0 220 l 1
 0 320 l 1
 100 320 l 1
320 430 m 1
 320 330 l 1
 220 330 l 1
 220 430 l 1
 320 430 l 1
100 430 m 1
 100 330 l 1
 0 330 l 1
 0 430 l 1
 100 430 l 1
430 540 m 1
 430 440 l 1
 330 440 l 1
 330 540 l 1
 430 540 l 1
320 540 m 1
 320 440 l 1
 220 440 l 1
 220 540 l 1
 320 540 l 1
210 540 m 1
 210 440 l 1
 110 440 l 1
 110 540 l 1
 210 540 l 1
320 650 m 1
 320 550 l 1
 220 550 l 1
 220 650 l 1
 320 650 l 1
EndSplineSet
EndChar

StartChar: yen
Encoding: 165 165 95
Width: 660
VWidth: 825
Flags: HW
LayerCount: 2
Fore
SplineSet
320 100 m 1
 320 0 l 1
 220 0 l 1
 220 100 l 1
 320 100 l 1
320 210 m 1
 320 110 l 1
 220 110 l 1
 220 210 l 1
 320 210 l 1
540 320 m 1
 540 220 l 1
 440 220 l 1
 440 320 l 1
 540 320 l 1
430 320 m 1
 430 220 l 1
 330 220 l 1
 330 320 l 1
 430 320 l 1
320 320 m 1
 320 220 l 1
 220 220 l 1
 220 320 l 1
 320 320 l 1
210 320 m 1
 210 220 l 1
 110 220 l 1
 110 320 l 1
 210 320 l 1
100 320 m 1
 100 220 l 1
 0 220 l 1
 0 320 l 1
 100 320 l 1
320 430 m 1
 320 330 l 1
 220 330 l 1
 220 430 l 1
 320 430 l 1
540 540 m 1
 540 440 l 1
 440 440 l 1
 440 540 l 1
 540 540 l 1
430 540 m 1
 430 440 l 1
 330 440 l 1
 330 540 l 1
 430 540 l 1
320 540 m 1
 320 440 l 1
 220 440 l 1
 220 540 l 1
 320 540 l 1
210 540 m 1
 210 440 l 1
 110 440 l 1
 110 540 l 1
 210 540 l 1
100 540 m 1
 100 440 l 1
 0 440 l 1
 0 540 l 1
 100 540 l 1
430 650 m 1
 430 550 l 1
 330 550 l 1
 330 650 l 1
 430 650 l 1
210 650 m 1
 210 550 l 1
 110 550 l 1
 110 650 l 1
 210 650 l 1
540 760 m 1
 540 660 l 1
 440 660 l 1
 440 760 l 1
 540 760 l 1
100 760 m 1
 100 660 l 1
 0 660 l 1
 0 760 l 1
 100 760 l 1
EndSplineSet
EndChar

StartChar: divide
Encoding: 247 247 96
Width: 660
VWidth: 825
Flags: HW
LayerCount: 2
Fore
SplineSet
320 210 m 1
 320 110 l 1
 220 110 l 1
 220 210 l 1
 320 210 l 1
540 430 m 1
 540 330 l 1
 440 330 l 1
 440 430 l 1
 540 430 l 1
430 430 m 1
 430 330 l 1
 330 330 l 1
 330 430 l 1
 430 430 l 1
320 430 m 1
 320 330 l 1
 220 330 l 1
 220 430 l 1
 320 430 l 1
210 430 m 1
 210 330 l 1
 110 330 l 1
 110 430 l 1
 210 430 l 1
100 430 m 1
 100 330 l 1
 0 330 l 1
 0 430 l 1
 100 430 l 1
320 650 m 1
 320 550 l 1
 220 550 l 1
 220 650 l 1
 320 650 l 1
EndSplineSet
EndChar

StartChar: adieresis
Encoding: 228 228 97
Width: 660
VWidth: 825
Flags: HW
LayerCount: 2
Back
SplineSet
540 100 m 5
 540 0 l 5
 440 0 l 5
 440 100 l 5
 540 100 l 5
430 100 m 5
 430 0 l 5
 330 0 l 5
 330 100 l 5
 430 100 l 5
320 100 m 5
 320 0 l 5
 220 0 l 5
 220 100 l 5
 320 100 l 5
210 100 m 5
 210 0 l 5
 110 0 l 5
 110 100 l 5
 210 100 l 5
540 210 m 5
 540 110 l 5
 440 110 l 5
 440 210 l 5
 540 210 l 5
100 210 m 5
 100 110 l 5
 0 110 l 5
 0 210 l 5
 100 210 l 5
540 320 m 5
 540 220 l 5
 440 220 l 5
 440 320 l 5
 540 320 l 5
430 320 m 5
 430 220 l 5
 330 220 l 5
 330 320 l 5
 430 320 l 5
320 320 m 5
 320 220 l 5
 220 220 l 5
 220 320 l 5
 320 320 l 5
210 320 m 5
 210 220 l 5
 110 220 l 5
 110 320 l 5
 210 320 l 5
540 430 m 5
 540 330 l 5
 440 330 l 5
 440 430 l 5
 540 430 l 5
430 540 m 5
 430 440 l 5
 330 440 l 5
 330 540 l 5
 430 540 l 5
320 540 m 5
 320 440 l 5
 220 440 l 5
 220 540 l 5
 320 540 l 5
210 540 m 5
 210 440 l 5
 110 440 l 5
 110 540 l 5
 210 540 l 5
430 760 m 5
 430 660 l 5
 330 660 l 5
 330 760 l 5
 430 760 l 5
210 760 m 5
 210 660 l 5
 110 660 l 5
 110 760 l 5
 210 760 l 5
EndSplineSet
Fore
SplineSet
430 760 m 1
 430 660 l 1
 330 660 l 1
 330 760 l 1
 430 760 l 1
210 760 m 1
 210 660 l 1
 110 660 l 1
 110 760 l 1
 210 760 l 1
540 100 m 1
 540 0 l 1
 440 0 l 1
 440 100 l 1
 540 100 l 1
430 100 m 1
 430 0 l 1
 330 0 l 1
 330 100 l 1
 430 100 l 1
320 100 m 1
 320 0 l 1
 220 0 l 1
 220 100 l 1
 320 100 l 1
210 100 m 1
 210 0 l 1
 110 0 l 1
 110 100 l 1
 210 100 l 1
540 210 m 1
 540 110 l 1
 440 110 l 1
 440 210 l 1
 540 210 l 1
100 210 m 1
 100 110 l 1
 0 110 l 1
 0 210 l 1
 100 210 l 1
540 320 m 1
 540 220 l 1
 440 220 l 1
 440 320 l 1
 540 320 l 1
430 320 m 1
 430 220 l 1
 330 220 l 1
 330 320 l 1
 430 320 l 1
320 320 m 1
 320 220 l 1
 220 220 l 1
 220 320 l 1
 320 320 l 1
210 320 m 1
 210 220 l 1
 110 220 l 1
 110 320 l 1
 210 320 l 1
540 430 m 1
 540 330 l 1
 440 330 l 1
 440 430 l 1
 540 430 l 1
430 540 m 1
 430 440 l 1
 330 440 l 1
 330 540 l 1
 430 540 l 1
320 540 m 1
 320 440 l 1
 220 440 l 1
 220 540 l 1
 320 540 l 1
210 540 m 1
 210 440 l 1
 110 440 l 1
 110 540 l 1
 210 540 l 1
EndSplineSet
EndChar

StartChar: odieresis
Encoding: 246 246 98
Width: 660
VWidth: 825
Flags: HW
LayerCount: 2
Fore
SplineSet
430 100 m 1
 430 0 l 1
 330 0 l 1
 330 100 l 1
 430 100 l 1
320 100 m 1
 320 0 l 1
 220 0 l 1
 220 100 l 1
 320 100 l 1
210 100 m 1
 210 0 l 1
 110 0 l 1
 110 100 l 1
 210 100 l 1
540 210 m 1
 540 110 l 1
 440 110 l 1
 440 210 l 1
 540 210 l 1
100 210 m 1
 100 110 l 1
 0 110 l 1
 0 210 l 1
 100 210 l 1
540 320 m 1
 540 220 l 1
 440 220 l 1
 440 320 l 1
 540 320 l 1
100 320 m 1
 100 220 l 1
 0 220 l 1
 0 320 l 1
 100 320 l 1
540 430 m 1
 540 330 l 1
 440 330 l 1
 440 430 l 1
 540 430 l 1
100 430 m 1
 100 330 l 1
 0 330 l 1
 0 430 l 1
 100 430 l 1
430 540 m 1
 430 440 l 1
 330 440 l 1
 330 540 l 1
 430 540 l 1
320 540 m 1
 320 440 l 1
 220 440 l 1
 220 540 l 1
 320 540 l 1
210 540 m 1
 210 440 l 1
 110 440 l 1
 110 540 l 1
 210 540 l 1
430 760 m 1
 430 660 l 1
 330 660 l 1
 330 760 l 1
 430 760 l 1
210 760 m 1
 210 660 l 1
 110 660 l 1
 110 760 l 1
 210 760 l 1
EndSplineSet
EndChar

StartChar: udieresis
Encoding: 252 252 99
Width: 660
VWidth: 825
Flags: HW
LayerCount: 2
Fore
SplineSet
540 100 m 1
 540 0 l 1
 440 0 l 1
 440 100 l 1
 540 100 l 1
320 100 m 1
 320 0 l 1
 220 0 l 1
 220 100 l 1
 320 100 l 1
210 100 m 1
 210 0 l 1
 110 0 l 1
 110 100 l 1
 210 100 l 1
540 210 m 1
 540 110 l 1
 440 110 l 1
 440 210 l 1
 540 210 l 1
430 210 m 1
 430 110 l 1
 330 110 l 1
 330 210 l 1
 430 210 l 1
100 210 m 1
 100 110 l 1
 0 110 l 1
 0 210 l 1
 100 210 l 1
540 320 m 1
 540 220 l 1
 440 220 l 1
 440 320 l 1
 540 320 l 1
100 320 m 1
 100 220 l 1
 0 220 l 1
 0 320 l 1
 100 320 l 1
540 430 m 1
 540 330 l 1
 440 330 l 1
 440 430 l 1
 540 430 l 1
100 430 m 1
 100 330 l 1
 0 330 l 1
 0 430 l 1
 100 430 l 1
540 540 m 1
 540 440 l 1
 440 440 l 1
 440 540 l 1
 540 540 l 1
100 540 m 1
 100 440 l 1
 0 440 l 1
 0 540 l 1
 100 540 l 1
430 760 m 1
 430 660 l 1
 330 660 l 1
 330 760 l 1
 430 760 l 1
210 760 m 1
 210 660 l 1
 110 660 l 1
 110 760 l 1
 210 760 l 1
EndSplineSet
EndChar

StartChar: block
Encoding: 9608 9608 100
Width: 660
VWidth: 825
Flags: HW
LayerCount: 2
Fore
SplineSet
540 100 m 1
 540 0 l 1
 440 0 l 1
 440 100 l 1
 540 100 l 1
430 100 m 1
 430 0 l 1
 330 0 l 1
 330 100 l 1
 430 100 l 1
320 100 m 1
 320 0 l 1
 220 0 l 1
 220 100 l 1
 320 100 l 1
210 100 m 1
 210 0 l 1
 110 0 l 1
 110 100 l 1
 210 100 l 1
100 100 m 1
 100 0 l 1
 0 0 l 1
 0 100 l 1
 100 100 l 1
540 210 m 1
 540 110 l 1
 440 110 l 1
 440 210 l 1
 540 210 l 1
430 210 m 1
 430 110 l 1
 330 110 l 1
 330 210 l 1
 430 210 l 1
320 210 m 1
 320 110 l 1
 220 110 l 1
 220 210 l 1
 320 210 l 1
210 210 m 1
 210 110 l 1
 110 110 l 1
 110 210 l 1
 210 210 l 1
100 210 m 1
 100 110 l 1
 0 110 l 1
 0 210 l 1
 100 210 l 1
540 320 m 1
 540 220 l 1
 440 220 l 1
 440 320 l 1
 540 320 l 1
430 320 m 1
 430 220 l 1
 330 220 l 1
 330 320 l 1
 430 320 l 1
320 320 m 1
 320 220 l 1
 220 220 l 1
 220 320 l 1
 320 320 l 1
210 320 m 1
 210 220 l 1
 110 220 l 1
 110 320 l 1
 210 320 l 1
100 320 m 1
 100 220 l 1
 0 220 l 1
 0 320 l 1
 100 320 l 1
540 430 m 1
 540 330 l 1
 440 330 l 1
 440 430 l 1
 540 430 l 1
430 430 m 1
 430 330 l 1
 330 330 l 1
 330 430 l 1
 430 430 l 1
320 430 m 1
 320 330 l 1
 220 330 l 1
 220 430 l 1
 320 430 l 1
210 430 m 1
 210 330 l 1
 110 330 l 1
 110 430 l 1
 210 430 l 1
100 430 m 1
 100 330 l 1
 0 330 l 1
 0 430 l 1
 100 430 l 1
540 540 m 1
 540 440 l 1
 440 440 l 1
 440 540 l 1
 540 540 l 1
430 540 m 1
 430 440 l 1
 330 440 l 1
 330 540 l 1
 430 540 l 1
320 540 m 1
 320 440 l 1
 220 440 l 1
 220 540 l 1
 320 540 l 1
210 540 m 1
 210 440 l 1
 110 440 l 1
 110 540 l 1
 210 540 l 1
100 540 m 1
 100 440 l 1
 0 440 l 1
 0 540 l 1
 100 540 l 1
540 650 m 1
 540 550 l 1
 440 550 l 1
 440 650 l 1
 540 650 l 1
430 650 m 1
 430 550 l 1
 330 550 l 1
 330 650 l 1
 430 650 l 1
320 650 m 1
 320 550 l 1
 220 550 l 1
 220 650 l 1
 320 650 l 1
210 650 m 1
 210 550 l 1
 110 550 l 1
 110 650 l 1
 210 650 l 1
100 650 m 1
 100 550 l 1
 0 550 l 1
 0 650 l 1
 100 650 l 1
540 760 m 1
 540 660 l 1
 440 660 l 1
 440 760 l 1
 540 760 l 1
430 760 m 1
 430 660 l 1
 330 660 l 1
 330 760 l 1
 430 760 l 1
320 760 m 1
 320 660 l 1
 220 660 l 1
 220 760 l 1
 320 760 l 1
210 760 m 1
 210 660 l 1
 110 660 l 1
 110 760 l 1
 210 760 l 1
100 760 m 1
 100 660 l 1
 0 660 l 1
 0 760 l 1
 100 760 l 1
EndSplineSet
EndChar

StartChar: backslash
Encoding: 92 92 101
Width: 660
VWidth: 825
Flags: HW
LayerCount: 2
Fore
SplineSet
540 210 m 1
 540 110 l 1
 440 110 l 1
 440 210 l 1
 540 210 l 1
430 320 m 1
 430 220 l 1
 330 220 l 1
 330 320 l 1
 430 320 l 1
320 430 m 1
 320 330 l 1
 220 330 l 1
 220 430 l 1
 320 430 l 1
210 540 m 1
 210 440 l 1
 110 440 l 1
 110 540 l 1
 210 540 l 1
100 650 m 1
 100 550 l 1
 0 550 l 1
 0 650 l 1
 100 650 l 1
EndSplineSet
EndChar

StartChar: sterling
Encoding: 163 163 102
Width: 660
VWidth: 825
Flags: HW
LayerCount: 2
Fore
SplineSet
430 100 m 1
 430 0 l 1
 330 0 l 1
 330 100 l 1
 430 100 l 1
320 100 m 1
 320 0 l 1
 220 0 l 1
 220 100 l 1
 320 100 l 1
100 100 m 1
 100 0 l 1
 0 0 l 1
 0 100 l 1
 100 100 l 1
540 210 m 1
 540 110 l 1
 440 110 l 1
 440 210 l 1
 540 210 l 1
210 210 m 1
 210 110 l 1
 110 110 l 1
 110 210 l 1
 210 210 l 1
210 320 m 1
 210 220 l 1
 110 220 l 1
 110 320 l 1
 210 320 l 1
320 430 m 1
 320 330 l 1
 220 330 l 1
 220 430 l 1
 320 430 l 1
210 430 m 1
 210 330 l 1
 110 330 l 1
 110 430 l 1
 210 430 l 1
100 430 m 1
 100 330 l 1
 0 330 l 1
 0 430 l 1
 100 430 l 1
210 540 m 1
 210 440 l 1
 110 440 l 1
 110 540 l 1
 210 540 l 1
210 650 m 1
 210 550 l 1
 110 550 l 1
 110 650 l 1
 210 650 l 1
430 760 m 1
 430 660 l 1
 330 660 l 1
 330 760 l 1
 430 760 l 1
320 760 m 1
 320 660 l 1
 220 660 l 1
 220 760 l 1
 320 760 l 1
EndSplineSet
EndChar

StartChar: currency
Encoding: 164 164 103
Width: 660
VWidth: 825
Flags: HW
LayerCount: 2
Fore
SplineSet
540 210 m 1
 540 110 l 1
 440 110 l 1
 440 210 l 1
 540 210 l 1
100 210 m 1
 100 110 l 1
 0 110 l 1
 0 210 l 1
 100 210 l 1
430 320 m 1
 430 220 l 1
 330 220 l 1
 330 320 l 1
 430 320 l 1
320 320 m 1
 320 220 l 1
 220 220 l 1
 220 320 l 1
 320 320 l 1
210 320 m 1
 210 220 l 1
 110 220 l 1
 110 320 l 1
 210 320 l 1
430 430 m 1
 430 330 l 1
 330 330 l 1
 330 430 l 1
 430 430 l 1
210 430 m 1
 210 330 l 1
 110 330 l 1
 110 430 l 1
 210 430 l 1
430 540 m 1
 430 440 l 1
 330 440 l 1
 330 540 l 1
 430 540 l 1
320 540 m 1
 320 440 l 1
 220 440 l 1
 220 540 l 1
 320 540 l 1
210 540 m 1
 210 440 l 1
 110 440 l 1
 110 540 l 1
 210 540 l 1
540 650 m 1
 540 550 l 1
 440 550 l 1
 440 650 l 1
 540 650 l 1
100 650 m 1
 100 550 l 1
 0 550 l 1
 0 650 l 1
 100 650 l 1
EndSplineSet
EndChar

StartChar: brokenbar
Encoding: 166 166 104
Width: 660
VWidth: 825
Flags: HW
LayerCount: 2
Fore
SplineSet
320 100 m 1
 320 0 l 1
 220 0 l 1
 220 100 l 1
 320 100 l 1
320 210 m 1
 320 110 l 1
 220 110 l 1
 220 210 l 1
 320 210 l 1
320 320 m 1
 320 220 l 1
 220 220 l 1
 220 320 l 1
 320 320 l 1
320 540 m 1
 320 440 l 1
 220 440 l 1
 220 540 l 1
 320 540 l 1
320 650 m 1
 320 550 l 1
 220 550 l 1
 220 650 l 1
 320 650 l 1
320 760 m 1
 320 660 l 1
 220 660 l 1
 220 760 l 1
 320 760 l 1
EndSplineSet
EndChar

StartChar: section
Encoding: 167 167 105
Width: 660
VWidth: 825
Flags: HW
LayerCount: 2
Fore
SplineSet
320 100 m 1
 320 0 l 1
 220 0 l 1
 220 100 l 1
 320 100 l 1
210 100 m 1
 210 0 l 1
 110 0 l 1
 110 100 l 1
 210 100 l 1
430 210 m 1
 430 110 l 1
 330 110 l 1
 330 210 l 1
 430 210 l 1
100 210 m 1
 100 110 l 1
 0 110 l 1
 0 210 l 1
 100 210 l 1
320 320 m 1
 320 220 l 1
 220 220 l 1
 220 320 l 1
 320 320 l 1
430 430 m 1
 430 330 l 1
 330 330 l 1
 330 430 l 1
 430 430 l 1
210 430 m 1
 210 330 l 1
 110 330 l 1
 110 430 l 1
 210 430 l 1
320 540 m 1
 320 440 l 1
 220 440 l 1
 220 540 l 1
 320 540 l 1
540 650 m 1
 540 550 l 1
 440 550 l 1
 440 650 l 1
 540 650 l 1
210 650 m 1
 210 550 l 1
 110 550 l 1
 110 650 l 1
 210 650 l 1
430 760 m 1
 430 660 l 1
 330 660 l 1
 330 760 l 1
 430 760 l 1
320 760 m 1
 320 660 l 1
 220 660 l 1
 220 760 l 1
 320 760 l 1
EndSplineSet
EndChar

StartChar: ordfeminine
Encoding: 170 170 106
Width: 660
VWidth: 825
Flags: HW
LayerCount: 2
Fore
SplineSet
540 100 m 1
 540 0 l 1
 440 0 l 1
 440 100 l 1
 540 100 l 1
430 100 m 1
 430 0 l 1
 330 0 l 1
 330 100 l 1
 430 100 l 1
320 100 m 1
 320 0 l 1
 220 0 l 1
 220 100 l 1
 320 100 l 1
210 100 m 1
 210 0 l 1
 110 0 l 1
 110 100 l 1
 210 100 l 1
100 100 m 1
 100 0 l 1
 0 0 l 1
 0 100 l 1
 100 100 l 1
540 320 m 1
 540 220 l 1
 440 220 l 1
 440 320 l 1
 540 320 l 1
430 320 m 1
 430 220 l 1
 330 220 l 1
 330 320 l 1
 430 320 l 1
320 320 m 1
 320 220 l 1
 220 220 l 1
 220 320 l 1
 320 320 l 1
210 320 m 1
 210 220 l 1
 110 220 l 1
 110 320 l 1
 210 320 l 1
540 430 m 1
 540 330 l 1
 440 330 l 1
 440 430 l 1
 540 430 l 1
100 430 m 1
 100 330 l 1
 0 330 l 1
 0 430 l 1
 100 430 l 1
540 540 m 1
 540 440 l 1
 440 440 l 1
 440 540 l 1
 540 540 l 1
430 540 m 1
 430 440 l 1
 330 440 l 1
 330 540 l 1
 430 540 l 1
320 540 m 1
 320 440 l 1
 220 440 l 1
 220 540 l 1
 320 540 l 1
210 540 m 1
 210 440 l 1
 110 440 l 1
 110 540 l 1
 210 540 l 1
540 650 m 1
 540 550 l 1
 440 550 l 1
 440 650 l 1
 540 650 l 1
430 760 m 1
 430 660 l 1
 330 660 l 1
 330 760 l 1
 430 760 l 1
320 760 m 1
 320 660 l 1
 220 660 l 1
 220 760 l 1
 320 760 l 1
210 760 m 1
 210 660 l 1
 110 660 l 1
 110 760 l 1
 210 760 l 1
EndSplineSet
EndChar

StartChar: copyright
Encoding: 169 169 107
Width: 660
VWidth: 825
Flags: HW
LayerCount: 2
Fore
SplineSet
430 210 m 5
 430 110 l 5
 330 110 l 5
 330 210 l 5
 430 210 l 5
430 650 m 1
 430 550 l 1
 330 550 l 1
 330 650 l 1
 430 650 l 1
210 650 m 1
 210 550 l 1
 110 550 l 1
 110 650 l 1
 210 650 l 1
210 210 m 1
 210 110 l 1
 110 110 l 1
 110 210 l 1
 210 210 l 1
430 100 m 1
 430 0 l 1
 330 0 l 1
 330 100 l 1
 430 100 l 1
320 100 m 1
 320 0 l 1
 220 0 l 1
 220 100 l 1
 320 100 l 1
210 100 m 1
 210 0 l 1
 110 0 l 1
 110 100 l 1
 210 100 l 1
540 210 m 1
 540 110 l 1
 440 110 l 1
 440 210 l 1
 540 210 l 1
100 210 m 1
 100 110 l 1
 0 110 l 1
 0 210 l 1
 100 210 l 1
540 320 m 1
 540 220 l 1
 440 220 l 1
 440 320 l 1
 540 320 l 1
320 320 m 1
 320 220 l 1
 220 220 l 1
 220 320 l 1
 320 320 l 1
100 320 m 1
 100 220 l 1
 0 220 l 1
 0 320 l 1
 100 320 l 1
540 430 m 1
 540 330 l 1
 440 330 l 1
 440 430 l 1
 540 430 l 1
430 430 m 1
 430 330 l 1
 330 330 l 1
 330 430 l 1
 430 430 l 1
320 430 m 1
 320 330 l 1
 220 330 l 1
 220 430 l 1
 320 430 l 1
100 430 m 1
 100 330 l 1
 0 330 l 1
 0 430 l 1
 100 430 l 1
540 540 m 1
 540 440 l 1
 440 440 l 1
 440 540 l 1
 540 540 l 1
320 540 m 1
 320 440 l 1
 220 440 l 1
 220 540 l 1
 320 540 l 1
100 540 m 1
 100 440 l 1
 0 440 l 1
 0 540 l 1
 100 540 l 1
540 650 m 1
 540 550 l 1
 440 550 l 1
 440 650 l 1
 540 650 l 1
100 650 m 1
 100 550 l 1
 0 550 l 1
 0 650 l 1
 100 650 l 1
430 760 m 1
 430 660 l 1
 330 660 l 1
 330 760 l 1
 430 760 l 1
320 760 m 1
 320 660 l 1
 220 660 l 1
 220 760 l 1
 320 760 l 1
210 760 m 1
 210 660 l 1
 110 660 l 1
 110 760 l 1
 210 760 l 1
EndSplineSet
EndChar

StartChar: guillemotleft
Encoding: 171 171 108
Width: 660
VWidth: 825
Flags: HW
LayerCount: 2
Fore
SplineSet
540 210 m 1
 540 110 l 1
 440 110 l 1
 440 210 l 1
 540 210 l 1
320 210 m 1
 320 110 l 1
 220 110 l 1
 220 210 l 1
 320 210 l 1
430 320 m 1
 430 220 l 1
 330 220 l 1
 330 320 l 1
 430 320 l 1
210 320 m 1
 210 220 l 1
 110 220 l 1
 110 320 l 1
 210 320 l 1
320 430 m 1
 320 330 l 1
 220 330 l 1
 220 430 l 1
 320 430 l 1
100 430 m 1
 100 330 l 1
 0 330 l 1
 0 430 l 1
 100 430 l 1
430 540 m 1
 430 440 l 1
 330 440 l 1
 330 540 l 1
 430 540 l 1
210 540 m 1
 210 440 l 1
 110 440 l 1
 110 540 l 1
 210 540 l 1
540 650 m 1
 540 550 l 1
 440 550 l 1
 440 650 l 1
 540 650 l 1
320 650 m 1
 320 550 l 1
 220 550 l 1
 220 650 l 1
 320 650 l 1
EndSplineSet
EndChar

StartChar: guillemotright
Encoding: 187 187 109
Width: 660
VWidth: 825
Flags: HW
LayerCount: 2
Fore
SplineSet
320 210 m 1
 320 110 l 1
 220 110 l 1
 220 210 l 1
 320 210 l 1
100 210 m 1
 100 110 l 1
 0 110 l 1
 0 210 l 1
 100 210 l 1
430 320 m 1
 430 220 l 1
 330 220 l 1
 330 320 l 1
 430 320 l 1
210 320 m 1
 210 220 l 1
 110 220 l 1
 110 320 l 1
 210 320 l 1
540 430 m 1
 540 330 l 1
 440 330 l 1
 440 430 l 1
 540 430 l 1
320 430 m 1
 320 330 l 1
 220 330 l 1
 220 430 l 1
 320 430 l 1
430 540 m 1
 430 440 l 1
 330 440 l 1
 330 540 l 1
 430 540 l 1
210 540 m 1
 210 440 l 1
 110 440 l 1
 110 540 l 1
 210 540 l 1
320 650 m 1
 320 550 l 1
 220 550 l 1
 220 650 l 1
 320 650 l 1
100 650 m 1
 100 550 l 1
 0 550 l 1
 0 650 l 1
 100 650 l 1
EndSplineSet
EndChar

StartChar: ordmasculine
Encoding: 186 186 110
Width: 660
VWidth: 825
Flags: HW
LayerCount: 2
Fore
SplineSet
540 100 m 1
 540 0 l 1
 440 0 l 1
 440 100 l 1
 540 100 l 1
430 100 m 1
 430 0 l 1
 330 0 l 1
 330 100 l 1
 430 100 l 1
320 100 m 1
 320 0 l 1
 220 0 l 1
 220 100 l 1
 320 100 l 1
210 100 m 1
 210 0 l 1
 110 0 l 1
 110 100 l 1
 210 100 l 1
100 100 m 1
 100 0 l 1
 0 0 l 1
 0 100 l 1
 100 100 l 1
430 320 m 5
 430 220 l 5
 330 220 l 5
 330 320 l 5
 430 320 l 5
320 320 m 5
 320 220 l 5
 220 220 l 5
 220 320 l 5
 320 320 l 5
210 320 m 5
 210 220 l 5
 110 220 l 5
 110 320 l 5
 210 320 l 5
540 430 m 5
 540 330 l 5
 440 330 l 5
 440 430 l 5
 540 430 l 5
100 430 m 5
 100 330 l 5
 0 330 l 5
 0 430 l 5
 100 430 l 5
540 540 m 5
 540 440 l 5
 440 440 l 5
 440 540 l 5
 540 540 l 5
100 540 m 5
 100 440 l 5
 0 440 l 5
 0 540 l 5
 100 540 l 5
540 650 m 5
 540 550 l 5
 440 550 l 5
 440 650 l 5
 540 650 l 5
100 650 m 5
 100 550 l 5
 0 550 l 5
 0 650 l 5
 100 650 l 5
430 760 m 5
 430 660 l 5
 330 660 l 5
 330 760 l 5
 430 760 l 5
320 760 m 5
 320 660 l 5
 220 660 l 5
 220 760 l 5
 320 760 l 5
210 760 m 5
 210 660 l 5
 110 660 l 5
 110 760 l 5
 210 760 l 5
EndSplineSet
EndChar

StartChar: plusminus
Encoding: 177 177 111
Width: 660
VWidth: 825
Flags: HW
LayerCount: 2
Fore
SplineSet
540 100 m 1
 540 0 l 1
 440 0 l 1
 440 100 l 1
 540 100 l 1
430 100 m 1
 430 0 l 1
 330 0 l 1
 330 100 l 1
 430 100 l 1
320 100 m 1
 320 0 l 1
 220 0 l 1
 220 100 l 1
 320 100 l 1
210 100 m 1
 210 0 l 1
 110 0 l 1
 110 100 l 1
 210 100 l 1
100 100 m 1
 100 0 l 1
 0 0 l 1
 0 100 l 1
 100 100 l 1
320 320 m 1
 320 220 l 1
 220 220 l 1
 220 320 l 1
 320 320 l 1
320 430 m 1
 320 330 l 1
 220 330 l 1
 220 430 l 1
 320 430 l 1
540 540 m 1
 540 440 l 1
 440 440 l 1
 440 540 l 1
 540 540 l 1
430 540 m 1
 430 440 l 1
 330 440 l 1
 330 540 l 1
 430 540 l 1
320 540 m 1
 320 440 l 1
 220 440 l 1
 220 540 l 1
 320 540 l 1
210 540 m 1
 210 440 l 1
 110 440 l 1
 110 540 l 1
 210 540 l 1
100 540 m 1
 100 440 l 1
 0 440 l 1
 0 540 l 1
 100 540 l 1
320 650 m 1
 320 550 l 1
 220 550 l 1
 220 650 l 1
 320 650 l 1
320 760 m 1
 320 660 l 1
 220 660 l 1
 220 760 l 1
 320 760 l 1
EndSplineSet
EndChar

StartChar: mu
Encoding: 181 181 112
Width: 660
VWidth: 825
Flags: HW
LayerCount: 2
Fore
SplineSet
100 100 m 1
 100 0 l 1
 0 0 l 1
 0 100 l 1
 100 100 l 1
100 210 m 1
 100 110 l 1
 0 110 l 1
 0 210 l 1
 100 210 l 1
540 320 m 1
 540 220 l 1
 440 220 l 1
 440 320 l 1
 540 320 l 1
320 320 m 1
 320 220 l 1
 220 220 l 1
 220 320 l 1
 320 320 l 1
210 320 m 1
 210 220 l 1
 110 220 l 1
 110 320 l 1
 210 320 l 1
100 320 m 1
 100 220 l 1
 0 220 l 1
 0 320 l 1
 100 320 l 1
540 430 m 1
 540 330 l 1
 440 330 l 1
 440 430 l 1
 540 430 l 1
430 430 m 1
 430 330 l 1
 330 330 l 1
 330 430 l 1
 430 430 l 1
100 430 m 1
 100 330 l 1
 0 330 l 1
 0 430 l 1
 100 430 l 1
540 540 m 1
 540 440 l 1
 440 440 l 1
 440 540 l 1
 540 540 l 1
100 540 m 1
 100 440 l 1
 0 440 l 1
 0 540 l 1
 100 540 l 1
540 650 m 1
 540 550 l 1
 440 550 l 1
 440 650 l 1
 540 650 l 1
100 650 m 1
 100 550 l 1
 0 550 l 1
 0 650 l 1
 100 650 l 1
540 760 m 1
 540 660 l 1
 440 660 l 1
 440 760 l 1
 540 760 l 1
100 760 m 1
 100 660 l 1
 0 660 l 1
 0 760 l 1
 100 760 l 1
EndSplineSet
EndChar

StartChar: paragraph
Encoding: 182 182 113
Width: 660
VWidth: 825
Flags: HW
LayerCount: 2
Fore
SplineSet
540 100 m 1
 540 0 l 1
 440 0 l 1
 440 100 l 1
 540 100 l 1
320 100 m 1
 320 0 l 1
 220 0 l 1
 220 100 l 1
 320 100 l 1
540 210 m 1
 540 110 l 1
 440 110 l 1
 440 210 l 1
 540 210 l 1
320 210 m 1
 320 110 l 1
 220 110 l 1
 220 210 l 1
 320 210 l 1
540 320 m 1
 540 220 l 1
 440 220 l 1
 440 320 l 1
 540 320 l 1
320 320 m 1
 320 220 l 1
 220 220 l 1
 220 320 l 1
 320 320 l 1
540 430 m 1
 540 330 l 1
 440 330 l 1
 440 430 l 1
 540 430 l 1
320 430 m 1
 320 330 l 1
 220 330 l 1
 220 430 l 1
 320 430 l 1
210 430 m 1
 210 330 l 1
 110 330 l 1
 110 430 l 1
 210 430 l 1
540 540 m 1
 540 440 l 1
 440 440 l 1
 440 540 l 1
 540 540 l 1
320 540 m 1
 320 440 l 1
 220 440 l 1
 220 540 l 1
 320 540 l 1
100 540 m 1
 100 440 l 1
 0 440 l 1
 0 540 l 1
 100 540 l 1
540 650 m 1
 540 550 l 1
 440 550 l 1
 440 650 l 1
 540 650 l 1
320 650 m 1
 320 550 l 1
 220 550 l 1
 220 650 l 1
 320 650 l 1
100 650 m 1
 100 550 l 1
 0 550 l 1
 0 650 l 1
 100 650 l 1
540 760 m 1
 540 660 l 1
 440 660 l 1
 440 760 l 1
 540 760 l 1
430 760 m 1
 430 660 l 1
 330 660 l 1
 330 760 l 1
 430 760 l 1
320 760 m 1
 320 660 l 1
 220 660 l 1
 220 760 l 1
 320 760 l 1
210 760 m 1
 210 660 l 1
 110 660 l 1
 110 760 l 1
 210 760 l 1
EndSplineSet
EndChar

StartChar: periodcentered
Encoding: 183 183 114
Width: 660
VWidth: 825
Flags: HW
LayerCount: 2
Fore
SplineSet
320 320 m 1
 320 220 l 1
 220 220 l 1
 220 320 l 1
 320 320 l 1
210 320 m 1
 210 220 l 1
 110 220 l 1
 110 320 l 1
 210 320 l 1
320 430 m 1
 320 330 l 1
 220 330 l 1
 220 430 l 1
 320 430 l 1
210 430 m 1
 210 330 l 1
 110 330 l 1
 110 430 l 1
 210 430 l 1
EndSplineSet
EndChar

StartChar: exclamdown
Encoding: 161 161 115
Width: 660
VWidth: 825
Flags: HW
LayerCount: 2
Fore
SplineSet
320 100 m 1
 320 0 l 1
 220 0 l 1
 220 100 l 1
 320 100 l 1
320 210 m 1
 320 110 l 1
 220 110 l 1
 220 210 l 1
 320 210 l 1
320 320 m 1
 320 220 l 1
 220 220 l 1
 220 320 l 1
 320 320 l 1
320 430 m 1
 320 330 l 1
 220 330 l 1
 220 430 l 1
 320 430 l 1
320 760 m 1
 320 660 l 1
 220 660 l 1
 220 760 l 1
 320 760 l 1
EndSplineSet
EndChar

StartChar: uni2C60
Encoding: 11360 11360 116
Width: 660
VWidth: 825
Flags: HW
LayerCount: 2
Fore
SplineSet
540 100 m 1
 540 0 l 1
 440 0 l 1
 440 100 l 1
 540 100 l 1
430 100 m 1
 430 0 l 1
 330 0 l 1
 330 100 l 1
 430 100 l 1
320 100 m 1
 320 0 l 1
 220 0 l 1
 220 100 l 1
 320 100 l 1
210 100 m 1
 210 0 l 1
 110 0 l 1
 110 100 l 1
 210 100 l 1
210 210 m 1
 210 110 l 1
 110 110 l 1
 110 210 l 1
 210 210 l 1
320 320 m 1
 320 220 l 1
 220 220 l 1
 220 320 l 1
 320 320 l 1
210 320 m 1
 210 220 l 1
 110 220 l 1
 110 320 l 1
 210 320 l 1
100 320 m 1
 100 220 l 1
 0 220 l 1
 0 320 l 1
 100 320 l 1
210 430 m 1
 210 330 l 1
 110 330 l 1
 110 430 l 1
 210 430 l 1
320 540 m 1
 320 440 l 1
 220 440 l 1
 220 540 l 1
 320 540 l 1
210 540 m 1
 210 440 l 1
 110 440 l 1
 110 540 l 1
 210 540 l 1
100 540 m 1
 100 440 l 1
 0 440 l 1
 0 540 l 1
 100 540 l 1
210 650 m 1
 210 550 l 1
 110 550 l 1
 110 650 l 1
 210 650 l 1
210 760 m 1
 210 660 l 1
 110 660 l 1
 110 760 l 1
 210 760 l 1
EndSplineSet
EndChar

StartChar: uni300C
Encoding: 12300 12300 117
Width: 660
VWidth: 825
Flags: HW
LayerCount: 2
Fore
SplineSet
320 430 m 1
 320 330 l 1
 220 330 l 1
 220 430 l 1
 320 430 l 1
320 540 m 1
 320 440 l 1
 220 440 l 1
 220 540 l 1
 320 540 l 1
320 650 m 1
 320 550 l 1
 220 550 l 1
 220 650 l 1
 320 650 l 1
540 760 m 1
 540 660 l 1
 440 660 l 1
 440 760 l 1
 540 760 l 1
430 760 m 1
 430 660 l 1
 330 660 l 1
 330 760 l 1
 430 760 l 1
320 760 m 1
 320 660 l 1
 220 660 l 1
 220 760 l 1
 320 760 l 1
EndSplineSet
EndChar

StartChar: uni300D
Encoding: 12301 12301 118
Width: 660
VWidth: 825
Flags: HW
LayerCount: 2
Fore
SplineSet
320 100 m 1
 320 0 l 1
 220 0 l 1
 220 100 l 1
 320 100 l 1
210 100 m 1
 210 0 l 1
 110 0 l 1
 110 100 l 1
 210 100 l 1
100 100 m 1
 100 0 l 1
 0 0 l 1
 0 100 l 1
 100 100 l 1
320 210 m 1
 320 110 l 1
 220 110 l 1
 220 210 l 1
 320 210 l 1
320 320 m 1
 320 220 l 1
 220 220 l 1
 220 320 l 1
 320 320 l 1
320 430 m 1
 320 330 l 1
 220 330 l 1
 220 430 l 1
 320 430 l 1
EndSplineSet
EndChar

StartChar: uni309B
Encoding: 12443 12443 119
Width: 660
VWidth: 825
Flags: HW
LayerCount: 2
Fore
SplineSet
210 540 m 1
 210 440 l 1
 110 440 l 1
 110 540 l 1
 210 540 l 1
430 650 m 1
 430 550 l 1
 330 550 l 1
 330 650 l 1
 430 650 l 1
100 650 m 1
 100 550 l 1
 0 550 l 1
 0 650 l 1
 100 650 l 1
320 760 m 1
 320 660 l 1
 220 660 l 1
 220 760 l 1
 320 760 l 1
EndSplineSet
EndChar

StartChar: uni309C
Encoding: 12444 12444 120
Width: 660
VWidth: 825
Flags: HW
LayerCount: 2
Fore
SplineSet
320 540 m 1
 320 440 l 1
 220 440 l 1
 220 540 l 1
 320 540 l 1
210 540 m 1
 210 440 l 1
 110 440 l 1
 110 540 l 1
 210 540 l 1
100 540 m 1
 100 440 l 1
 0 440 l 1
 0 540 l 1
 100 540 l 1
320 650 m 1
 320 550 l 1
 220 550 l 1
 220 650 l 1
 320 650 l 1
100 650 m 1
 100 550 l 1
 0 550 l 1
 0 650 l 1
 100 650 l 1
320 760 m 1
 320 660 l 1
 220 660 l 1
 220 760 l 1
 320 760 l 1
210 760 m 1
 210 660 l 1
 110 660 l 1
 110 760 l 1
 210 760 l 1
100 760 m 1
 100 660 l 1
 0 660 l 1
 0 760 l 1
 100 760 l 1
EndSplineSet
EndChar

StartChar: uni30A1
Encoding: 12449 12449 121
Width: 660
VWidth: 825
Flags: HW
LayerCount: 2
Fore
SplineSet
210 100 m 1
 210 0 l 1
 110 0 l 1
 110 100 l 1
 210 100 l 1
320 210 m 1
 320 110 l 1
 220 110 l 1
 220 210 l 1
 320 210 l 1
430 320 m 1
 430 220 l 1
 330 220 l 1
 330 320 l 1
 430 320 l 1
320 320 m 1
 320 220 l 1
 220 220 l 1
 220 320 l 1
 320 320 l 1
540 430 m 1
 540 330 l 1
 440 330 l 1
 440 430 l 1
 540 430 l 1
540 540 m 1
 540 440 l 1
 440 440 l 1
 440 540 l 1
 540 540 l 1
430 540 m 1
 430 440 l 1
 330 440 l 1
 330 540 l 1
 430 540 l 1
320 540 m 1
 320 440 l 1
 220 440 l 1
 220 540 l 1
 320 540 l 1
210 540 m 1
 210 440 l 1
 110 440 l 1
 110 540 l 1
 210 540 l 1
100 540 m 1
 100 440 l 1
 0 440 l 1
 0 540 l 1
 100 540 l 1
EndSplineSet
EndChar

StartChar: uni30A2
Encoding: 12450 12450 122
Width: 660
VWidth: 825
Flags: HW
LayerCount: 2
Fore
SplineSet
210 100 m 1
 210 0 l 1
 110 0 l 1
 110 100 l 1
 210 100 l 1
320 210 m 1
 320 110 l 1
 220 110 l 1
 220 210 l 1
 320 210 l 1
320 320 m 1
 320 220 l 1
 220 220 l 1
 220 320 l 1
 320 320 l 1
430 430 m 1
 430 330 l 1
 330 330 l 1
 330 430 l 1
 430 430 l 1
320 430 m 1
 320 330 l 1
 220 330 l 1
 220 430 l 1
 320 430 l 1
540 540 m 1
 540 440 l 1
 440 440 l 1
 440 540 l 1
 540 540 l 1
320 540 m 1
 320 440 l 1
 220 440 l 1
 220 540 l 1
 320 540 l 1
540 650 m 1
 540 550 l 1
 440 550 l 1
 440 650 l 1
 540 650 l 1
540 760 m 1
 540 660 l 1
 440 660 l 1
 440 760 l 1
 540 760 l 1
430 760 m 1
 430 660 l 1
 330 660 l 1
 330 760 l 1
 430 760 l 1
320 760 m 1
 320 660 l 1
 220 660 l 1
 220 760 l 1
 320 760 l 1
210 760 m 1
 210 660 l 1
 110 660 l 1
 110 760 l 1
 210 760 l 1
100 760 m 1
 100 660 l 1
 0 660 l 1
 0 760 l 1
 100 760 l 1
EndSplineSet
EndChar

StartChar: uni30A3
Encoding: 12451 12451 123
Width: 660
VWidth: 825
Flags: HW
LayerCount: 2
Fore
SplineSet
320 100 m 1
 320 0 l 1
 220 0 l 1
 220 100 l 1
 320 100 l 1
320 210 m 1
 320 110 l 1
 220 110 l 1
 220 210 l 1
 320 210 l 1
100 210 m 1
 100 110 l 1
 0 110 l 1
 0 210 l 1
 100 210 l 1
320 320 m 1
 320 220 l 1
 220 220 l 1
 220 320 l 1
 320 320 l 1
210 320 m 1
 210 220 l 1
 110 220 l 1
 110 320 l 1
 210 320 l 1
320 430 m 1
 320 330 l 1
 220 330 l 1
 220 430 l 1
 320 430 l 1
430 540 m 1
 430 440 l 1
 330 440 l 1
 330 540 l 1
 430 540 l 1
EndSplineSet
EndChar

StartChar: uni30A4
Encoding: 12452 12452 124
Width: 660
VWidth: 825
Flags: HW
LayerCount: 2
Fore
SplineSet
320 100 m 1
 320 0 l 1
 220 0 l 1
 220 100 l 1
 320 100 l 1
320 210 m 1
 320 110 l 1
 220 110 l 1
 220 210 l 1
 320 210 l 1
320 320 m 1
 320 220 l 1
 220 220 l 1
 220 320 l 1
 320 320 l 1
100 320 m 1
 100 220 l 1
 0 220 l 1
 0 320 l 1
 100 320 l 1
320 430 m 1
 320 330 l 1
 220 330 l 1
 220 430 l 1
 320 430 l 1
210 430 m 1
 210 330 l 1
 110 330 l 1
 110 430 l 1
 210 430 l 1
320 540 m 1
 320 440 l 1
 220 440 l 1
 220 540 l 1
 320 540 l 1
430 650 m 1
 430 550 l 1
 330 550 l 1
 330 650 l 1
 430 650 l 1
540 760 m 1
 540 660 l 1
 440 660 l 1
 440 760 l 1
 540 760 l 1
EndSplineSet
EndChar

StartChar: uni30A5
Encoding: 12453 12453 125
Width: 660
VWidth: 825
Flags: HW
LayerCount: 2
Fore
SplineSet
430 100 m 1
 430 0 l 1
 330 0 l 1
 330 100 l 1
 430 100 l 1
320 100 m 1
 320 0 l 1
 220 0 l 1
 220 100 l 1
 320 100 l 1
540 210 m 1
 540 110 l 1
 440 110 l 1
 440 210 l 1
 540 210 l 1
540 320 m 1
 540 220 l 1
 440 220 l 1
 440 320 l 1
 540 320 l 1
100 320 m 1
 100 220 l 1
 0 220 l 1
 0 320 l 1
 100 320 l 1
540 430 m 1
 540 330 l 1
 440 330 l 1
 440 430 l 1
 540 430 l 1
430 430 m 1
 430 330 l 1
 330 330 l 1
 330 430 l 1
 430 430 l 1
320 430 m 1
 320 330 l 1
 220 330 l 1
 220 430 l 1
 320 430 l 1
210 430 m 1
 210 330 l 1
 110 330 l 1
 110 430 l 1
 210 430 l 1
100 430 m 1
 100 330 l 1
 0 330 l 1
 0 430 l 1
 100 430 l 1
320 540 m 1
 320 440 l 1
 220 440 l 1
 220 540 l 1
 320 540 l 1
EndSplineSet
EndChar

StartChar: uni30A6
Encoding: 12454 12454 126
Width: 660
VWidth: 825
Flags: HW
LayerCount: 2
Fore
SplineSet
320 100 m 1
 320 0 l 1
 220 0 l 1
 220 100 l 1
 320 100 l 1
430 210 m 1
 430 110 l 1
 330 110 l 1
 330 210 l 1
 430 210 l 1
540 320 m 1
 540 220 l 1
 440 220 l 1
 440 320 l 1
 540 320 l 1
540 430 m 1
 540 330 l 1
 440 330 l 1
 440 430 l 1
 540 430 l 1
540 540 m 1
 540 440 l 1
 440 440 l 1
 440 540 l 1
 540 540 l 1
100 540 m 1
 100 440 l 1
 0 440 l 1
 0 540 l 1
 100 540 l 1
540 650 m 1
 540 550 l 1
 440 550 l 1
 440 650 l 1
 540 650 l 1
430 650 m 1
 430 550 l 1
 330 550 l 1
 330 650 l 1
 430 650 l 1
320 650 m 1
 320 550 l 1
 220 550 l 1
 220 650 l 1
 320 650 l 1
210 650 m 1
 210 550 l 1
 110 550 l 1
 110 650 l 1
 210 650 l 1
100 650 m 1
 100 550 l 1
 0 550 l 1
 0 650 l 1
 100 650 l 1
320 760 m 1
 320 660 l 1
 220 660 l 1
 220 760 l 1
 320 760 l 1
EndSplineSet
EndChar

StartChar: uni30A7
Encoding: 12455 12455 127
Width: 660
VWidth: 825
Flags: HW
LayerCount: 2
Fore
SplineSet
540 100 m 1
 540 0 l 1
 440 0 l 1
 440 100 l 1
 540 100 l 1
430 100 m 1
 430 0 l 1
 330 0 l 1
 330 100 l 1
 430 100 l 1
320 100 m 1
 320 0 l 1
 220 0 l 1
 220 100 l 1
 320 100 l 1
210 100 m 1
 210 0 l 1
 110 0 l 1
 110 100 l 1
 210 100 l 1
100 100 m 1
 100 0 l 1
 0 0 l 1
 0 100 l 1
 100 100 l 1
320 210 m 1
 320 110 l 1
 220 110 l 1
 220 210 l 1
 320 210 l 1
320 320 m 1
 320 220 l 1
 220 220 l 1
 220 320 l 1
 320 320 l 1
540 430 m 1
 540 330 l 1
 440 330 l 1
 440 430 l 1
 540 430 l 1
430 430 m 1
 430 330 l 1
 330 330 l 1
 330 430 l 1
 430 430 l 1
320 430 m 1
 320 330 l 1
 220 330 l 1
 220 430 l 1
 320 430 l 1
210 430 m 1
 210 330 l 1
 110 330 l 1
 110 430 l 1
 210 430 l 1
100 430 m 1
 100 330 l 1
 0 330 l 1
 0 430 l 1
 100 430 l 1
EndSplineSet
EndChar

StartChar: uni30A8
Encoding: 12456 12456 128
Width: 660
VWidth: 825
Flags: HW
LayerCount: 2
Fore
SplineSet
540 100 m 1
 540 0 l 1
 440 0 l 1
 440 100 l 1
 540 100 l 1
430 100 m 1
 430 0 l 1
 330 0 l 1
 330 100 l 1
 430 100 l 1
320 100 m 1
 320 0 l 1
 220 0 l 1
 220 100 l 1
 320 100 l 1
210 100 m 1
 210 0 l 1
 110 0 l 1
 110 100 l 1
 210 100 l 1
100 100 m 1
 100 0 l 1
 0 0 l 1
 0 100 l 1
 100 100 l 1
320 210 m 1
 320 110 l 1
 220 110 l 1
 220 210 l 1
 320 210 l 1
320 320 m 1
 320 220 l 1
 220 220 l 1
 220 320 l 1
 320 320 l 1
320 430 m 1
 320 330 l 1
 220 330 l 1
 220 430 l 1
 320 430 l 1
320 540 m 1
 320 440 l 1
 220 440 l 1
 220 540 l 1
 320 540 l 1
540 650 m 1
 540 550 l 1
 440 550 l 1
 440 650 l 1
 540 650 l 1
430 650 m 1
 430 550 l 1
 330 550 l 1
 330 650 l 1
 430 650 l 1
320 650 m 1
 320 550 l 1
 220 550 l 1
 220 650 l 1
 320 650 l 1
210 650 m 1
 210 550 l 1
 110 550 l 1
 110 650 l 1
 210 650 l 1
100 650 m 1
 100 550 l 1
 0 550 l 1
 0 650 l 1
 100 650 l 1
EndSplineSet
EndChar

StartChar: uni30A9
Encoding: 12457 12457 129
Width: 660
VWidth: 825
Flags: HW
LayerCount: 2
Fore
SplineSet
430 100 m 1
 430 0 l 1
 330 0 l 1
 330 100 l 1
 430 100 l 1
100 100 m 1
 100 0 l 1
 0 0 l 1
 0 100 l 1
 100 100 l 1
430 210 m 1
 430 110 l 1
 330 110 l 1
 330 210 l 1
 430 210 l 1
210 210 m 1
 210 110 l 1
 110 110 l 1
 110 210 l 1
 210 210 l 1
430 320 m 1
 430 220 l 1
 330 220 l 1
 330 320 l 1
 430 320 l 1
320 320 m 1
 320 220 l 1
 220 220 l 1
 220 320 l 1
 320 320 l 1
540 430 m 1
 540 330 l 1
 440 330 l 1
 440 430 l 1
 540 430 l 1
430 430 m 1
 430 330 l 1
 330 330 l 1
 330 430 l 1
 430 430 l 1
320 430 m 1
 320 330 l 1
 220 330 l 1
 220 430 l 1
 320 430 l 1
210 430 m 1
 210 330 l 1
 110 330 l 1
 110 430 l 1
 210 430 l 1
100 430 m 1
 100 330 l 1
 0 330 l 1
 0 430 l 1
 100 430 l 1
430 540 m 1
 430 440 l 1
 330 440 l 1
 330 540 l 1
 430 540 l 1
EndSplineSet
EndChar

StartChar: uni30AA
Encoding: 12458 12458 130
Width: 660
VWidth: 825
Flags: HW
LayerCount: 2
Fore
SplineSet
430 100 m 1
 430 0 l 1
 330 0 l 1
 330 100 l 1
 430 100 l 1
430 210 m 1
 430 110 l 1
 330 110 l 1
 330 210 l 1
 430 210 l 1
100 210 m 1
 100 110 l 1
 0 110 l 1
 0 210 l 1
 100 210 l 1
430 320 m 1
 430 220 l 1
 330 220 l 1
 330 320 l 1
 430 320 l 1
210 320 m 1
 210 220 l 1
 110 220 l 1
 110 320 l 1
 210 320 l 1
430 430 m 1
 430 330 l 1
 330 330 l 1
 330 430 l 1
 430 430 l 1
320 430 m 1
 320 330 l 1
 220 330 l 1
 220 430 l 1
 320 430 l 1
430 540 m 1
 430 440 l 1
 330 440 l 1
 330 540 l 1
 430 540 l 1
540 650 m 1
 540 550 l 1
 440 550 l 1
 440 650 l 1
 540 650 l 1
430 650 m 1
 430 550 l 1
 330 550 l 1
 330 650 l 1
 430 650 l 1
320 650 m 1
 320 550 l 1
 220 550 l 1
 220 650 l 1
 320 650 l 1
210 650 m 1
 210 550 l 1
 110 550 l 1
 110 650 l 1
 210 650 l 1
100 650 m 1
 100 550 l 1
 0 550 l 1
 0 650 l 1
 100 650 l 1
430 760 m 1
 430 660 l 1
 330 660 l 1
 330 760 l 1
 430 760 l 1
EndSplineSet
EndChar

StartChar: uni30AB
Encoding: 12459 12459 131
Width: 660
VWidth: 825
Flags: HW
LayerCount: 2
Fore
SplineSet
430 100 m 1
 430 0 l 1
 330 0 l 1
 330 100 l 1
 430 100 l 1
100 100 m 1
 100 0 l 1
 0 0 l 1
 0 100 l 1
 100 100 l 1
540 210 m 1
 540 110 l 1
 440 110 l 1
 440 210 l 1
 540 210 l 1
210 210 m 1
 210 110 l 1
 110 110 l 1
 110 210 l 1
 210 210 l 1
540 320 m 1
 540 220 l 1
 440 220 l 1
 440 320 l 1
 540 320 l 1
210 320 m 1
 210 220 l 1
 110 220 l 1
 110 320 l 1
 210 320 l 1
540 430 m 1
 540 330 l 1
 440 330 l 1
 440 430 l 1
 540 430 l 1
210 430 m 1
 210 330 l 1
 110 330 l 1
 110 430 l 1
 210 430 l 1
540 540 m 1
 540 440 l 1
 440 440 l 1
 440 540 l 1
 540 540 l 1
210 540 m 1
 210 440 l 1
 110 440 l 1
 110 540 l 1
 210 540 l 1
540 650 m 1
 540 550 l 1
 440 550 l 1
 440 650 l 1
 540 650 l 1
430 650 m 1
 430 550 l 1
 330 550 l 1
 330 650 l 1
 430 650 l 1
320 650 m 1
 320 550 l 1
 220 550 l 1
 220 650 l 1
 320 650 l 1
210 650 m 1
 210 550 l 1
 110 550 l 1
 110 650 l 1
 210 650 l 1
100 650 m 1
 100 550 l 1
 0 550 l 1
 0 650 l 1
 100 650 l 1
210 760 m 1
 210 660 l 1
 110 660 l 1
 110 760 l 1
 210 760 l 1
EndSplineSet
EndChar

StartChar: uni30AD
Encoding: 12461 12461 132
Width: 660
VWidth: 825
Flags: HW
LayerCount: 2
Fore
SplineSet
320 100 m 1
 320 0 l 1
 220 0 l 1
 220 100 l 1
 320 100 l 1
320 210 m 1
 320 110 l 1
 220 110 l 1
 220 210 l 1
 320 210 l 1
320 320 m 1
 320 220 l 1
 220 220 l 1
 220 320 l 1
 320 320 l 1
540 430 m 1
 540 330 l 1
 440 330 l 1
 440 430 l 1
 540 430 l 1
430 430 m 1
 430 330 l 1
 330 330 l 1
 330 430 l 1
 430 430 l 1
320 430 m 1
 320 330 l 1
 220 330 l 1
 220 430 l 1
 320 430 l 1
210 430 m 1
 210 330 l 1
 110 330 l 1
 110 430 l 1
 210 430 l 1
100 430 m 1
 100 330 l 1
 0 330 l 1
 0 430 l 1
 100 430 l 1
320 540 m 1
 320 440 l 1
 220 440 l 1
 220 540 l 1
 320 540 l 1
540 650 m 1
 540 550 l 1
 440 550 l 1
 440 650 l 1
 540 650 l 1
430 650 m 1
 430 550 l 1
 330 550 l 1
 330 650 l 1
 430 650 l 1
320 650 m 1
 320 550 l 1
 220 550 l 1
 220 650 l 1
 320 650 l 1
210 650 m 1
 210 550 l 1
 110 550 l 1
 110 650 l 1
 210 650 l 1
100 650 m 1
 100 550 l 1
 0 550 l 1
 0 650 l 1
 100 650 l 1
320 760 m 1
 320 660 l 1
 220 660 l 1
 220 760 l 1
 320 760 l 1
EndSplineSet
EndChar

StartChar: uni30AF
Encoding: 12463 12463 133
Width: 660
VWidth: 825
Flags: HW
LayerCount: 2
Fore
SplineSet
320 100 m 1
 320 0 l 1
 220 0 l 1
 220 100 l 1
 320 100 l 1
210 100 m 1
 210 0 l 1
 110 0 l 1
 110 100 l 1
 210 100 l 1
430 210 m 1
 430 110 l 1
 330 110 l 1
 330 210 l 1
 430 210 l 1
540 320 m 1
 540 220 l 1
 440 220 l 1
 440 320 l 1
 540 320 l 1
540 430 m 1
 540 330 l 1
 440 330 l 1
 440 430 l 1
 540 430 l 1
100 430 m 1
 100 330 l 1
 0 330 l 1
 0 430 l 1
 100 430 l 1
540 540 m 1
 540 440 l 1
 440 440 l 1
 440 540 l 1
 540 540 l 1
210 540 m 1
 210 440 l 1
 110 440 l 1
 110 540 l 1
 210 540 l 1
540 650 m 1
 540 550 l 1
 440 550 l 1
 440 650 l 1
 540 650 l 1
430 650 m 1
 430 550 l 1
 330 550 l 1
 330 650 l 1
 430 650 l 1
320 650 m 1
 320 550 l 1
 220 550 l 1
 220 650 l 1
 320 650 l 1
210 650 m 1
 210 550 l 1
 110 550 l 1
 110 650 l 1
 210 650 l 1
EndSplineSet
EndChar

StartChar: uni30B1
Encoding: 12465 12465 134
Width: 660
VWidth: 825
Flags: HW
LayerCount: 2
Fore
SplineSet
320 100 m 1
 320 0 l 1
 220 0 l 1
 220 100 l 1
 320 100 l 1
430 210 m 1
 430 110 l 1
 330 110 l 1
 330 210 l 1
 430 210 l 1
430 320 m 1
 430 220 l 1
 330 220 l 1
 330 320 l 1
 430 320 l 1
430 430 m 1
 430 330 l 1
 330 330 l 1
 330 430 l 1
 430 430 l 1
430 540 m 1
 430 440 l 1
 330 440 l 1
 330 540 l 1
 430 540 l 1
100 540 m 1
 100 440 l 1
 0 440 l 1
 0 540 l 1
 100 540 l 1
540 650 m 1
 540 550 l 1
 440 550 l 1
 440 650 l 1
 540 650 l 1
430 650 m 1
 430 550 l 1
 330 550 l 1
 330 650 l 1
 430 650 l 1
320 650 m 1
 320 550 l 1
 220 550 l 1
 220 650 l 1
 320 650 l 1
210 650 m 1
 210 550 l 1
 110 550 l 1
 110 650 l 1
 210 650 l 1
210 760 m 1
 210 660 l 1
 110 660 l 1
 110 760 l 1
 210 760 l 1
EndSplineSet
EndChar

StartChar: uni30B3
Encoding: 12467 12467 135
Width: 660
VWidth: 825
Flags: HW
LayerCount: 2
Fore
SplineSet
540 100 m 1
 540 0 l 1
 440 0 l 1
 440 100 l 1
 540 100 l 1
430 100 m 1
 430 0 l 1
 330 0 l 1
 330 100 l 1
 430 100 l 1
320 100 m 1
 320 0 l 1
 220 0 l 1
 220 100 l 1
 320 100 l 1
210 100 m 1
 210 0 l 1
 110 0 l 1
 110 100 l 1
 210 100 l 1
100 100 m 1
 100 0 l 1
 0 0 l 1
 0 100 l 1
 100 100 l 1
540 210 m 1
 540 110 l 1
 440 110 l 1
 440 210 l 1
 540 210 l 1
540 320 m 1
 540 220 l 1
 440 220 l 1
 440 320 l 1
 540 320 l 1
540 430 m 1
 540 330 l 1
 440 330 l 1
 440 430 l 1
 540 430 l 1
540 540 m 1
 540 440 l 1
 440 440 l 1
 440 540 l 1
 540 540 l 1
540 650 m 1
 540 550 l 1
 440 550 l 1
 440 650 l 1
 540 650 l 1
430 650 m 1
 430 550 l 1
 330 550 l 1
 330 650 l 1
 430 650 l 1
320 650 m 1
 320 550 l 1
 220 550 l 1
 220 650 l 1
 320 650 l 1
210 650 m 1
 210 550 l 1
 110 550 l 1
 110 650 l 1
 210 650 l 1
100 650 m 1
 100 550 l 1
 0 550 l 1
 0 650 l 1
 100 650 l 1
EndSplineSet
EndChar

StartChar: uni30B5
Encoding: 12469 12469 136
Width: 660
VWidth: 825
Flags: HW
LayerCount: 2
Fore
SplineSet
210 100 m 1
 210 0 l 1
 110 0 l 1
 110 100 l 1
 210 100 l 1
320 210 m 1
 320 110 l 1
 220 110 l 1
 220 210 l 1
 320 210 l 1
430 320 m 1
 430 220 l 1
 330 220 l 1
 330 320 l 1
 430 320 l 1
430 430 m 1
 430 330 l 1
 330 330 l 1
 330 430 l 1
 430 430 l 1
210 430 m 1
 210 330 l 1
 110 330 l 1
 110 430 l 1
 210 430 l 1
430 540 m 1
 430 440 l 1
 330 440 l 1
 330 540 l 1
 430 540 l 1
210 540 m 1
 210 440 l 1
 110 440 l 1
 110 540 l 1
 210 540 l 1
540 650 m 1
 540 550 l 1
 440 550 l 1
 440 650 l 1
 540 650 l 1
430 650 m 1
 430 550 l 1
 330 550 l 1
 330 650 l 1
 430 650 l 1
320 650 m 1
 320 550 l 1
 220 550 l 1
 220 650 l 1
 320 650 l 1
210 650 m 1
 210 550 l 1
 110 550 l 1
 110 650 l 1
 210 650 l 1
100 650 m 1
 100 550 l 1
 0 550 l 1
 0 650 l 1
 100 650 l 1
430 760 m 1
 430 660 l 1
 330 660 l 1
 330 760 l 1
 430 760 l 1
210 760 m 1
 210 660 l 1
 110 660 l 1
 110 760 l 1
 210 760 l 1
EndSplineSet
EndChar

StartChar: uni30B7
Encoding: 12471 12471 137
Width: 660
VWidth: 825
Flags: HW
LayerCount: 2
Fore
SplineSet
320 100 m 1
 320 0 l 1
 220 0 l 1
 220 100 l 1
 320 100 l 1
210 100 m 1
 210 0 l 1
 110 0 l 1
 110 100 l 1
 210 100 l 1
100 100 m 1
 100 0 l 1
 0 0 l 1
 0 100 l 1
 100 100 l 1
430 210 m 1
 430 110 l 1
 330 110 l 1
 330 210 l 1
 430 210 l 1
540 320 m 1
 540 220 l 1
 440 220 l 1
 440 320 l 1
 540 320 l 1
540 430 m 1
 540 330 l 1
 440 330 l 1
 440 430 l 1
 540 430 l 1
320 430 m 1
 320 330 l 1
 220 330 l 1
 220 430 l 1
 320 430 l 1
210 430 m 1
 210 330 l 1
 110 330 l 1
 110 430 l 1
 210 430 l 1
100 430 m 1
 100 330 l 1
 0 330 l 1
 0 430 l 1
 100 430 l 1
540 540 m 1
 540 440 l 1
 440 440 l 1
 440 540 l 1
 540 540 l 1
320 650 m 1
 320 550 l 1
 220 550 l 1
 220 650 l 1
 320 650 l 1
210 650 m 1
 210 550 l 1
 110 550 l 1
 110 650 l 1
 210 650 l 1
100 650 m 1
 100 550 l 1
 0 550 l 1
 0 650 l 1
 100 650 l 1
EndSplineSet
EndChar

StartChar: uni30B9
Encoding: 12473 12473 138
Width: 660
VWidth: 825
Flags: HW
LayerCount: 2
Fore
SplineSet
540 100 m 1
 540 0 l 1
 440 0 l 1
 440 100 l 1
 540 100 l 1
100 100 m 1
 100 0 l 1
 0 0 l 1
 0 100 l 1
 100 100 l 1
430 210 m 1
 430 110 l 1
 330 110 l 1
 330 210 l 1
 430 210 l 1
210 210 m 1
 210 110 l 1
 110 110 l 1
 110 210 l 1
 210 210 l 1
320 320 m 1
 320 220 l 1
 220 220 l 1
 220 320 l 1
 320 320 l 1
430 430 m 1
 430 330 l 1
 330 330 l 1
 330 430 l 1
 430 430 l 1
540 540 m 1
 540 440 l 1
 440 440 l 1
 440 540 l 1
 540 540 l 1
540 650 m 1
 540 550 l 1
 440 550 l 1
 440 650 l 1
 540 650 l 1
430 650 m 1
 430 550 l 1
 330 550 l 1
 330 650 l 1
 430 650 l 1
320 650 m 1
 320 550 l 1
 220 550 l 1
 220 650 l 1
 320 650 l 1
210 650 m 1
 210 550 l 1
 110 550 l 1
 110 650 l 1
 210 650 l 1
100 650 m 1
 100 550 l 1
 0 550 l 1
 0 650 l 1
 100 650 l 1
EndSplineSet
EndChar

StartChar: uni30BB
Encoding: 12475 12475 139
Width: 660
VWidth: 825
Flags: HW
LayerCount: 2
Fore
SplineSet
540 100 m 1
 540 0 l 1
 440 0 l 1
 440 100 l 1
 540 100 l 1
430 100 m 1
 430 0 l 1
 330 0 l 1
 330 100 l 1
 430 100 l 1
320 100 m 1
 320 0 l 1
 220 0 l 1
 220 100 l 1
 320 100 l 1
210 210 m 1
 210 110 l 1
 110 110 l 1
 110 210 l 1
 210 210 l 1
210 320 m 1
 210 220 l 1
 110 220 l 1
 110 320 l 1
 210 320 l 1
430 430 m 1
 430 330 l 1
 330 330 l 1
 330 430 l 1
 430 430 l 1
210 430 m 1
 210 330 l 1
 110 330 l 1
 110 430 l 1
 210 430 l 1
540 540 m 1
 540 440 l 1
 440 440 l 1
 440 540 l 1
 540 540 l 1
210 540 m 1
 210 440 l 1
 110 440 l 1
 110 540 l 1
 210 540 l 1
540 650 m 1
 540 550 l 1
 440 550 l 1
 440 650 l 1
 540 650 l 1
430 650 m 1
 430 550 l 1
 330 550 l 1
 330 650 l 1
 430 650 l 1
320 650 m 1
 320 550 l 1
 220 550 l 1
 220 650 l 1
 320 650 l 1
210 650 m 1
 210 550 l 1
 110 550 l 1
 110 650 l 1
 210 650 l 1
100 650 m 1
 100 550 l 1
 0 550 l 1
 0 650 l 1
 100 650 l 1
210 760 m 1
 210 660 l 1
 110 660 l 1
 110 760 l 1
 210 760 l 1
EndSplineSet
EndChar

StartChar: uni30BD
Encoding: 12477 12477 140
Width: 660
VWidth: 825
Flags: HW
LayerCount: 2
Fore
SplineSet
320 100 m 1
 320 0 l 1
 220 0 l 1
 220 100 l 1
 320 100 l 1
210 100 m 1
 210 0 l 1
 110 0 l 1
 110 100 l 1
 210 100 l 1
430 210 m 1
 430 110 l 1
 330 110 l 1
 330 210 l 1
 430 210 l 1
540 320 m 1
 540 220 l 1
 440 220 l 1
 440 320 l 1
 540 320 l 1
540 430 m 1
 540 330 l 1
 440 330 l 1
 440 430 l 1
 540 430 l 1
210 430 m 1
 210 330 l 1
 110 330 l 1
 110 430 l 1
 210 430 l 1
540 540 m 1
 540 440 l 1
 440 440 l 1
 440 540 l 1
 540 540 l 1
100 540 m 1
 100 440 l 1
 0 440 l 1
 0 540 l 1
 100 540 l 1
540 650 m 1
 540 550 l 1
 440 550 l 1
 440 650 l 1
 540 650 l 1
100 650 m 1
 100 550 l 1
 0 550 l 1
 0 650 l 1
 100 650 l 1
EndSplineSet
EndChar

StartChar: uni30BF
Encoding: 12479 12479 141
Width: 660
VWidth: 825
Flags: HW
LayerCount: 2
Fore
SplineSet
320 100 m 1
 320 0 l 1
 220 0 l 1
 220 100 l 1
 320 100 l 1
210 100 m 1
 210 0 l 1
 110 0 l 1
 110 100 l 1
 210 100 l 1
430 210 m 1
 430 110 l 1
 330 110 l 1
 330 210 l 1
 430 210 l 1
540 320 m 1
 540 220 l 1
 440 220 l 1
 440 320 l 1
 540 320 l 1
430 320 m 1
 430 220 l 1
 330 220 l 1
 330 320 l 1
 430 320 l 1
540 430 m 1
 540 330 l 1
 440 330 l 1
 440 430 l 1
 540 430 l 1
320 430 m 1
 320 330 l 1
 220 330 l 1
 220 430 l 1
 320 430 l 1
100 430 m 1
 100 330 l 1
 0 330 l 1
 0 430 l 1
 100 430 l 1
540 540 m 1
 540 440 l 1
 440 440 l 1
 440 540 l 1
 540 540 l 1
210 540 m 1
 210 440 l 1
 110 440 l 1
 110 540 l 1
 210 540 l 1
540 650 m 1
 540 550 l 1
 440 550 l 1
 440 650 l 1
 540 650 l 1
430 650 m 1
 430 550 l 1
 330 550 l 1
 330 650 l 1
 430 650 l 1
320 650 m 1
 320 550 l 1
 220 550 l 1
 220 650 l 1
 320 650 l 1
210 650 m 1
 210 550 l 1
 110 550 l 1
 110 650 l 1
 210 650 l 1
EndSplineSet
EndChar

StartChar: uni30C1
Encoding: 12481 12481 142
Width: 660
VWidth: 825
Flags: HW
LayerCount: 2
Fore
SplineSet
210 100 m 1
 210 0 l 1
 110 0 l 1
 110 100 l 1
 210 100 l 1
320 210 m 1
 320 110 l 1
 220 110 l 1
 220 210 l 1
 320 210 l 1
320 320 m 1
 320 220 l 1
 220 220 l 1
 220 320 l 1
 320 320 l 1
540 430 m 1
 540 330 l 1
 440 330 l 1
 440 430 l 1
 540 430 l 1
430 430 m 1
 430 330 l 1
 330 330 l 1
 330 430 l 1
 430 430 l 1
320 430 m 1
 320 330 l 1
 220 330 l 1
 220 430 l 1
 320 430 l 1
210 430 m 1
 210 330 l 1
 110 330 l 1
 110 430 l 1
 210 430 l 1
100 430 m 1
 100 330 l 1
 0 330 l 1
 0 430 l 1
 100 430 l 1
320 540 m 1
 320 440 l 1
 220 440 l 1
 220 540 l 1
 320 540 l 1
320 650 m 1
 320 550 l 1
 220 550 l 1
 220 650 l 1
 320 650 l 1
210 650 m 1
 210 550 l 1
 110 550 l 1
 110 650 l 1
 210 650 l 1
100 650 m 1
 100 550 l 1
 0 550 l 1
 0 650 l 1
 100 650 l 1
430 760 m 1
 430 660 l 1
 330 660 l 1
 330 760 l 1
 430 760 l 1
EndSplineSet
EndChar

StartChar: uni30C3
Encoding: 12483 12483 143
Width: 660
VWidth: 825
Flags: HW
LayerCount: 2
Fore
SplineSet
430 100 m 1
 430 0 l 1
 330 0 l 1
 330 100 l 1
 430 100 l 1
320 100 m 1
 320 0 l 1
 220 0 l 1
 220 100 l 1
 320 100 l 1
540 210 m 1
 540 110 l 1
 440 110 l 1
 440 210 l 1
 540 210 l 1
540 320 m 1
 540 220 l 1
 440 220 l 1
 440 320 l 1
 540 320 l 1
320 320 m 1
 320 220 l 1
 220 220 l 1
 220 320 l 1
 320 320 l 1
100 320 m 1
 100 220 l 1
 0 220 l 1
 0 320 l 1
 100 320 l 1
540 430 m 1
 540 330 l 1
 440 330 l 1
 440 430 l 1
 540 430 l 1
320 430 m 1
 320 330 l 1
 220 330 l 1
 220 430 l 1
 320 430 l 1
100 430 m 1
 100 330 l 1
 0 330 l 1
 0 430 l 1
 100 430 l 1
EndSplineSet
EndChar

StartChar: uni30C4
Encoding: 12484 12484 144
Width: 660
VWidth: 825
Flags: HW
LayerCount: 2
Fore
SplineSet
320 100 m 1
 320 0 l 1
 220 0 l 1
 220 100 l 1
 320 100 l 1
430 210 m 1
 430 110 l 1
 330 110 l 1
 330 210 l 1
 430 210 l 1
540 320 m 1
 540 220 l 1
 440 220 l 1
 440 320 l 1
 540 320 l 1
540 430 m 1
 540 330 l 1
 440 330 l 1
 440 430 l 1
 540 430 l 1
320 430 m 1
 320 330 l 1
 220 330 l 1
 220 430 l 1
 320 430 l 1
100 430 m 1
 100 330 l 1
 0 330 l 1
 0 430 l 1
 100 430 l 1
540 540 m 1
 540 440 l 1
 440 440 l 1
 440 540 l 1
 540 540 l 1
320 540 m 1
 320 440 l 1
 220 440 l 1
 220 540 l 1
 320 540 l 1
100 540 m 1
 100 440 l 1
 0 440 l 1
 0 540 l 1
 100 540 l 1
540 650 m 1
 540 550 l 1
 440 550 l 1
 440 650 l 1
 540 650 l 1
320 650 m 1
 320 550 l 1
 220 550 l 1
 220 650 l 1
 320 650 l 1
100 650 m 1
 100 550 l 1
 0 550 l 1
 0 650 l 1
 100 650 l 1
EndSplineSet
EndChar

StartChar: uni30C6
Encoding: 12486 12486 145
Width: 660
VWidth: 825
Flags: HW
LayerCount: 2
Fore
SplineSet
210 100 m 1
 210 0 l 1
 110 0 l 1
 110 100 l 1
 210 100 l 1
320 210 m 1
 320 110 l 1
 220 110 l 1
 220 210 l 1
 320 210 l 1
320 320 m 1
 320 220 l 1
 220 220 l 1
 220 320 l 1
 320 320 l 1
320 430 m 1
 320 330 l 1
 220 330 l 1
 220 430 l 1
 320 430 l 1
540 540 m 1
 540 440 l 1
 440 440 l 1
 440 540 l 1
 540 540 l 1
430 540 m 1
 430 440 l 1
 330 440 l 1
 330 540 l 1
 430 540 l 1
320 540 m 1
 320 440 l 1
 220 440 l 1
 220 540 l 1
 320 540 l 1
210 540 m 1
 210 440 l 1
 110 440 l 1
 110 540 l 1
 210 540 l 1
100 540 m 1
 100 440 l 1
 0 440 l 1
 0 540 l 1
 100 540 l 1
430 760 m 1
 430 660 l 1
 330 660 l 1
 330 760 l 1
 430 760 l 1
320 760 m 1
 320 660 l 1
 220 660 l 1
 220 760 l 1
 320 760 l 1
210 760 m 1
 210 660 l 1
 110 660 l 1
 110 760 l 1
 210 760 l 1
EndSplineSet
EndChar

StartChar: uni30C8
Encoding: 12488 12488 146
Width: 660
VWidth: 825
Flags: HW
LayerCount: 2
Fore
SplineSet
320 100 m 1
 320 0 l 1
 220 0 l 1
 220 100 l 1
 320 100 l 1
320 210 m 1
 320 110 l 1
 220 110 l 1
 220 210 l 1
 320 210 l 1
540 320 m 1
 540 220 l 1
 440 220 l 1
 440 320 l 1
 540 320 l 1
320 320 m 1
 320 220 l 1
 220 220 l 1
 220 320 l 1
 320 320 l 1
430 430 m 1
 430 330 l 1
 330 330 l 1
 330 430 l 1
 430 430 l 1
320 430 m 1
 320 330 l 1
 220 330 l 1
 220 430 l 1
 320 430 l 1
320 540 m 1
 320 440 l 1
 220 440 l 1
 220 540 l 1
 320 540 l 1
320 650 m 1
 320 550 l 1
 220 550 l 1
 220 650 l 1
 320 650 l 1
320 760 m 1
 320 660 l 1
 220 660 l 1
 220 760 l 1
 320 760 l 1
EndSplineSet
EndChar

StartChar: uni30CA
Encoding: 12490 12490 147
Width: 660
VWidth: 825
Flags: HW
LayerCount: 2
Fore
SplineSet
100 100 m 1
 100 0 l 1
 0 0 l 1
 0 100 l 1
 100 100 l 1
210 210 m 1
 210 110 l 1
 110 110 l 1
 110 210 l 1
 210 210 l 1
320 320 m 1
 320 220 l 1
 220 220 l 1
 220 320 l 1
 320 320 l 1
320 430 m 1
 320 330 l 1
 220 330 l 1
 220 430 l 1
 320 430 l 1
540 540 m 1
 540 440 l 1
 440 440 l 1
 440 540 l 1
 540 540 l 1
430 540 m 1
 430 440 l 1
 330 440 l 1
 330 540 l 1
 430 540 l 1
320 540 m 1
 320 440 l 1
 220 440 l 1
 220 540 l 1
 320 540 l 1
210 540 m 1
 210 440 l 1
 110 440 l 1
 110 540 l 1
 210 540 l 1
100 540 m 1
 100 440 l 1
 0 440 l 1
 0 540 l 1
 100 540 l 1
320 650 m 1
 320 550 l 1
 220 550 l 1
 220 650 l 1
 320 650 l 1
320 760 m 1
 320 660 l 1
 220 660 l 1
 220 760 l 1
 320 760 l 1
EndSplineSet
EndChar

StartChar: uni30CB
Encoding: 12491 12491 148
Width: 660
VWidth: 825
Flags: HW
LayerCount: 2
Fore
SplineSet
540 100 m 1
 540 0 l 1
 440 0 l 1
 440 100 l 1
 540 100 l 1
430 100 m 1
 430 0 l 1
 330 0 l 1
 330 100 l 1
 430 100 l 1
320 100 m 1
 320 0 l 1
 220 0 l 1
 220 100 l 1
 320 100 l 1
210 100 m 1
 210 0 l 1
 110 0 l 1
 110 100 l 1
 210 100 l 1
100 100 m 1
 100 0 l 1
 0 0 l 1
 0 100 l 1
 100 100 l 1
430 650 m 1
 430 550 l 1
 330 550 l 1
 330 650 l 1
 430 650 l 1
320 650 m 1
 320 550 l 1
 220 550 l 1
 220 650 l 1
 320 650 l 1
210 650 m 1
 210 550 l 1
 110 550 l 1
 110 650 l 1
 210 650 l 1
EndSplineSet
EndChar

StartChar: uni30CC
Encoding: 12492 12492 149
Width: 660
VWidth: 825
Flags: HW
LayerCount: 2
Fore
SplineSet
100 100 m 1
 100 0 l 1
 0 0 l 1
 0 100 l 1
 100 100 l 1
430 210 m 1
 430 110 l 1
 330 110 l 1
 330 210 l 1
 430 210 l 1
210 210 m 1
 210 110 l 1
 110 110 l 1
 110 210 l 1
 210 210 l 1
320 320 m 1
 320 220 l 1
 220 220 l 1
 220 320 l 1
 320 320 l 1
430 430 m 1
 430 330 l 1
 330 330 l 1
 330 430 l 1
 430 430 l 1
210 430 m 1
 210 330 l 1
 110 330 l 1
 110 430 l 1
 210 430 l 1
540 540 m 1
 540 440 l 1
 440 440 l 1
 440 540 l 1
 540 540 l 1
540 650 m 1
 540 550 l 1
 440 550 l 1
 440 650 l 1
 540 650 l 1
430 650 m 1
 430 550 l 1
 330 550 l 1
 330 650 l 1
 430 650 l 1
320 650 m 1
 320 550 l 1
 220 550 l 1
 220 650 l 1
 320 650 l 1
210 650 m 1
 210 550 l 1
 110 550 l 1
 110 650 l 1
 210 650 l 1
100 650 m 1
 100 550 l 1
 0 550 l 1
 0 650 l 1
 100 650 l 1
EndSplineSet
EndChar

StartChar: uni30CD
Encoding: 12493 12493 150
Width: 660
VWidth: 825
Flags: HW
LayerCount: 2
Fore
SplineSet
320 100 m 1
 320 0 l 1
 220 0 l 1
 220 100 l 1
 320 100 l 1
540 210 m 1
 540 110 l 1
 440 110 l 1
 440 210 l 1
 540 210 l 1
320 210 m 1
 320 110 l 1
 220 110 l 1
 220 210 l 1
 320 210 l 1
100 210 m 1
 100 110 l 1
 0 110 l 1
 0 210 l 1
 100 210 l 1
430 320 m 1
 430 220 l 1
 330 220 l 1
 330 320 l 1
 430 320 l 1
320 320 m 1
 320 220 l 1
 220 220 l 1
 220 320 l 1
 320 320 l 1
210 320 m 1
 210 220 l 1
 110 220 l 1
 110 320 l 1
 210 320 l 1
320 430 m 1
 320 330 l 1
 220 330 l 1
 220 430 l 1
 320 430 l 1
430 540 m 1
 430 440 l 1
 330 440 l 1
 330 540 l 1
 430 540 l 1
540 650 m 1
 540 550 l 1
 440 550 l 1
 440 650 l 1
 540 650 l 1
430 650 m 1
 430 550 l 1
 330 550 l 1
 330 650 l 1
 430 650 l 1
320 650 m 1
 320 550 l 1
 220 550 l 1
 220 650 l 1
 320 650 l 1
210 650 m 1
 210 550 l 1
 110 550 l 1
 110 650 l 1
 210 650 l 1
100 650 m 1
 100 550 l 1
 0 550 l 1
 0 650 l 1
 100 650 l 1
320 760 m 1
 320 660 l 1
 220 660 l 1
 220 760 l 1
 320 760 l 1
EndSplineSet
EndChar

StartChar: uni30CE
Encoding: 12494 12494 151
Width: 660
VWidth: 825
Flags: HW
LayerCount: 2
Fore
SplineSet
320 100 m 1
 320 0 l 1
 220 0 l 1
 220 100 l 1
 320 100 l 1
430 210 m 1
 430 110 l 1
 330 110 l 1
 330 210 l 1
 430 210 l 1
540 320 m 1
 540 220 l 1
 440 220 l 1
 440 320 l 1
 540 320 l 1
540 430 m 1
 540 330 l 1
 440 330 l 1
 440 430 l 1
 540 430 l 1
540 540 m 1
 540 440 l 1
 440 440 l 1
 440 540 l 1
 540 540 l 1
540 650 m 1
 540 550 l 1
 440 550 l 1
 440 650 l 1
 540 650 l 1
540 760 m 1
 540 660 l 1
 440 660 l 1
 440 760 l 1
 540 760 l 1
EndSplineSet
EndChar

StartChar: uni30CF
Encoding: 12495 12495 152
Width: 660
VWidth: 825
Flags: HW
LayerCount: 2
Fore
SplineSet
540 100 m 1
 540 0 l 1
 440 0 l 1
 440 100 l 1
 540 100 l 1
100 100 m 1
 100 0 l 1
 0 0 l 1
 0 100 l 1
 100 100 l 1
540 210 m 1
 540 110 l 1
 440 110 l 1
 440 210 l 1
 540 210 l 1
100 210 m 1
 100 110 l 1
 0 110 l 1
 0 210 l 1
 100 210 l 1
540 320 m 1
 540 220 l 1
 440 220 l 1
 440 320 l 1
 540 320 l 1
100 320 m 1
 100 220 l 1
 0 220 l 1
 0 320 l 1
 100 320 l 1
540 430 m 1
 540 330 l 1
 440 330 l 1
 440 430 l 1
 540 430 l 1
100 430 m 1
 100 330 l 1
 0 330 l 1
 0 430 l 1
 100 430 l 1
430 540 m 1
 430 440 l 1
 330 440 l 1
 330 540 l 1
 430 540 l 1
320 650 m 1
 320 550 l 1
 220 550 l 1
 220 650 l 1
 320 650 l 1
EndSplineSet
EndChar

StartChar: uni30D2
Encoding: 12498 12498 153
Width: 660
VWidth: 825
Flags: HW
LayerCount: 2
Fore
SplineSet
540 100 m 1
 540 0 l 1
 440 0 l 1
 440 100 l 1
 540 100 l 1
430 100 m 1
 430 0 l 1
 330 0 l 1
 330 100 l 1
 430 100 l 1
320 100 m 1
 320 0 l 1
 220 0 l 1
 220 100 l 1
 320 100 l 1
210 100 m 1
 210 0 l 1
 110 0 l 1
 110 100 l 1
 210 100 l 1
100 210 m 1
 100 110 l 1
 0 110 l 1
 0 210 l 1
 100 210 l 1
100 320 m 1
 100 220 l 1
 0 220 l 1
 0 320 l 1
 100 320 l 1
100 430 m 1
 100 330 l 1
 0 330 l 1
 0 430 l 1
 100 430 l 1
540 540 m 1
 540 440 l 1
 440 440 l 1
 440 540 l 1
 540 540 l 1
430 540 m 1
 430 440 l 1
 330 440 l 1
 330 540 l 1
 430 540 l 1
320 540 m 1
 320 440 l 1
 220 440 l 1
 220 540 l 1
 320 540 l 1
210 540 m 1
 210 440 l 1
 110 440 l 1
 110 540 l 1
 210 540 l 1
100 540 m 1
 100 440 l 1
 0 440 l 1
 0 540 l 1
 100 540 l 1
100 650 m 1
 100 550 l 1
 0 550 l 1
 0 650 l 1
 100 650 l 1
100 760 m 1
 100 660 l 1
 0 660 l 1
 0 760 l 1
 100 760 l 1
EndSplineSet
EndChar

StartChar: uni30D5
Encoding: 12501 12501 154
Width: 660
VWidth: 825
Flags: HW
LayerCount: 2
Fore
SplineSet
320 100 m 1
 320 0 l 1
 220 0 l 1
 220 100 l 1
 320 100 l 1
210 100 m 1
 210 0 l 1
 110 0 l 1
 110 100 l 1
 210 100 l 1
430 210 m 1
 430 110 l 1
 330 110 l 1
 330 210 l 1
 430 210 l 1
540 320 m 1
 540 220 l 1
 440 220 l 1
 440 320 l 1
 540 320 l 1
540 430 m 1
 540 330 l 1
 440 330 l 1
 440 430 l 1
 540 430 l 1
540 540 m 1
 540 440 l 1
 440 440 l 1
 440 540 l 1
 540 540 l 1
540 650 m 1
 540 550 l 1
 440 550 l 1
 440 650 l 1
 540 650 l 1
430 650 m 1
 430 550 l 1
 330 550 l 1
 330 650 l 1
 430 650 l 1
320 650 m 1
 320 550 l 1
 220 550 l 1
 220 650 l 1
 320 650 l 1
210 650 m 1
 210 550 l 1
 110 550 l 1
 110 650 l 1
 210 650 l 1
100 650 m 1
 100 550 l 1
 0 550 l 1
 0 650 l 1
 100 650 l 1
EndSplineSet
EndChar

StartChar: uni30D8
Encoding: 12504 12504 155
Width: 660
VWidth: 825
Flags: HW
LayerCount: 2
Fore
SplineSet
540 210 m 1
 540 110 l 1
 440 110 l 1
 440 210 l 1
 540 210 l 1
540 320 m 1
 540 220 l 1
 440 220 l 1
 440 320 l 1
 540 320 l 1
430 430 m 1
 430 330 l 1
 330 330 l 1
 330 430 l 1
 430 430 l 1
320 540 m 1
 320 440 l 1
 220 440 l 1
 220 540 l 1
 320 540 l 1
100 540 m 1
 100 440 l 1
 0 440 l 1
 0 540 l 1
 100 540 l 1
210 650 m 1
 210 550 l 1
 110 550 l 1
 110 650 l 1
 210 650 l 1
EndSplineSet
EndChar

StartChar: uni30DB
Encoding: 12507 12507 156
Width: 660
VWidth: 825
Flags: HW
LayerCount: 2
Fore
SplineSet
320 100 m 1
 320 0 l 1
 220 0 l 1
 220 100 l 1
 320 100 l 1
540 210 m 1
 540 110 l 1
 440 110 l 1
 440 210 l 1
 540 210 l 1
320 210 m 1
 320 110 l 1
 220 110 l 1
 220 210 l 1
 320 210 l 1
100 210 m 1
 100 110 l 1
 0 110 l 1
 0 210 l 1
 100 210 l 1
540 320 m 1
 540 220 l 1
 440 220 l 1
 440 320 l 1
 540 320 l 1
320 320 m 1
 320 220 l 1
 220 220 l 1
 220 320 l 1
 320 320 l 1
100 320 m 1
 100 220 l 1
 0 220 l 1
 0 320 l 1
 100 320 l 1
320 430 m 1
 320 330 l 1
 220 330 l 1
 220 430 l 1
 320 430 l 1
320 540 m 1
 320 440 l 1
 220 440 l 1
 220 540 l 1
 320 540 l 1
540 650 m 1
 540 550 l 1
 440 550 l 1
 440 650 l 1
 540 650 l 1
430 650 m 1
 430 550 l 1
 330 550 l 1
 330 650 l 1
 430 650 l 1
320 650 m 1
 320 550 l 1
 220 550 l 1
 220 650 l 1
 320 650 l 1
210 650 m 1
 210 550 l 1
 110 550 l 1
 110 650 l 1
 210 650 l 1
100 650 m 1
 100 550 l 1
 0 550 l 1
 0 650 l 1
 100 650 l 1
320 760 m 1
 320 660 l 1
 220 660 l 1
 220 760 l 1
 320 760 l 1
EndSplineSet
EndChar

StartChar: uni30DE
Encoding: 12510 12510 157
Width: 660
VWidth: 825
Flags: HW
LayerCount: 2
Fore
SplineSet
430 100 m 1
 430 0 l 1
 330 0 l 1
 330 100 l 1
 430 100 l 1
320 210 m 1
 320 110 l 1
 220 110 l 1
 220 210 l 1
 320 210 l 1
430 320 m 1
 430 220 l 1
 330 220 l 1
 330 320 l 1
 430 320 l 1
210 320 m 1
 210 220 l 1
 110 220 l 1
 110 320 l 1
 210 320 l 1
540 430 m 1
 540 330 l 1
 440 330 l 1
 440 430 l 1
 540 430 l 1
540 540 m 1
 540 440 l 1
 440 440 l 1
 440 540 l 1
 540 540 l 1
540 650 m 1
 540 550 l 1
 440 550 l 1
 440 650 l 1
 540 650 l 1
430 650 m 1
 430 550 l 1
 330 550 l 1
 330 650 l 1
 430 650 l 1
320 650 m 1
 320 550 l 1
 220 550 l 1
 220 650 l 1
 320 650 l 1
210 650 m 1
 210 550 l 1
 110 550 l 1
 110 650 l 1
 210 650 l 1
100 650 m 1
 100 550 l 1
 0 550 l 1
 0 650 l 1
 100 650 l 1
EndSplineSet
EndChar

StartChar: uni30DF
Encoding: 12511 12511 158
Width: 660
VWidth: 825
Flags: HW
LayerCount: 2
Fore
SplineSet
540 100 m 1
 540 0 l 1
 440 0 l 1
 440 100 l 1
 540 100 l 1
430 210 m 1
 430 110 l 1
 330 110 l 1
 330 210 l 1
 430 210 l 1
320 210 m 1
 320 110 l 1
 220 110 l 1
 220 210 l 1
 320 210 l 1
210 210 m 1
 210 110 l 1
 110 110 l 1
 110 210 l 1
 210 210 l 1
430 430 m 1
 430 330 l 1
 330 330 l 1
 330 430 l 1
 430 430 l 1
320 430 m 1
 320 330 l 1
 220 330 l 1
 220 430 l 1
 320 430 l 1
210 430 m 1
 210 330 l 1
 110 330 l 1
 110 430 l 1
 210 430 l 1
430 650 m 1
 430 550 l 1
 330 550 l 1
 330 650 l 1
 430 650 l 1
320 650 m 1
 320 550 l 1
 220 550 l 1
 220 650 l 1
 320 650 l 1
210 650 m 1
 210 550 l 1
 110 550 l 1
 110 650 l 1
 210 650 l 1
EndSplineSet
EndChar

StartChar: uni30E0
Encoding: 12512 12512 159
Width: 660
VWidth: 825
Flags: HW
LayerCount: 2
Fore
SplineSet
540 100 m 1
 540 0 l 1
 440 0 l 1
 440 100 l 1
 540 100 l 1
540 210 m 1
 540 110 l 1
 440 110 l 1
 440 210 l 1
 540 210 l 1
430 210 m 1
 430 110 l 1
 330 110 l 1
 330 210 l 1
 430 210 l 1
320 210 m 1
 320 110 l 1
 220 110 l 1
 220 210 l 1
 320 210 l 1
210 210 m 1
 210 110 l 1
 110 110 l 1
 110 210 l 1
 210 210 l 1
100 210 m 1
 100 110 l 1
 0 110 l 1
 0 210 l 1
 100 210 l 1
540 320 m 1
 540 220 l 1
 440 220 l 1
 440 320 l 1
 540 320 l 1
100 320 m 1
 100 220 l 1
 0 220 l 1
 0 320 l 1
 100 320 l 1
100 430 m 1
 100 330 l 1
 0 330 l 1
 0 430 l 1
 100 430 l 1
210 540 m 1
 210 440 l 1
 110 440 l 1
 110 540 l 1
 210 540 l 1
320 650 m 1
 320 550 l 1
 220 550 l 1
 220 650 l 1
 320 650 l 1
EndSplineSet
EndChar

StartChar: uni30E1
Encoding: 12513 12513 160
Width: 660
VWidth: 825
Flags: HW
LayerCount: 2
Fore
SplineSet
100 100 m 1
 100 0 l 1
 0 0 l 1
 0 100 l 1
 100 100 l 1
430 210 m 1
 430 110 l 1
 330 110 l 1
 330 210 l 1
 430 210 l 1
210 210 m 1
 210 110 l 1
 110 110 l 1
 110 210 l 1
 210 210 l 1
320 320 m 1
 320 220 l 1
 220 220 l 1
 220 320 l 1
 320 320 l 1
430 430 m 1
 430 330 l 1
 330 330 l 1
 330 430 l 1
 430 430 l 1
210 430 m 1
 210 330 l 1
 110 330 l 1
 110 430 l 1
 210 430 l 1
540 540 m 1
 540 440 l 1
 440 440 l 1
 440 540 l 1
 540 540 l 1
540 650 m 1
 540 550 l 1
 440 550 l 1
 440 650 l 1
 540 650 l 1
EndSplineSet
EndChar

StartChar: uni30E2
Encoding: 12514 12514 161
Width: 660
VWidth: 825
Flags: HW
LayerCount: 2
Fore
SplineSet
540 100 m 1
 540 0 l 1
 440 0 l 1
 440 100 l 1
 540 100 l 1
430 100 m 1
 430 0 l 1
 330 0 l 1
 330 100 l 1
 430 100 l 1
320 100 m 1
 320 0 l 1
 220 0 l 1
 220 100 l 1
 320 100 l 1
210 210 m 1
 210 110 l 1
 110 110 l 1
 110 210 l 1
 210 210 l 1
210 320 m 1
 210 220 l 1
 110 220 l 1
 110 320 l 1
 210 320 l 1
540 430 m 1
 540 330 l 1
 440 330 l 1
 440 430 l 1
 540 430 l 1
430 430 m 1
 430 330 l 1
 330 330 l 1
 330 430 l 1
 430 430 l 1
320 430 m 1
 320 330 l 1
 220 330 l 1
 220 430 l 1
 320 430 l 1
210 430 m 1
 210 330 l 1
 110 330 l 1
 110 430 l 1
 210 430 l 1
100 430 m 1
 100 330 l 1
 0 330 l 1
 0 430 l 1
 100 430 l 1
210 540 m 1
 210 440 l 1
 110 440 l 1
 110 540 l 1
 210 540 l 1
540 650 m 1
 540 550 l 1
 440 550 l 1
 440 650 l 1
 540 650 l 1
430 650 m 1
 430 550 l 1
 330 550 l 1
 330 650 l 1
 430 650 l 1
320 650 m 1
 320 550 l 1
 220 550 l 1
 220 650 l 1
 320 650 l 1
210 650 m 1
 210 550 l 1
 110 550 l 1
 110 650 l 1
 210 650 l 1
100 650 m 1
 100 550 l 1
 0 550 l 1
 0 650 l 1
 100 650 l 1
EndSplineSet
EndChar

StartChar: uni30E3
Encoding: 12515 12515 162
Width: 660
VWidth: 825
Flags: HW
LayerCount: 2
Fore
SplineSet
210 100 m 1
 210 0 l 1
 110 0 l 1
 110 100 l 1
 210 100 l 1
430 210 m 1
 430 110 l 1
 330 110 l 1
 330 210 l 1
 430 210 l 1
210 210 m 1
 210 110 l 1
 110 110 l 1
 110 210 l 1
 210 210 l 1
540 320 m 1
 540 220 l 1
 440 220 l 1
 440 320 l 1
 540 320 l 1
210 320 m 1
 210 220 l 1
 110 220 l 1
 110 320 l 1
 210 320 l 1
540 430 m 1
 540 330 l 1
 440 330 l 1
 440 430 l 1
 540 430 l 1
430 430 m 1
 430 330 l 1
 330 330 l 1
 330 430 l 1
 430 430 l 1
320 430 m 1
 320 330 l 1
 220 330 l 1
 220 430 l 1
 320 430 l 1
210 430 m 1
 210 330 l 1
 110 330 l 1
 110 430 l 1
 210 430 l 1
100 430 m 1
 100 330 l 1
 0 330 l 1
 0 430 l 1
 100 430 l 1
210 540 m 1
 210 440 l 1
 110 440 l 1
 110 540 l 1
 210 540 l 1
EndSplineSet
EndChar

StartChar: uni30E4
Encoding: 12516 12516 163
Width: 660
VWidth: 825
Flags: HW
LayerCount: 2
Fore
SplineSet
210 100 m 1
 210 0 l 1
 110 0 l 1
 110 100 l 1
 210 100 l 1
210 210 m 1
 210 110 l 1
 110 110 l 1
 110 210 l 1
 210 210 l 1
430 320 m 1
 430 220 l 1
 330 220 l 1
 330 320 l 1
 430 320 l 1
210 320 m 1
 210 220 l 1
 110 220 l 1
 110 320 l 1
 210 320 l 1
540 430 m 1
 540 330 l 1
 440 330 l 1
 440 430 l 1
 540 430 l 1
210 430 m 1
 210 330 l 1
 110 330 l 1
 110 430 l 1
 210 430 l 1
540 540 m 1
 540 440 l 1
 440 440 l 1
 440 540 l 1
 540 540 l 1
430 540 m 1
 430 440 l 1
 330 440 l 1
 330 540 l 1
 430 540 l 1
320 540 m 1
 320 440 l 1
 220 440 l 1
 220 540 l 1
 320 540 l 1
210 540 m 1
 210 440 l 1
 110 440 l 1
 110 540 l 1
 210 540 l 1
100 540 m 1
 100 440 l 1
 0 440 l 1
 0 540 l 1
 100 540 l 1
210 650 m 1
 210 550 l 1
 110 550 l 1
 110 650 l 1
 210 650 l 1
210 760 m 1
 210 660 l 1
 110 660 l 1
 110 760 l 1
 210 760 l 1
EndSplineSet
EndChar

StartChar: uni30E5
Encoding: 12517 12517 164
Width: 660
VWidth: 825
Flags: HW
LayerCount: 2
Fore
SplineSet
540 100 m 1
 540 0 l 1
 440 0 l 1
 440 100 l 1
 540 100 l 1
430 100 m 1
 430 0 l 1
 330 0 l 1
 330 100 l 1
 430 100 l 1
320 100 m 1
 320 0 l 1
 220 0 l 1
 220 100 l 1
 320 100 l 1
210 100 m 1
 210 0 l 1
 110 0 l 1
 110 100 l 1
 210 100 l 1
100 100 m 1
 100 0 l 1
 0 0 l 1
 0 100 l 1
 100 100 l 1
430 210 m 1
 430 110 l 1
 330 110 l 1
 330 210 l 1
 430 210 l 1
430 320 m 1
 430 220 l 1
 330 220 l 1
 330 320 l 1
 430 320 l 1
430 430 m 1
 430 330 l 1
 330 330 l 1
 330 430 l 1
 430 430 l 1
320 430 m 1
 320 330 l 1
 220 330 l 1
 220 430 l 1
 320 430 l 1
210 430 m 1
 210 330 l 1
 110 330 l 1
 110 430 l 1
 210 430 l 1
EndSplineSet
EndChar

StartChar: uni30E6
Encoding: 12518 12518 165
Width: 660
VWidth: 825
Flags: HW
LayerCount: 2
Fore
SplineSet
540 100 m 1
 540 0 l 1
 440 0 l 1
 440 100 l 1
 540 100 l 1
430 100 m 1
 430 0 l 1
 330 0 l 1
 330 100 l 1
 430 100 l 1
320 100 m 1
 320 0 l 1
 220 0 l 1
 220 100 l 1
 320 100 l 1
210 100 m 1
 210 0 l 1
 110 0 l 1
 110 100 l 1
 210 100 l 1
100 100 m 1
 100 0 l 1
 0 0 l 1
 0 100 l 1
 100 100 l 1
430 210 m 1
 430 110 l 1
 330 110 l 1
 330 210 l 1
 430 210 l 1
430 320 m 1
 430 220 l 1
 330 220 l 1
 330 320 l 1
 430 320 l 1
430 430 m 1
 430 330 l 1
 330 330 l 1
 330 430 l 1
 430 430 l 1
430 540 m 1
 430 440 l 1
 330 440 l 1
 330 540 l 1
 430 540 l 1
430 650 m 1
 430 550 l 1
 330 550 l 1
 330 650 l 1
 430 650 l 1
320 650 m 1
 320 550 l 1
 220 550 l 1
 220 650 l 1
 320 650 l 1
210 650 m 1
 210 550 l 1
 110 550 l 1
 110 650 l 1
 210 650 l 1
EndSplineSet
EndChar

StartChar: uni30E7
Encoding: 12519 12519 166
Width: 660
VWidth: 825
Flags: HW
LayerCount: 2
Fore
SplineSet
430 100 m 1
 430 0 l 1
 330 0 l 1
 330 100 l 1
 430 100 l 1
320 100 m 1
 320 0 l 1
 220 0 l 1
 220 100 l 1
 320 100 l 1
210 100 m 1
 210 0 l 1
 110 0 l 1
 110 100 l 1
 210 100 l 1
100 100 m 1
 100 0 l 1
 0 0 l 1
 0 100 l 1
 100 100 l 1
430 210 m 1
 430 110 l 1
 330 110 l 1
 330 210 l 1
 430 210 l 1
430 320 m 1
 430 220 l 1
 330 220 l 1
 330 320 l 1
 430 320 l 1
320 320 m 1
 320 220 l 1
 220 220 l 1
 220 320 l 1
 320 320 l 1
210 320 m 1
 210 220 l 1
 110 220 l 1
 110 320 l 1
 210 320 l 1
100 320 m 1
 100 220 l 1
 0 220 l 1
 0 320 l 1
 100 320 l 1
430 430 m 1
 430 330 l 1
 330 330 l 1
 330 430 l 1
 430 430 l 1
430 540 m 1
 430 440 l 1
 330 440 l 1
 330 540 l 1
 430 540 l 1
320 540 m 1
 320 440 l 1
 220 440 l 1
 220 540 l 1
 320 540 l 1
210 540 m 1
 210 440 l 1
 110 440 l 1
 110 540 l 1
 210 540 l 1
100 540 m 1
 100 440 l 1
 0 440 l 1
 0 540 l 1
 100 540 l 1
EndSplineSet
EndChar

StartChar: uni30E8
Encoding: 12520 12520 167
Width: 660
VWidth: 825
Flags: HW
LayerCount: 2
Fore
SplineSet
540 100 m 1
 540 0 l 1
 440 0 l 1
 440 100 l 1
 540 100 l 1
430 100 m 1
 430 0 l 1
 330 0 l 1
 330 100 l 1
 430 100 l 1
320 100 m 1
 320 0 l 1
 220 0 l 1
 220 100 l 1
 320 100 l 1
210 100 m 1
 210 0 l 1
 110 0 l 1
 110 100 l 1
 210 100 l 1
100 100 m 1
 100 0 l 1
 0 0 l 1
 0 100 l 1
 100 100 l 1
540 210 m 1
 540 110 l 1
 440 110 l 1
 440 210 l 1
 540 210 l 1
540 320 m 1
 540 220 l 1
 440 220 l 1
 440 320 l 1
 540 320 l 1
540 430 m 1
 540 330 l 1
 440 330 l 1
 440 430 l 1
 540 430 l 1
430 430 m 1
 430 330 l 1
 330 330 l 1
 330 430 l 1
 430 430 l 1
320 430 m 1
 320 330 l 1
 220 330 l 1
 220 430 l 1
 320 430 l 1
210 430 m 1
 210 330 l 1
 110 330 l 1
 110 430 l 1
 210 430 l 1
100 430 m 1
 100 330 l 1
 0 330 l 1
 0 430 l 1
 100 430 l 1
540 540 m 1
 540 440 l 1
 440 440 l 1
 440 540 l 1
 540 540 l 1
540 650 m 1
 540 550 l 1
 440 550 l 1
 440 650 l 1
 540 650 l 1
430 650 m 1
 430 550 l 1
 330 550 l 1
 330 650 l 1
 430 650 l 1
320 650 m 1
 320 550 l 1
 220 550 l 1
 220 650 l 1
 320 650 l 1
210 650 m 1
 210 550 l 1
 110 550 l 1
 110 650 l 1
 210 650 l 1
100 650 m 1
 100 550 l 1
 0 550 l 1
 0 650 l 1
 100 650 l 1
EndSplineSet
EndChar

StartChar: uni30E9
Encoding: 12521 12521 168
Width: 660
VWidth: 825
Flags: HW
LayerCount: 2
Fore
SplineSet
320 100 m 1
 320 0 l 1
 220 0 l 1
 220 100 l 1
 320 100 l 1
430 210 m 1
 430 110 l 1
 330 110 l 1
 330 210 l 1
 430 210 l 1
540 320 m 1
 540 220 l 1
 440 220 l 1
 440 320 l 1
 540 320 l 1
540 430 m 1
 540 330 l 1
 440 330 l 1
 440 430 l 1
 540 430 l 1
540 540 m 1
 540 440 l 1
 440 440 l 1
 440 540 l 1
 540 540 l 1
430 540 m 1
 430 440 l 1
 330 440 l 1
 330 540 l 1
 430 540 l 1
320 540 m 1
 320 440 l 1
 220 440 l 1
 220 540 l 1
 320 540 l 1
210 540 m 1
 210 440 l 1
 110 440 l 1
 110 540 l 1
 210 540 l 1
100 540 m 1
 100 440 l 1
 0 440 l 1
 0 540 l 1
 100 540 l 1
430 760 m 1
 430 660 l 1
 330 660 l 1
 330 760 l 1
 430 760 l 1
320 760 m 1
 320 660 l 1
 220 660 l 1
 220 760 l 1
 320 760 l 1
210 760 m 1
 210 660 l 1
 110 660 l 1
 110 760 l 1
 210 760 l 1
EndSplineSet
EndChar

StartChar: uni30EA
Encoding: 12522 12522 169
Width: 660
VWidth: 825
Flags: HW
LayerCount: 2
Fore
SplineSet
210 100 m 1
 210 0 l 1
 110 0 l 1
 110 100 l 1
 210 100 l 1
320 210 m 1
 320 110 l 1
 220 110 l 1
 220 210 l 1
 320 210 l 1
430 320 m 1
 430 220 l 1
 330 220 l 1
 330 320 l 1
 430 320 l 1
430 430 m 1
 430 330 l 1
 330 330 l 1
 330 430 l 1
 430 430 l 1
100 430 m 1
 100 330 l 1
 0 330 l 1
 0 430 l 1
 100 430 l 1
430 540 m 1
 430 440 l 1
 330 440 l 1
 330 540 l 1
 430 540 l 1
100 540 m 1
 100 440 l 1
 0 440 l 1
 0 540 l 1
 100 540 l 1
430 650 m 1
 430 550 l 1
 330 550 l 1
 330 650 l 1
 430 650 l 1
100 650 m 1
 100 550 l 1
 0 550 l 1
 0 650 l 1
 100 650 l 1
430 760 m 1
 430 660 l 1
 330 660 l 1
 330 760 l 1
 430 760 l 1
100 760 m 1
 100 660 l 1
 0 660 l 1
 0 760 l 1
 100 760 l 1
EndSplineSet
EndChar

StartChar: uni30EB
Encoding: 12523 12523 170
Width: 660
VWidth: 825
Flags: HW
LayerCount: 2
Fore
SplineSet
430 100 m 1
 430 0 l 1
 330 0 l 1
 330 100 l 1
 430 100 l 1
320 100 m 1
 320 0 l 1
 220 0 l 1
 220 100 l 1
 320 100 l 1
100 100 m 1
 100 0 l 1
 0 0 l 1
 0 100 l 1
 100 100 l 1
540 210 m 1
 540 110 l 1
 440 110 l 1
 440 210 l 1
 540 210 l 1
320 210 m 1
 320 110 l 1
 220 110 l 1
 220 210 l 1
 320 210 l 1
100 210 m 1
 100 110 l 1
 0 110 l 1
 0 210 l 1
 100 210 l 1
540 320 m 1
 540 220 l 1
 440 220 l 1
 440 320 l 1
 540 320 l 1
320 320 m 1
 320 220 l 1
 220 220 l 1
 220 320 l 1
 320 320 l 1
100 320 m 1
 100 220 l 1
 0 220 l 1
 0 320 l 1
 100 320 l 1
320 430 m 1
 320 330 l 1
 220 330 l 1
 220 430 l 1
 320 430 l 1
100 430 m 1
 100 330 l 1
 0 330 l 1
 0 430 l 1
 100 430 l 1
320 540 m 1
 320 440 l 1
 220 440 l 1
 220 540 l 1
 320 540 l 1
100 540 m 1
 100 440 l 1
 0 440 l 1
 0 540 l 1
 100 540 l 1
320 650 m 1
 320 550 l 1
 220 550 l 1
 220 650 l 1
 320 650 l 1
EndSplineSet
EndChar

StartChar: uni30EC
Encoding: 12524 12524 171
Width: 660
VWidth: 825
Flags: HW
LayerCount: 2
Fore
SplineSet
210 100 m 1
 210 0 l 1
 110 0 l 1
 110 100 l 1
 210 100 l 1
100 100 m 1
 100 0 l 1
 0 0 l 1
 0 100 l 1
 100 100 l 1
320 210 m 1
 320 110 l 1
 220 110 l 1
 220 210 l 1
 320 210 l 1
100 210 m 1
 100 110 l 1
 0 110 l 1
 0 210 l 1
 100 210 l 1
430 320 m 1
 430 220 l 1
 330 220 l 1
 330 320 l 1
 430 320 l 1
100 320 m 1
 100 220 l 1
 0 220 l 1
 0 320 l 1
 100 320 l 1
540 430 m 1
 540 330 l 1
 440 330 l 1
 440 430 l 1
 540 430 l 1
100 430 m 1
 100 330 l 1
 0 330 l 1
 0 430 l 1
 100 430 l 1
100 540 m 1
 100 440 l 1
 0 440 l 1
 0 540 l 1
 100 540 l 1
100 650 m 1
 100 550 l 1
 0 550 l 1
 0 650 l 1
 100 650 l 1
EndSplineSet
EndChar

StartChar: uni30ED
Encoding: 12525 12525 172
Width: 660
VWidth: 825
Flags: HW
LayerCount: 2
Fore
SplineSet
540 100 m 1
 540 0 l 1
 440 0 l 1
 440 100 l 1
 540 100 l 1
430 100 m 1
 430 0 l 1
 330 0 l 1
 330 100 l 1
 430 100 l 1
320 100 m 1
 320 0 l 1
 220 0 l 1
 220 100 l 1
 320 100 l 1
210 100 m 1
 210 0 l 1
 110 0 l 1
 110 100 l 1
 210 100 l 1
100 100 m 1
 100 0 l 1
 0 0 l 1
 0 100 l 1
 100 100 l 1
540 210 m 1
 540 110 l 1
 440 110 l 1
 440 210 l 1
 540 210 l 1
100 210 m 1
 100 110 l 1
 0 110 l 1
 0 210 l 1
 100 210 l 1
540 320 m 1
 540 220 l 1
 440 220 l 1
 440 320 l 1
 540 320 l 1
100 320 m 1
 100 220 l 1
 0 220 l 1
 0 320 l 1
 100 320 l 1
540 430 m 1
 540 330 l 1
 440 330 l 1
 440 430 l 1
 540 430 l 1
100 430 m 1
 100 330 l 1
 0 330 l 1
 0 430 l 1
 100 430 l 1
540 540 m 1
 540 440 l 1
 440 440 l 1
 440 540 l 1
 540 540 l 1
100 540 m 1
 100 440 l 1
 0 440 l 1
 0 540 l 1
 100 540 l 1
540 650 m 1
 540 550 l 1
 440 550 l 1
 440 650 l 1
 540 650 l 1
430 650 m 1
 430 550 l 1
 330 550 l 1
 330 650 l 1
 430 650 l 1
320 650 m 1
 320 550 l 1
 220 550 l 1
 220 650 l 1
 320 650 l 1
210 650 m 1
 210 550 l 1
 110 550 l 1
 110 650 l 1
 210 650 l 1
100 650 m 1
 100 550 l 1
 0 550 l 1
 0 650 l 1
 100 650 l 1
EndSplineSet
EndChar

StartChar: uni30EF
Encoding: 12527 12527 173
Width: 660
VWidth: 825
Flags: HW
LayerCount: 2
Fore
SplineSet
320 100 m 1
 320 0 l 1
 220 0 l 1
 220 100 l 1
 320 100 l 1
430 210 m 1
 430 110 l 1
 330 110 l 1
 330 210 l 1
 430 210 l 1
540 320 m 1
 540 220 l 1
 440 220 l 1
 440 320 l 1
 540 320 l 1
540 430 m 1
 540 330 l 1
 440 330 l 1
 440 430 l 1
 540 430 l 1
100 430 m 1
 100 330 l 1
 0 330 l 1
 0 430 l 1
 100 430 l 1
540 540 m 1
 540 440 l 1
 440 440 l 1
 440 540 l 1
 540 540 l 1
100 540 m 1
 100 440 l 1
 0 440 l 1
 0 540 l 1
 100 540 l 1
540 650 m 1
 540 550 l 1
 440 550 l 1
 440 650 l 1
 540 650 l 1
430 650 m 1
 430 550 l 1
 330 550 l 1
 330 650 l 1
 430 650 l 1
320 650 m 1
 320 550 l 1
 220 550 l 1
 220 650 l 1
 320 650 l 1
210 650 m 1
 210 550 l 1
 110 550 l 1
 110 650 l 1
 210 650 l 1
100 650 m 1
 100 550 l 1
 0 550 l 1
 0 650 l 1
 100 650 l 1
EndSplineSet
EndChar

StartChar: uni30F2
Encoding: 12530 12530 174
Width: 660
VWidth: 825
Flags: HW
LayerCount: 2
Fore
SplineSet
320 100 m 1
 320 0 l 1
 220 0 l 1
 220 100 l 1
 320 100 l 1
430 210 m 1
 430 110 l 1
 330 110 l 1
 330 210 l 1
 430 210 l 1
540 320 m 1
 540 220 l 1
 440 220 l 1
 440 320 l 1
 540 320 l 1
540 430 m 1
 540 330 l 1
 440 330 l 1
 440 430 l 1
 540 430 l 1
430 430 m 1
 430 330 l 1
 330 330 l 1
 330 430 l 1
 430 430 l 1
320 430 m 1
 320 330 l 1
 220 330 l 1
 220 430 l 1
 320 430 l 1
210 430 m 1
 210 330 l 1
 110 330 l 1
 110 430 l 1
 210 430 l 1
100 430 m 1
 100 330 l 1
 0 330 l 1
 0 430 l 1
 100 430 l 1
540 540 m 1
 540 440 l 1
 440 440 l 1
 440 540 l 1
 540 540 l 1
540 650 m 1
 540 550 l 1
 440 550 l 1
 440 650 l 1
 540 650 l 1
430 650 m 1
 430 550 l 1
 330 550 l 1
 330 650 l 1
 430 650 l 1
320 650 m 1
 320 550 l 1
 220 550 l 1
 220 650 l 1
 320 650 l 1
210 650 m 1
 210 550 l 1
 110 550 l 1
 110 650 l 1
 210 650 l 1
100 650 m 1
 100 550 l 1
 0 550 l 1
 0 650 l 1
 100 650 l 1
EndSplineSet
EndChar

StartChar: uni30F3
Encoding: 12531 12531 175
Width: 660
VWidth: 825
Flags: HW
LayerCount: 2
Fore
SplineSet
320 100 m 1
 320 0 l 1
 220 0 l 1
 220 100 l 1
 320 100 l 1
210 100 m 1
 210 0 l 1
 110 0 l 1
 110 100 l 1
 210 100 l 1
100 100 m 1
 100 0 l 1
 0 0 l 1
 0 100 l 1
 100 100 l 1
430 210 m 1
 430 110 l 1
 330 110 l 1
 330 210 l 1
 430 210 l 1
540 320 m 1
 540 220 l 1
 440 220 l 1
 440 320 l 1
 540 320 l 1
540 430 m 1
 540 330 l 1
 440 330 l 1
 440 430 l 1
 540 430 l 1
210 650 m 1
 210 550 l 1
 110 550 l 1
 110 650 l 1
 210 650 l 1
100 650 m 1
 100 550 l 1
 0 550 l 1
 0 650 l 1
 100 650 l 1
EndSplineSet
EndChar

StartChar: uni30FD
Encoding: 12541 12541 176
Width: 660
VWidth: 825
Flags: HW
LayerCount: 2
Fore
SplineSet
320 100 m 1
 320 0 l 1
 220 0 l 1
 220 100 l 1
 320 100 l 1
210 210 m 1
 210 110 l 1
 110 110 l 1
 110 210 l 1
 210 210 l 1
100 320 m 1
 100 220 l 1
 0 220 l 1
 0 320 l 1
 100 320 l 1
EndSplineSet
EndChar

StartChar: uni30FC
Encoding: 12540 12540 177
Width: 660
VWidth: 825
Flags: HW
LayerCount: 2
Fore
SplineSet
540 430 m 1
 540 330 l 1
 440 330 l 1
 440 430 l 1
 540 430 l 1
430 430 m 1
 430 330 l 1
 330 330 l 1
 330 430 l 1
 430 430 l 1
320 430 m 1
 320 330 l 1
 220 330 l 1
 220 430 l 1
 320 430 l 1
210 430 m 1
 210 330 l 1
 110 330 l 1
 110 430 l 1
 210 430 l 1
100 430 m 1
 100 330 l 1
 0 330 l 1
 0 430 l 1
 100 430 l 1
EndSplineSet
EndChar

StartChar: uni30FB
Encoding: 12539 12539 178
Width: 660
VWidth: 825
Flags: HW
LayerCount: 2
Fore
SplineSet
320 320 m 1
 320 220 l 1
 220 220 l 1
 220 320 l 1
 320 320 l 1
210 320 m 1
 210 220 l 1
 110 220 l 1
 110 320 l 1
 210 320 l 1
320 430 m 1
 320 330 l 1
 220 330 l 1
 220 430 l 1
 320 430 l 1
210 430 m 1
 210 330 l 1
 110 330 l 1
 110 430 l 1
 210 430 l 1
EndSplineSet
EndChar

StartChar: uni00B2
Encoding: 178 178 179
Width: 660
VWidth: 825
Flags: HW
LayerCount: 2
Fore
SplineSet
430 320 m 1
 430 220 l 1
 330 220 l 1
 330 320 l 1
 430 320 l 1
320 320 m 1
 320 220 l 1
 220 220 l 1
 220 320 l 1
 320 320 l 1
210 320 m 1
 210 220 l 1
 110 220 l 1
 110 320 l 1
 210 320 l 1
100 320 m 1
 100 220 l 1
 0 220 l 1
 0 320 l 1
 100 320 l 1
210 430 m 1
 210 330 l 1
 110 330 l 1
 110 430 l 1
 210 430 l 1
320 540 m 1
 320 440 l 1
 220 440 l 1
 220 540 l 1
 320 540 l 1
430 650 m 1
 430 550 l 1
 330 550 l 1
 330 650 l 1
 430 650 l 1
100 650 m 1
 100 550 l 1
 0 550 l 1
 0 650 l 1
 100 650 l 1
320 760 m 1
 320 660 l 1
 220 660 l 1
 220 760 l 1
 320 760 l 1
210 760 m 1
 210 660 l 1
 110 660 l 1
 110 760 l 1
 210 760 l 1
EndSplineSet
EndChar

StartChar: uni00B3
Encoding: 179 179 180
Width: 660
VWidth: 825
Flags: HW
LayerCount: 2
Fore
SplineSet
320 320 m 1
 320 220 l 1
 220 220 l 1
 220 320 l 1
 320 320 l 1
210 320 m 1
 210 220 l 1
 110 220 l 1
 110 320 l 1
 210 320 l 1
100 320 m 1
 100 220 l 1
 0 220 l 1
 0 320 l 1
 100 320 l 1
430 430 m 1
 430 330 l 1
 330 330 l 1
 330 430 l 1
 430 430 l 1
320 540 m 1
 320 440 l 1
 220 440 l 1
 220 540 l 1
 320 540 l 1
210 540 m 1
 210 440 l 1
 110 440 l 1
 110 540 l 1
 210 540 l 1
430 650 m 1
 430 550 l 1
 330 550 l 1
 330 650 l 1
 430 650 l 1
320 760 m 1
 320 660 l 1
 220 660 l 1
 220 760 l 1
 320 760 l 1
210 760 m 1
 210 660 l 1
 110 660 l 1
 110 760 l 1
 210 760 l 1
100 760 m 1
 100 660 l 1
 0 660 l 1
 0 760 l 1
 100 760 l 1
EndSplineSet
EndChar

StartChar: registered
Encoding: 174 174 181
Width: 660
VWidth: 825
Flags: HW
LayerCount: 2
Fore
SplineSet
430 650 m 5
 430 550 l 5
 330 550 l 5
 330 650 l 5
 430 650 l 5
430 430 m 1
 430 330 l 1
 330 330 l 1
 330 430 l 1
 430 430 l 1
430 100 m 1
 430 0 l 1
 330 0 l 1
 330 100 l 1
 430 100 l 1
320 100 m 1
 320 0 l 1
 220 0 l 1
 220 100 l 1
 320 100 l 1
210 100 m 1
 210 0 l 1
 110 0 l 1
 110 100 l 1
 210 100 l 1
540 210 m 1
 540 110 l 1
 440 110 l 1
 440 210 l 1
 540 210 l 1
320 210 m 1
 320 110 l 1
 220 110 l 1
 220 210 l 1
 320 210 l 1
100 210 m 1
 100 110 l 1
 0 110 l 1
 0 210 l 1
 100 210 l 1
540 320 m 1
 540 220 l 1
 440 220 l 1
 440 320 l 1
 540 320 l 1
320 320 m 1
 320 220 l 1
 220 220 l 1
 220 320 l 1
 320 320 l 1
100 320 m 1
 100 220 l 1
 0 220 l 1
 0 320 l 1
 100 320 l 1
540 430 m 1
 540 330 l 1
 440 330 l 1
 440 430 l 1
 540 430 l 1
100 430 m 1
 100 330 l 1
 0 330 l 1
 0 430 l 1
 100 430 l 1
540 540 m 1
 540 440 l 1
 440 440 l 1
 440 540 l 1
 540 540 l 1
320 540 m 1
 320 440 l 1
 220 440 l 1
 220 540 l 1
 320 540 l 1
100 540 m 1
 100 440 l 1
 0 440 l 1
 0 540 l 1
 100 540 l 1
540 650 m 1
 540 550 l 1
 440 550 l 1
 440 650 l 1
 540 650 l 1
100 650 m 1
 100 550 l 1
 0 550 l 1
 0 650 l 1
 100 650 l 1
430 760 m 1
 430 660 l 1
 330 660 l 1
 330 760 l 1
 430 760 l 1
320 760 m 1
 320 660 l 1
 220 660 l 1
 220 760 l 1
 320 760 l 1
210 760 m 1
 210 660 l 1
 110 660 l 1
 110 760 l 1
 210 760 l 1
EndSplineSet
EndChar

StartChar: onequarter
Encoding: 188 188 182
Width: 660
VWidth: 825
Flags: HW
LayerCount: 2
Fore
SplineSet
540 100 m 1
 540 0 l 1
 440 0 l 1
 440 100 l 1
 540 100 l 1
540 210 m 1
 540 110 l 1
 440 110 l 1
 440 210 l 1
 540 210 l 1
540 320 m 1
 540 220 l 1
 440 220 l 1
 440 320 l 1
 540 320 l 1
430 320 m 1
 430 220 l 1
 330 220 l 1
 330 320 l 1
 430 320 l 1
320 320 m 1
 320 220 l 1
 220 220 l 1
 220 320 l 1
 320 320 l 1
100 320 m 1
 100 220 l 1
 0 220 l 1
 0 320 l 1
 100 320 l 1
540 430 m 1
 540 330 l 1
 440 330 l 1
 440 430 l 1
 540 430 l 1
430 430 m 1
 430 330 l 1
 330 330 l 1
 330 430 l 1
 430 430 l 1
210 430 m 1
 210 330 l 1
 110 330 l 1
 110 430 l 1
 210 430 l 1
540 540 m 1
 540 440 l 1
 440 440 l 1
 440 540 l 1
 540 540 l 1
320 540 m 1
 320 440 l 1
 220 440 l 1
 220 540 l 1
 320 540 l 1
100 540 m 1
 100 440 l 1
 0 440 l 1
 0 540 l 1
 100 540 l 1
430 650 m 1
 430 550 l 1
 330 550 l 1
 330 650 l 1
 430 650 l 1
100 650 m 1
 100 550 l 1
 0 550 l 1
 0 650 l 1
 100 650 l 1
540 760 m 1
 540 660 l 1
 440 660 l 1
 440 760 l 1
 540 760 l 1
100 760 m 1
 100 660 l 1
 0 660 l 1
 0 760 l 1
 100 760 l 1
EndSplineSet
EndChar

StartChar: onehalf
Encoding: 189 189 183
Width: 660
VWidth: 825
Flags: HW
LayerCount: 2
Fore
SplineSet
540 100 m 1
 540 0 l 1
 440 0 l 1
 440 100 l 1
 540 100 l 1
430 100 m 1
 430 0 l 1
 330 0 l 1
 330 100 l 1
 430 100 l 1
320 100 m 1
 320 0 l 1
 220 0 l 1
 220 100 l 1
 320 100 l 1
320 210 m 1
 320 110 l 1
 220 110 l 1
 220 210 l 1
 320 210 l 1
540 320 m 1
 540 220 l 1
 440 220 l 1
 440 320 l 1
 540 320 l 1
430 320 m 1
 430 220 l 1
 330 220 l 1
 330 320 l 1
 430 320 l 1
100 320 m 1
 100 220 l 1
 0 220 l 1
 0 320 l 1
 100 320 l 1
540 430 m 1
 540 330 l 1
 440 330 l 1
 440 430 l 1
 540 430 l 1
210 430 m 1
 210 330 l 1
 110 330 l 1
 110 430 l 1
 210 430 l 1
540 540 m 1
 540 440 l 1
 440 440 l 1
 440 540 l 1
 540 540 l 1
430 540 m 1
 430 440 l 1
 330 440 l 1
 330 540 l 1
 430 540 l 1
320 540 m 1
 320 440 l 1
 220 440 l 1
 220 540 l 1
 320 540 l 1
100 540 m 1
 100 440 l 1
 0 440 l 1
 0 540 l 1
 100 540 l 1
430 650 m 1
 430 550 l 1
 330 550 l 1
 330 650 l 1
 430 650 l 1
100 650 m 1
 100 550 l 1
 0 550 l 1
 0 650 l 1
 100 650 l 1
540 760 m 1
 540 660 l 1
 440 660 l 1
 440 760 l 1
 540 760 l 1
100 760 m 1
 100 660 l 1
 0 660 l 1
 0 760 l 1
 100 760 l 1
EndSplineSet
EndChar

StartChar: questiondown
Encoding: 191 191 184
Width: 660
VWidth: 825
Flags: HW
LayerCount: 2
Fore
SplineSet
430 100 m 1
 430 0 l 1
 330 0 l 1
 330 100 l 1
 430 100 l 1
320 100 m 1
 320 0 l 1
 220 0 l 1
 220 100 l 1
 320 100 l 1
210 100 m 1
 210 0 l 1
 110 0 l 1
 110 100 l 1
 210 100 l 1
540 210 m 1
 540 110 l 1
 440 110 l 1
 440 210 l 1
 540 210 l 1
100 210 m 1
 100 110 l 1
 0 110 l 1
 0 210 l 1
 100 210 l 1
100 320 m 1
 100 220 l 1
 0 220 l 1
 0 320 l 1
 100 320 l 1
210 430 m 1
 210 330 l 1
 110 330 l 1
 110 430 l 1
 210 430 l 1
320 540 m 1
 320 440 l 1
 220 440 l 1
 220 540 l 1
 320 540 l 1
320 760 m 1
 320 660 l 1
 220 660 l 1
 220 760 l 1
 320 760 l 1
EndSplineSet
EndChar

StartChar: macron
Encoding: 175 175 185
Width: 660
VWidth: 825
Flags: HW
LayerCount: 2
Fore
SplineSet
540 760 m 1
 540 660 l 1
 440 660 l 1
 440 760 l 1
 540 760 l 1
430 760 m 1
 430 660 l 1
 330 660 l 1
 330 760 l 1
 430 760 l 1
320 760 m 1
 320 660 l 1
 220 660 l 1
 220 760 l 1
 320 760 l 1
210 760 m 1
 210 660 l 1
 110 660 l 1
 110 760 l 1
 210 760 l 1
100 760 m 1
 100 660 l 1
 0 660 l 1
 0 760 l 1
 100 760 l 1
EndSplineSet
EndChar

StartChar: circumflex
Encoding: 710 710 186
Width: 660
VWidth: 825
Flags: HW
LayerCount: 2
Fore
SplineSet
430 650 m 5
 430 550 l 5
 330 550 l 5
 330 650 l 5
 430 650 l 5
210 650 m 5
 210 550 l 5
 110 550 l 5
 110 650 l 5
 210 650 l 5
320 760 m 5
 320 660 l 5
 220 660 l 5
 220 760 l 5
 320 760 l 5
EndSplineSet
EndChar

StartChar: uni02CA
Encoding: 714 714 187
Width: 660
VWidth: 825
Flags: HW
LayerCount: 2
Fore
SplineSet
320 650 m 5
 320 550 l 5
 220 550 l 5
 220 650 l 5
 320 650 l 5
430 760 m 5
 430 660 l 5
 330 660 l 5
 330 760 l 5
 430 760 l 5
EndSplineSet
EndChar

StartChar: uni02CB
Encoding: 715 715 188
Width: 660
VWidth: 825
Flags: HW
LayerCount: 2
Fore
SplineSet
320 650 m 1
 320 550 l 1
 220 550 l 1
 220 650 l 1
 320 650 l 1
210 760 m 1
 210 660 l 1
 110 660 l 1
 110 760 l 1
 210 760 l 1
EndSplineSet
EndChar

StartChar: ring
Encoding: 730 730 189
Width: 660
VWidth: 825
Flags: HW
LayerCount: 2
Fore
SplineSet
320 540 m 1
 320 440 l 1
 220 440 l 1
 220 540 l 1
 320 540 l 1
430 650 m 1
 430 550 l 1
 330 550 l 1
 330 650 l 1
 430 650 l 1
210 650 m 1
 210 550 l 1
 110 550 l 1
 110 650 l 1
 210 650 l 1
320 760 m 1
 320 660 l 1
 220 660 l 1
 220 760 l 1
 320 760 l 1
EndSplineSet
EndChar

StartChar: dotaccent
Encoding: 729 729 190
Width: 660
VWidth: 825
Flags: HW
LayerCount: 2
Fore
SplineSet
320 760 m 5
 320 660 l 5
 220 660 l 5
 220 760 l 5
 320 760 l 5
EndSplineSet
EndChar

StartChar: gravecomb
Encoding: 768 768 191
Width: 660
VWidth: 825
Flags: HW
LayerCount: 2
Fore
SplineSet
320 650 m 5
 320 550 l 5
 220 550 l 5
 220 650 l 5
 320 650 l 5
210 760 m 5
 210 660 l 5
 110 660 l 5
 110 760 l 5
 210 760 l 5
EndSplineSet
EndChar

StartChar: acutecomb
Encoding: 769 769 192
Width: 660
VWidth: 825
Flags: HW
LayerCount: 2
Fore
SplineSet
320 650 m 5
 320 550 l 5
 220 550 l 5
 220 650 l 5
 320 650 l 5
430 760 m 5
 430 660 l 5
 330 660 l 5
 330 760 l 5
 430 760 l 5
EndSplineSet
EndChar

StartChar: uni0302
Encoding: 770 770 193
Width: 660
VWidth: 825
Flags: HW
LayerCount: 2
Fore
SplineSet
430 650 m 5
 430 550 l 5
 330 550 l 5
 330 650 l 5
 430 650 l 5
210 650 m 5
 210 550 l 5
 110 550 l 5
 110 650 l 5
 210 650 l 5
320 760 m 5
 320 660 l 5
 220 660 l 5
 220 760 l 5
 320 760 l 5
EndSplineSet
EndChar

StartChar: uni0307
Encoding: 775 775 194
Width: 660
VWidth: 825
Flags: HW
LayerCount: 2
Fore
SplineSet
320 760 m 5
 320 660 l 5
 220 660 l 5
 220 760 l 5
 320 760 l 5
EndSplineSet
EndChar

StartChar: uni0308
Encoding: 776 776 195
Width: 660
VWidth: 825
Flags: HW
LayerCount: 2
Fore
SplineSet
430 760 m 5
 430 660 l 5
 330 660 l 5
 330 760 l 5
 430 760 l 5
210 760 m 5
 210 660 l 5
 110 660 l 5
 110 760 l 5
 210 760 l 5
EndSplineSet
EndChar

StartChar: dieresis
Encoding: 168 168 196
Width: 660
VWidth: 825
Flags: HW
LayerCount: 2
Fore
SplineSet
430 760 m 1
 430 660 l 1
 330 660 l 1
 330 760 l 1
 430 760 l 1
210 760 m 1
 210 660 l 1
 110 660 l 1
 110 760 l 1
 210 760 l 1
EndSplineSet
EndChar

StartChar: Atilde
Encoding: 195 195 197
Width: 660
VWidth: 825
Flags: HW
LayerCount: 2
Fore
SplineSet
540 100 m 1
 540 0 l 1
 440 0 l 1
 440 100 l 1
 540 100 l 1
100 100 m 1
 100 0 l 1
 0 0 l 1
 0 100 l 1
 100 100 l 1
540 210 m 1
 540 110 l 1
 440 110 l 1
 440 210 l 1
 540 210 l 1
430 210 m 1
 430 110 l 1
 330 110 l 1
 330 210 l 1
 430 210 l 1
320 210 m 1
 320 110 l 1
 220 110 l 1
 220 210 l 1
 320 210 l 1
210 210 m 1
 210 110 l 1
 110 110 l 1
 110 210 l 1
 210 210 l 1
100 210 m 1
 100 110 l 1
 0 110 l 1
 0 210 l 1
 100 210 l 1
540 320 m 1
 540 220 l 1
 440 220 l 1
 440 320 l 1
 540 320 l 1
100 320 m 1
 100 220 l 1
 0 220 l 1
 0 320 l 1
 100 320 l 1
430 430 m 1
 430 330 l 1
 330 330 l 1
 330 430 l 1
 430 430 l 1
320 430 m 1
 320 330 l 1
 220 330 l 1
 220 430 l 1
 320 430 l 1
210 430 m 1
 210 330 l 1
 110 330 l 1
 110 430 l 1
 210 430 l 1
430 650 m 5
 430 550 l 5
 330 550 l 5
 330 650 l 5
 430 650 l 5
100 650 m 5
 100 550 l 5
 0 550 l 5
 0 650 l 5
 100 650 l 5
540 760 m 5
 540 660 l 5
 440 660 l 5
 440 760 l 5
 540 760 l 5
320 760 m 5
 320 660 l 5
 220 660 l 5
 220 760 l 5
 320 760 l 5
210 760 m 5
 210 660 l 5
 110 660 l 5
 110 760 l 5
 210 760 l 5
EndSplineSet
EndChar

StartChar: Adieresis
Encoding: 196 196 198
Width: 660
VWidth: 825
Flags: HW
LayerCount: 2
Fore
SplineSet
540 100 m 1
 540 0 l 1
 440 0 l 1
 440 100 l 1
 540 100 l 1
100 100 m 1
 100 0 l 1
 0 0 l 1
 0 100 l 1
 100 100 l 1
540 210 m 1
 540 110 l 1
 440 110 l 1
 440 210 l 1
 540 210 l 1
100 210 m 1
 100 110 l 1
 0 110 l 1
 0 210 l 1
 100 210 l 1
540 320 m 1
 540 220 l 1
 440 220 l 1
 440 320 l 1
 540 320 l 1
430 320 m 1
 430 220 l 1
 330 220 l 1
 330 320 l 1
 430 320 l 1
320 320 m 1
 320 220 l 1
 220 220 l 1
 220 320 l 1
 320 320 l 1
210 320 m 1
 210 220 l 1
 110 220 l 1
 110 320 l 1
 210 320 l 1
100 320 m 1
 100 220 l 1
 0 220 l 1
 0 320 l 1
 100 320 l 1
540 430 m 1
 540 330 l 1
 440 330 l 1
 440 430 l 1
 540 430 l 1
100 430 m 1
 100 330 l 1
 0 330 l 1
 0 430 l 1
 100 430 l 1
430 540 m 1
 430 440 l 1
 330 440 l 1
 330 540 l 1
 430 540 l 1
320 540 m 1
 320 440 l 1
 220 440 l 1
 220 540 l 1
 320 540 l 1
210 540 m 1
 210 440 l 1
 110 440 l 1
 110 540 l 1
 210 540 l 1
430 760 m 1
 430 660 l 1
 330 660 l 1
 330 760 l 1
 430 760 l 1
210 760 m 1
 210 660 l 1
 110 660 l 1
 110 760 l 1
 210 760 l 1
EndSplineSet
EndChar

StartChar: Aring
Encoding: 197 197 199
Width: 660
VWidth: 825
Flags: HW
LayerCount: 2
Fore
SplineSet
540 100 m 1
 540 0 l 1
 440 0 l 1
 440 100 l 1
 540 100 l 1
100 100 m 1
 100 0 l 1
 0 0 l 1
 0 100 l 1
 100 100 l 1
540 210 m 1
 540 110 l 1
 440 110 l 1
 440 210 l 1
 540 210 l 1
430 210 m 1
 430 110 l 1
 330 110 l 1
 330 210 l 1
 430 210 l 1
320 210 m 1
 320 110 l 1
 220 110 l 1
 220 210 l 1
 320 210 l 1
210 210 m 1
 210 110 l 1
 110 110 l 1
 110 210 l 1
 210 210 l 1
100 210 m 1
 100 110 l 1
 0 110 l 1
 0 210 l 1
 100 210 l 1
540 320 m 1
 540 220 l 1
 440 220 l 1
 440 320 l 1
 540 320 l 1
100 320 m 1
 100 220 l 1
 0 220 l 1
 0 320 l 1
 100 320 l 1
430 430 m 1
 430 330 l 1
 330 330 l 1
 330 430 l 1
 430 430 l 1
320 430 m 1
 320 330 l 1
 220 330 l 1
 220 430 l 1
 320 430 l 1
210 430 m 1
 210 330 l 1
 110 330 l 1
 110 430 l 1
 210 430 l 1
320 540 m 1
 320 440 l 1
 220 440 l 1
 220 540 l 1
 320 540 l 1
430 650 m 1
 430 550 l 1
 330 550 l 1
 330 650 l 1
 430 650 l 1
210 650 m 1
 210 550 l 1
 110 550 l 1
 110 650 l 1
 210 650 l 1
320 760 m 1
 320 660 l 1
 220 660 l 1
 220 760 l 1
 320 760 l 1
EndSplineSet
EndChar

StartChar: AE
Encoding: 198 198 200
Width: 660
VWidth: 825
Flags: HW
LayerCount: 2
Fore
SplineSet
540 100 m 1
 540 0 l 1
 440 0 l 1
 440 100 l 1
 540 100 l 1
430 100 m 1
 430 0 l 1
 330 0 l 1
 330 100 l 1
 430 100 l 1
320 100 m 1
 320 0 l 1
 220 0 l 1
 220 100 l 1
 320 100 l 1
100 100 m 1
 100 0 l 1
 0 0 l 1
 0 100 l 1
 100 100 l 1
320 210 m 1
 320 110 l 1
 220 110 l 1
 220 210 l 1
 320 210 l 1
100 210 m 1
 100 110 l 1
 0 110 l 1
 0 210 l 1
 100 210 l 1
320 320 m 1
 320 220 l 1
 220 220 l 1
 220 320 l 1
 320 320 l 1
100 320 m 1
 100 220 l 1
 0 220 l 1
 0 320 l 1
 100 320 l 1
540 430 m 1
 540 330 l 1
 440 330 l 1
 440 430 l 1
 540 430 l 1
430 430 m 1
 430 330 l 1
 330 330 l 1
 330 430 l 1
 430 430 l 1
320 430 m 1
 320 330 l 1
 220 330 l 1
 220 430 l 1
 320 430 l 1
210 430 m 1
 210 330 l 1
 110 330 l 1
 110 430 l 1
 210 430 l 1
100 430 m 1
 100 330 l 1
 0 330 l 1
 0 430 l 1
 100 430 l 1
320 540 m 1
 320 440 l 1
 220 440 l 1
 220 540 l 1
 320 540 l 1
100 540 m 1
 100 440 l 1
 0 440 l 1
 0 540 l 1
 100 540 l 1
320 650 m 1
 320 550 l 1
 220 550 l 1
 220 650 l 1
 320 650 l 1
100 650 m 1
 100 550 l 1
 0 550 l 1
 0 650 l 1
 100 650 l 1
540 760 m 1
 540 660 l 1
 440 660 l 1
 440 760 l 1
 540 760 l 1
430 760 m 1
 430 660 l 1
 330 660 l 1
 330 760 l 1
 430 760 l 1
320 760 m 1
 320 660 l 1
 220 660 l 1
 220 760 l 1
 320 760 l 1
210 760 m 1
 210 660 l 1
 110 660 l 1
 110 760 l 1
 210 760 l 1
EndSplineSet
EndChar

StartChar: Eacute
Encoding: 201 201 201
Width: 660
VWidth: 825
Flags: HW
LayerCount: 2
Fore
SplineSet
540 100 m 1
 540 0 l 1
 440 0 l 1
 440 100 l 1
 540 100 l 1
430 100 m 1
 430 0 l 1
 330 0 l 1
 330 100 l 1
 430 100 l 1
320 100 m 1
 320 0 l 1
 220 0 l 1
 220 100 l 1
 320 100 l 1
210 100 m 1
 210 0 l 1
 110 0 l 1
 110 100 l 1
 210 100 l 1
100 100 m 1
 100 0 l 1
 0 0 l 1
 0 100 l 1
 100 100 l 1
100 210 m 1
 100 110 l 1
 0 110 l 1
 0 210 l 1
 100 210 l 1
430 320 m 1
 430 220 l 1
 330 220 l 1
 330 320 l 1
 430 320 l 1
320 320 m 1
 320 220 l 1
 220 220 l 1
 220 320 l 1
 320 320 l 1
210 320 m 1
 210 220 l 1
 110 220 l 1
 110 320 l 1
 210 320 l 1
100 320 m 1
 100 220 l 1
 0 220 l 1
 0 320 l 1
 100 320 l 1
100 430 m 1
 100 330 l 1
 0 330 l 1
 0 430 l 1
 100 430 l 1
540 540 m 1
 540 440 l 1
 440 440 l 1
 440 540 l 1
 540 540 l 1
430 540 m 1
 430 440 l 1
 330 440 l 1
 330 540 l 1
 430 540 l 1
320 540 m 1
 320 440 l 1
 220 440 l 1
 220 540 l 1
 320 540 l 1
210 540 m 1
 210 440 l 1
 110 440 l 1
 110 540 l 1
 210 540 l 1
100 540 m 1
 100 440 l 1
 0 440 l 1
 0 540 l 1
 100 540 l 1
320 650 m 1
 320 550 l 1
 220 550 l 1
 220 650 l 1
 320 650 l 1
430 760 m 1
 430 660 l 1
 330 660 l 1
 330 760 l 1
 430 760 l 1
EndSplineSet
EndChar

StartChar: Ntilde
Encoding: 209 209 202
Width: 660
VWidth: 825
Flags: HW
LayerCount: 2
Fore
SplineSet
540 100 m 1
 540 0 l 1
 440 0 l 1
 440 100 l 1
 540 100 l 1
100 100 m 1
 100 0 l 1
 0 0 l 1
 0 100 l 1
 100 100 l 1
540 210 m 1
 540 110 l 1
 440 110 l 1
 440 210 l 1
 540 210 l 1
430 210 m 1
 430 110 l 1
 330 110 l 1
 330 210 l 1
 430 210 l 1
100 210 m 1
 100 110 l 1
 0 110 l 1
 0 210 l 1
 100 210 l 1
540 320 m 1
 540 220 l 1
 440 220 l 1
 440 320 l 1
 540 320 l 1
320 320 m 1
 320 220 l 1
 220 220 l 1
 220 320 l 1
 320 320 l 1
100 320 m 1
 100 220 l 1
 0 220 l 1
 0 320 l 1
 100 320 l 1
540 430 m 1
 540 330 l 1
 440 330 l 1
 440 430 l 1
 540 430 l 1
210 430 m 1
 210 330 l 1
 110 330 l 1
 110 430 l 1
 210 430 l 1
100 430 m 1
 100 330 l 1
 0 330 l 1
 0 430 l 1
 100 430 l 1
430 650 m 1
 430 550 l 1
 330 550 l 1
 330 650 l 1
 430 650 l 1
100 650 m 1
 100 550 l 1
 0 550 l 1
 0 650 l 1
 100 650 l 1
540 760 m 1
 540 660 l 1
 440 660 l 1
 440 760 l 1
 540 760 l 1
320 760 m 1
 320 660 l 1
 220 660 l 1
 220 760 l 1
 320 760 l 1
210 760 m 1
 210 660 l 1
 110 660 l 1
 110 760 l 1
 210 760 l 1
EndSplineSet
EndChar

StartChar: Otilde
Encoding: 213 213 203
Width: 660
VWidth: 825
Flags: HW
LayerCount: 2
Fore
SplineSet
430 100 m 1
 430 0 l 1
 330 0 l 1
 330 100 l 1
 430 100 l 1
320 100 m 1
 320 0 l 1
 220 0 l 1
 220 100 l 1
 320 100 l 1
210 100 m 1
 210 0 l 1
 110 0 l 1
 110 100 l 1
 210 100 l 1
540 210 m 1
 540 110 l 1
 440 110 l 1
 440 210 l 1
 540 210 l 1
100 210 m 1
 100 110 l 1
 0 110 l 1
 0 210 l 1
 100 210 l 1
540 320 m 1
 540 220 l 1
 440 220 l 1
 440 320 l 1
 540 320 l 1
100 320 m 1
 100 220 l 1
 0 220 l 1
 0 320 l 1
 100 320 l 1
540 430 m 1
 540 330 l 1
 440 330 l 1
 440 430 l 1
 540 430 l 1
100 430 m 1
 100 330 l 1
 0 330 l 1
 0 430 l 1
 100 430 l 1
430 540 m 1
 430 440 l 1
 330 440 l 1
 330 540 l 1
 430 540 l 1
320 540 m 1
 320 440 l 1
 220 440 l 1
 220 540 l 1
 320 540 l 1
210 540 m 1
 210 440 l 1
 110 440 l 1
 110 540 l 1
 210 540 l 1
430 650 m 1
 430 550 l 1
 330 550 l 1
 330 650 l 1
 430 650 l 1
100 650 m 1
 100 550 l 1
 0 550 l 1
 0 650 l 1
 100 650 l 1
540 760 m 1
 540 660 l 1
 440 660 l 1
 440 760 l 1
 540 760 l 1
320 760 m 1
 320 660 l 1
 220 660 l 1
 220 760 l 1
 320 760 l 1
210 760 m 1
 210 660 l 1
 110 660 l 1
 110 760 l 1
 210 760 l 1
EndSplineSet
EndChar

StartChar: multiply
Encoding: 215 215 204
Width: 660
VWidth: 825
Flags: HW
LayerCount: 2
Fore
SplineSet
540 210 m 1
 540 110 l 1
 440 110 l 1
 440 210 l 1
 540 210 l 1
100 210 m 1
 100 110 l 1
 0 110 l 1
 0 210 l 1
 100 210 l 1
430 320 m 1
 430 220 l 1
 330 220 l 1
 330 320 l 1
 430 320 l 1
210 320 m 1
 210 220 l 1
 110 220 l 1
 110 320 l 1
 210 320 l 1
320 430 m 1
 320 330 l 1
 220 330 l 1
 220 430 l 1
 320 430 l 1
430 540 m 1
 430 440 l 1
 330 440 l 1
 330 540 l 1
 430 540 l 1
210 540 m 1
 210 440 l 1
 110 440 l 1
 110 540 l 1
 210 540 l 1
540 650 m 1
 540 550 l 1
 440 550 l 1
 440 650 l 1
 540 650 l 1
100 650 m 1
 100 550 l 1
 0 550 l 1
 0 650 l 1
 100 650 l 1
EndSplineSet
EndChar

StartChar: Udieresis
Encoding: 220 220 205
Width: 660
VWidth: 825
Flags: HW
LayerCount: 2
Fore
SplineSet
430 100 m 1
 430 0 l 1
 330 0 l 1
 330 100 l 1
 430 100 l 1
320 100 m 1
 320 0 l 1
 220 0 l 1
 220 100 l 1
 320 100 l 1
210 100 m 1
 210 0 l 1
 110 0 l 1
 110 100 l 1
 210 100 l 1
540 210 m 1
 540 110 l 1
 440 110 l 1
 440 210 l 1
 540 210 l 1
100 210 m 1
 100 110 l 1
 0 110 l 1
 0 210 l 1
 100 210 l 1
540 320 m 1
 540 220 l 1
 440 220 l 1
 440 320 l 1
 540 320 l 1
100 320 m 1
 100 220 l 1
 0 220 l 1
 0 320 l 1
 100 320 l 1
540 430 m 1
 540 330 l 1
 440 330 l 1
 440 430 l 1
 540 430 l 1
100 430 m 1
 100 330 l 1
 0 330 l 1
 0 430 l 1
 100 430 l 1
540 540 m 1
 540 440 l 1
 440 440 l 1
 440 540 l 1
 540 540 l 1
100 540 m 1
 100 440 l 1
 0 440 l 1
 0 540 l 1
 100 540 l 1
430 760 m 1
 430 660 l 1
 330 660 l 1
 330 760 l 1
 430 760 l 1
210 760 m 1
 210 660 l 1
 110 660 l 1
 110 760 l 1
 210 760 l 1
EndSplineSet
EndChar

StartChar: agrave
Encoding: 224 224 206
Width: 660
VWidth: 825
Flags: HW
LayerCount: 2
Fore
SplineSet
540 100 m 1
 540 0 l 1
 440 0 l 1
 440 100 l 1
 540 100 l 1
430 100 m 1
 430 0 l 1
 330 0 l 1
 330 100 l 1
 430 100 l 1
320 100 m 1
 320 0 l 1
 220 0 l 1
 220 100 l 1
 320 100 l 1
210 100 m 1
 210 0 l 1
 110 0 l 1
 110 100 l 1
 210 100 l 1
540 210 m 1
 540 110 l 1
 440 110 l 1
 440 210 l 1
 540 210 l 1
100 210 m 1
 100 110 l 1
 0 110 l 1
 0 210 l 1
 100 210 l 1
540 320 m 1
 540 220 l 1
 440 220 l 1
 440 320 l 1
 540 320 l 1
430 320 m 1
 430 220 l 1
 330 220 l 1
 330 320 l 1
 430 320 l 1
320 320 m 1
 320 220 l 1
 220 220 l 1
 220 320 l 1
 320 320 l 1
210 320 m 1
 210 220 l 1
 110 220 l 1
 110 320 l 1
 210 320 l 1
540 430 m 1
 540 330 l 1
 440 330 l 1
 440 430 l 1
 540 430 l 1
430 540 m 1
 430 440 l 1
 330 440 l 1
 330 540 l 1
 430 540 l 1
320 540 m 1
 320 440 l 1
 220 440 l 1
 220 540 l 1
 320 540 l 1
210 540 m 1
 210 440 l 1
 110 440 l 1
 110 540 l 1
 210 540 l 1
320 650 m 1
 320 550 l 1
 220 550 l 1
 220 650 l 1
 320 650 l 1
210 760 m 1
 210 660 l 1
 110 660 l 1
 110 760 l 1
 210 760 l 1
EndSplineSet
EndChar

StartChar: aacute
Encoding: 225 225 207
Width: 660
VWidth: 825
Flags: HW
LayerCount: 2
Fore
SplineSet
540 100 m 1
 540 0 l 1
 440 0 l 1
 440 100 l 1
 540 100 l 1
430 100 m 1
 430 0 l 1
 330 0 l 1
 330 100 l 1
 430 100 l 1
320 100 m 1
 320 0 l 1
 220 0 l 1
 220 100 l 1
 320 100 l 1
210 100 m 1
 210 0 l 1
 110 0 l 1
 110 100 l 1
 210 100 l 1
540 210 m 1
 540 110 l 1
 440 110 l 1
 440 210 l 1
 540 210 l 1
100 210 m 1
 100 110 l 1
 0 110 l 1
 0 210 l 1
 100 210 l 1
540 320 m 1
 540 220 l 1
 440 220 l 1
 440 320 l 1
 540 320 l 1
430 320 m 1
 430 220 l 1
 330 220 l 1
 330 320 l 1
 430 320 l 1
320 320 m 1
 320 220 l 1
 220 220 l 1
 220 320 l 1
 320 320 l 1
210 320 m 1
 210 220 l 1
 110 220 l 1
 110 320 l 1
 210 320 l 1
540 430 m 1
 540 330 l 1
 440 330 l 1
 440 430 l 1
 540 430 l 1
430 540 m 1
 430 440 l 1
 330 440 l 1
 330 540 l 1
 430 540 l 1
320 540 m 1
 320 440 l 1
 220 440 l 1
 220 540 l 1
 320 540 l 1
210 540 m 1
 210 440 l 1
 110 440 l 1
 110 540 l 1
 210 540 l 1
320 650 m 1
 320 550 l 1
 220 550 l 1
 220 650 l 1
 320 650 l 1
430 760 m 1
 430 660 l 1
 330 660 l 1
 330 760 l 1
 430 760 l 1
EndSplineSet
EndChar

StartChar: acircumflex
Encoding: 226 226 208
Width: 660
VWidth: 825
Flags: HW
LayerCount: 2
Fore
SplineSet
540 100 m 1
 540 0 l 1
 440 0 l 1
 440 100 l 1
 540 100 l 1
430 100 m 1
 430 0 l 1
 330 0 l 1
 330 100 l 1
 430 100 l 1
320 100 m 1
 320 0 l 1
 220 0 l 1
 220 100 l 1
 320 100 l 1
210 100 m 1
 210 0 l 1
 110 0 l 1
 110 100 l 1
 210 100 l 1
540 210 m 1
 540 110 l 1
 440 110 l 1
 440 210 l 1
 540 210 l 1
100 210 m 1
 100 110 l 1
 0 110 l 1
 0 210 l 1
 100 210 l 1
540 320 m 1
 540 220 l 1
 440 220 l 1
 440 320 l 1
 540 320 l 1
430 320 m 1
 430 220 l 1
 330 220 l 1
 330 320 l 1
 430 320 l 1
320 320 m 1
 320 220 l 1
 220 220 l 1
 220 320 l 1
 320 320 l 1
210 320 m 1
 210 220 l 1
 110 220 l 1
 110 320 l 1
 210 320 l 1
540 430 m 1
 540 330 l 1
 440 330 l 1
 440 430 l 1
 540 430 l 1
430 540 m 1
 430 440 l 1
 330 440 l 1
 330 540 l 1
 430 540 l 1
320 540 m 1
 320 440 l 1
 220 440 l 1
 220 540 l 1
 320 540 l 1
210 540 m 1
 210 440 l 1
 110 440 l 1
 110 540 l 1
 210 540 l 1
430 650 m 1
 430 550 l 1
 330 550 l 1
 330 650 l 1
 430 650 l 1
210 650 m 1
 210 550 l 1
 110 550 l 1
 110 650 l 1
 210 650 l 1
320 760 m 1
 320 660 l 1
 220 660 l 1
 220 760 l 1
 320 760 l 1
EndSplineSet
EndChar

StartChar: atilde
Encoding: 227 227 209
Width: 660
VWidth: 825
Flags: HW
LayerCount: 2
Fore
SplineSet
540 100 m 1
 540 0 l 1
 440 0 l 1
 440 100 l 1
 540 100 l 1
430 100 m 1
 430 0 l 1
 330 0 l 1
 330 100 l 1
 430 100 l 1
320 100 m 1
 320 0 l 1
 220 0 l 1
 220 100 l 1
 320 100 l 1
210 100 m 1
 210 0 l 1
 110 0 l 1
 110 100 l 1
 210 100 l 1
540 210 m 1
 540 110 l 1
 440 110 l 1
 440 210 l 1
 540 210 l 1
100 210 m 1
 100 110 l 1
 0 110 l 1
 0 210 l 1
 100 210 l 1
540 320 m 1
 540 220 l 1
 440 220 l 1
 440 320 l 1
 540 320 l 1
430 320 m 1
 430 220 l 1
 330 220 l 1
 330 320 l 1
 430 320 l 1
320 320 m 1
 320 220 l 1
 220 220 l 1
 220 320 l 1
 320 320 l 1
210 320 m 1
 210 220 l 1
 110 220 l 1
 110 320 l 1
 210 320 l 1
540 430 m 1
 540 330 l 1
 440 330 l 1
 440 430 l 1
 540 430 l 1
430 540 m 1
 430 440 l 1
 330 440 l 1
 330 540 l 1
 430 540 l 1
320 540 m 1
 320 440 l 1
 220 440 l 1
 220 540 l 1
 320 540 l 1
430 650 m 1
 430 550 l 1
 330 550 l 1
 330 650 l 1
 430 650 l 1
100 650 m 1
 100 550 l 1
 0 550 l 1
 0 650 l 1
 100 650 l 1
540 760 m 1
 540 660 l 1
 440 660 l 1
 440 760 l 1
 540 760 l 1
320 760 m 1
 320 660 l 1
 220 660 l 1
 220 760 l 1
 320 760 l 1
210 760 m 1
 210 660 l 1
 110 660 l 1
 110 760 l 1
 210 760 l 1
EndSplineSet
EndChar

StartChar: ae
Encoding: 230 230 210
Width: 660
VWidth: 825
Flags: HW
LayerCount: 2
Fore
SplineSet
540 100 m 1
 540 0 l 1
 440 0 l 1
 440 100 l 1
 540 100 l 1
430 100 m 1
 430 0 l 1
 330 0 l 1
 330 100 l 1
 430 100 l 1
320 100 m 1
 320 0 l 1
 220 0 l 1
 220 100 l 1
 320 100 l 1
210 100 m 1
 210 0 l 1
 110 0 l 1
 110 100 l 1
 210 100 l 1
320 210 m 1
 320 110 l 1
 220 110 l 1
 220 210 l 1
 320 210 l 1
100 210 m 1
 100 110 l 1
 0 110 l 1
 0 210 l 1
 100 210 l 1
540 320 m 1
 540 220 l 1
 440 220 l 1
 440 320 l 1
 540 320 l 1
430 320 m 1
 430 220 l 1
 330 220 l 1
 330 320 l 1
 430 320 l 1
320 320 m 1
 320 220 l 1
 220 220 l 1
 220 320 l 1
 320 320 l 1
210 320 m 1
 210 220 l 1
 110 220 l 1
 110 320 l 1
 210 320 l 1
540 430 m 1
 540 330 l 1
 440 330 l 1
 440 430 l 1
 540 430 l 1
320 430 m 1
 320 330 l 1
 220 330 l 1
 220 430 l 1
 320 430 l 1
430 540 m 1
 430 440 l 1
 330 440 l 1
 330 540 l 1
 430 540 l 1
210 540 m 1
 210 440 l 1
 110 440 l 1
 110 540 l 1
 210 540 l 1
100 540 m 1
 100 440 l 1
 0 440 l 1
 0 540 l 1
 100 540 l 1
EndSplineSet
EndChar

StartChar: egrave
Encoding: 232 232 211
Width: 660
VWidth: 825
Flags: HW
LayerCount: 2
Fore
SplineSet
430 100 m 1
 430 0 l 1
 330 0 l 1
 330 100 l 1
 430 100 l 1
320 100 m 1
 320 0 l 1
 220 0 l 1
 220 100 l 1
 320 100 l 1
210 100 m 1
 210 0 l 1
 110 0 l 1
 110 100 l 1
 210 100 l 1
100 210 m 1
 100 110 l 1
 0 110 l 1
 0 210 l 1
 100 210 l 1
540 320 m 1
 540 220 l 1
 440 220 l 1
 440 320 l 1
 540 320 l 1
430 320 m 1
 430 220 l 1
 330 220 l 1
 330 320 l 1
 430 320 l 1
320 320 m 1
 320 220 l 1
 220 220 l 1
 220 320 l 1
 320 320 l 1
210 320 m 1
 210 220 l 1
 110 220 l 1
 110 320 l 1
 210 320 l 1
100 320 m 1
 100 220 l 1
 0 220 l 1
 0 320 l 1
 100 320 l 1
540 430 m 1
 540 330 l 1
 440 330 l 1
 440 430 l 1
 540 430 l 1
100 430 m 1
 100 330 l 1
 0 330 l 1
 0 430 l 1
 100 430 l 1
430 540 m 1
 430 440 l 1
 330 440 l 1
 330 540 l 1
 430 540 l 1
320 540 m 1
 320 440 l 1
 220 440 l 1
 220 540 l 1
 320 540 l 1
210 540 m 1
 210 440 l 1
 110 440 l 1
 110 540 l 1
 210 540 l 1
320 650 m 1
 320 550 l 1
 220 550 l 1
 220 650 l 1
 320 650 l 1
210 760 m 1
 210 660 l 1
 110 660 l 1
 110 760 l 1
 210 760 l 1
EndSplineSet
EndChar

StartChar: eacute
Encoding: 233 233 212
Width: 660
VWidth: 825
Flags: HW
LayerCount: 2
Fore
SplineSet
430 100 m 1
 430 0 l 1
 330 0 l 1
 330 100 l 1
 430 100 l 1
320 100 m 1
 320 0 l 1
 220 0 l 1
 220 100 l 1
 320 100 l 1
210 100 m 1
 210 0 l 1
 110 0 l 1
 110 100 l 1
 210 100 l 1
100 210 m 1
 100 110 l 1
 0 110 l 1
 0 210 l 1
 100 210 l 1
540 320 m 1
 540 220 l 1
 440 220 l 1
 440 320 l 1
 540 320 l 1
430 320 m 1
 430 220 l 1
 330 220 l 1
 330 320 l 1
 430 320 l 1
320 320 m 1
 320 220 l 1
 220 220 l 1
 220 320 l 1
 320 320 l 1
210 320 m 1
 210 220 l 1
 110 220 l 1
 110 320 l 1
 210 320 l 1
100 320 m 1
 100 220 l 1
 0 220 l 1
 0 320 l 1
 100 320 l 1
540 430 m 1
 540 330 l 1
 440 330 l 1
 440 430 l 1
 540 430 l 1
100 430 m 1
 100 330 l 1
 0 330 l 1
 0 430 l 1
 100 430 l 1
430 540 m 1
 430 440 l 1
 330 440 l 1
 330 540 l 1
 430 540 l 1
320 540 m 1
 320 440 l 1
 220 440 l 1
 220 540 l 1
 320 540 l 1
210 540 m 1
 210 440 l 1
 110 440 l 1
 110 540 l 1
 210 540 l 1
320 650 m 1
 320 550 l 1
 220 550 l 1
 220 650 l 1
 320 650 l 1
430 760 m 1
 430 660 l 1
 330 660 l 1
 330 760 l 1
 430 760 l 1
EndSplineSet
EndChar

StartChar: igrave
Encoding: 236 236 213
Width: 660
VWidth: 825
Flags: HW
LayerCount: 2
Fore
SplineSet
430 100 m 5
 430 0 l 5
 330 0 l 5
 330 100 l 5
 430 100 l 5
320 100 m 5
 320 0 l 5
 220 0 l 5
 220 100 l 5
 320 100 l 5
210 100 m 5
 210 0 l 5
 110 0 l 5
 110 100 l 5
 210 100 l 5
320 210 m 5
 320 110 l 5
 220 110 l 5
 220 210 l 5
 320 210 l 5
320 320 m 5
 320 220 l 5
 220 220 l 5
 220 320 l 5
 320 320 l 5
320 430 m 5
 320 330 l 5
 220 330 l 5
 220 430 l 5
 320 430 l 5
210 430 m 5
 210 330 l 5
 110 330 l 5
 110 430 l 5
 210 430 l 5
320 650 m 1
 320 550 l 1
 220 550 l 1
 220 650 l 1
 320 650 l 1
210 760 m 1
 210 660 l 1
 110 660 l 1
 110 760 l 1
 210 760 l 1
EndSplineSet
EndChar

StartChar: iacute
Encoding: 237 237 214
Width: 660
VWidth: 825
Flags: HW
LayerCount: 2
Fore
SplineSet
430 100 m 5
 430 0 l 5
 330 0 l 5
 330 100 l 5
 430 100 l 5
320 100 m 5
 320 0 l 5
 220 0 l 5
 220 100 l 5
 320 100 l 5
210 100 m 5
 210 0 l 5
 110 0 l 5
 110 100 l 5
 210 100 l 5
320 210 m 5
 320 110 l 5
 220 110 l 5
 220 210 l 5
 320 210 l 5
320 320 m 5
 320 220 l 5
 220 220 l 5
 220 320 l 5
 320 320 l 5
320 430 m 5
 320 330 l 5
 220 330 l 5
 220 430 l 5
 320 430 l 5
210 430 m 5
 210 330 l 5
 110 330 l 5
 110 430 l 5
 210 430 l 5
320 650 m 1
 320 550 l 1
 220 550 l 1
 220 650 l 1
 320 650 l 1
430 760 m 1
 430 660 l 1
 330 660 l 1
 330 760 l 1
 430 760 l 1
EndSplineSet
EndChar

StartChar: icircumflex
Encoding: 238 238 215
Width: 660
VWidth: 825
Flags: HW
LayerCount: 2
Fore
SplineSet
430 100 m 5
 430 0 l 5
 330 0 l 5
 330 100 l 5
 430 100 l 5
320 100 m 5
 320 0 l 5
 220 0 l 5
 220 100 l 5
 320 100 l 5
210 100 m 5
 210 0 l 5
 110 0 l 5
 110 100 l 5
 210 100 l 5
320 210 m 5
 320 110 l 5
 220 110 l 5
 220 210 l 5
 320 210 l 5
320 320 m 5
 320 220 l 5
 220 220 l 5
 220 320 l 5
 320 320 l 5
320 430 m 5
 320 330 l 5
 220 330 l 5
 220 430 l 5
 320 430 l 5
210 430 m 5
 210 330 l 5
 110 330 l 5
 110 430 l 5
 210 430 l 5
430 650 m 1
 430 550 l 1
 330 550 l 1
 330 650 l 1
 430 650 l 1
210 650 m 1
 210 550 l 1
 110 550 l 1
 110 650 l 1
 210 650 l 1
320 760 m 1
 320 660 l 1
 220 660 l 1
 220 760 l 1
 320 760 l 1
EndSplineSet
EndChar

StartChar: idieresis
Encoding: 239 239 216
Width: 660
VWidth: 825
Flags: HW
LayerCount: 2
Fore
SplineSet
430 100 m 1
 430 0 l 1
 330 0 l 1
 330 100 l 1
 430 100 l 1
320 100 m 1
 320 0 l 1
 220 0 l 1
 220 100 l 1
 320 100 l 1
210 100 m 1
 210 0 l 1
 110 0 l 1
 110 100 l 1
 210 100 l 1
320 210 m 1
 320 110 l 1
 220 110 l 1
 220 210 l 1
 320 210 l 1
320 320 m 1
 320 220 l 1
 220 220 l 1
 220 320 l 1
 320 320 l 1
320 430 m 1
 320 330 l 1
 220 330 l 1
 220 430 l 1
 320 430 l 1
320 540 m 1
 320 440 l 1
 220 440 l 1
 220 540 l 1
 320 540 l 1
210 540 m 1
 210 440 l 1
 110 440 l 1
 110 540 l 1
 210 540 l 1
430 760 m 1
 430 660 l 1
 330 660 l 1
 330 760 l 1
 430 760 l 1
210 760 m 1
 210 660 l 1
 110 660 l 1
 110 760 l 1
 210 760 l 1
EndSplineSet
EndChar

StartChar: ydieresis
Encoding: 255 255 217
Width: 660
VWidth: 825
Flags: HW
LayerCount: 2
Fore
SplineSet
430 100 m 1
 430 0 l 1
 330 0 l 1
 330 100 l 1
 430 100 l 1
320 100 m 1
 320 0 l 1
 220 0 l 1
 220 100 l 1
 320 100 l 1
210 100 m 1
 210 0 l 1
 110 0 l 1
 110 100 l 1
 210 100 l 1
540 210 m 1
 540 110 l 1
 440 110 l 1
 440 210 l 1
 540 210 l 1
540 320 m 1
 540 220 l 1
 440 220 l 1
 440 320 l 1
 540 320 l 1
430 320 m 1
 430 220 l 1
 330 220 l 1
 330 320 l 1
 430 320 l 1
320 320 m 1
 320 220 l 1
 220 220 l 1
 220 320 l 1
 320 320 l 1
210 320 m 1
 210 220 l 1
 110 220 l 1
 110 320 l 1
 210 320 l 1
540 430 m 1
 540 330 l 1
 440 330 l 1
 440 430 l 1
 540 430 l 1
100 430 m 1
 100 330 l 1
 0 330 l 1
 0 430 l 1
 100 430 l 1
540 540 m 1
 540 440 l 1
 440 440 l 1
 440 540 l 1
 540 540 l 1
100 540 m 1
 100 440 l 1
 0 440 l 1
 0 540 l 1
 100 540 l 1
430 760 m 1
 430 660 l 1
 330 660 l 1
 330 760 l 1
 430 760 l 1
210 760 m 1
 210 660 l 1
 110 660 l 1
 110 760 l 1
 210 760 l 1
EndSplineSet
EndChar

StartChar: ntilde
Encoding: 241 241 218
Width: 660
VWidth: 825
Flags: HW
LayerCount: 2
Fore
SplineSet
540 100 m 5
 540 0 l 5
 440 0 l 5
 440 100 l 5
 540 100 l 5
100 100 m 5
 100 0 l 5
 0 0 l 5
 0 100 l 5
 100 100 l 5
540 210 m 5
 540 110 l 5
 440 110 l 5
 440 210 l 5
 540 210 l 5
100 210 m 5
 100 110 l 5
 0 110 l 5
 0 210 l 5
 100 210 l 5
540 320 m 5
 540 220 l 5
 440 220 l 5
 440 320 l 5
 540 320 l 5
210 320 m 5
 210 220 l 5
 110 220 l 5
 110 320 l 5
 210 320 l 5
100 320 m 5
 100 220 l 5
 0 220 l 5
 0 320 l 5
 100 320 l 5
430 430 m 5
 430 330 l 5
 330 330 l 5
 330 430 l 5
 430 430 l 5
320 430 m 5
 320 330 l 5
 220 330 l 5
 220 430 l 5
 320 430 l 5
100 430 m 5
 100 330 l 5
 0 330 l 5
 0 430 l 5
 100 430 l 5
430 650 m 1
 430 550 l 1
 330 550 l 1
 330 650 l 1
 430 650 l 1
100 650 m 1
 100 550 l 1
 0 550 l 1
 0 650 l 1
 100 650 l 1
540 760 m 1
 540 660 l 1
 440 660 l 1
 440 760 l 1
 540 760 l 1
320 760 m 1
 320 660 l 1
 220 660 l 1
 220 760 l 1
 320 760 l 1
210 760 m 1
 210 660 l 1
 110 660 l 1
 110 760 l 1
 210 760 l 1
EndSplineSet
EndChar

StartChar: ograve
Encoding: 242 242 219
Width: 660
VWidth: 825
Flags: HW
LayerCount: 2
Fore
SplineSet
430 100 m 1
 430 0 l 1
 330 0 l 1
 330 100 l 1
 430 100 l 1
320 100 m 1
 320 0 l 1
 220 0 l 1
 220 100 l 1
 320 100 l 1
210 100 m 1
 210 0 l 1
 110 0 l 1
 110 100 l 1
 210 100 l 1
540 210 m 1
 540 110 l 1
 440 110 l 1
 440 210 l 1
 540 210 l 1
100 210 m 1
 100 110 l 1
 0 110 l 1
 0 210 l 1
 100 210 l 1
540 320 m 1
 540 220 l 1
 440 220 l 1
 440 320 l 1
 540 320 l 1
100 320 m 1
 100 220 l 1
 0 220 l 1
 0 320 l 1
 100 320 l 1
430 430 m 5
 430 330 l 5
 330 330 l 5
 330 430 l 5
 430 430 l 5
320 430 m 5
 320 330 l 5
 220 330 l 5
 220 430 l 5
 320 430 l 5
210 430 m 5
 210 330 l 5
 110 330 l 5
 110 430 l 5
 210 430 l 5
320 650 m 1
 320 550 l 1
 220 550 l 1
 220 650 l 1
 320 650 l 1
210 760 m 1
 210 660 l 1
 110 660 l 1
 110 760 l 1
 210 760 l 1
EndSplineSet
EndChar

StartChar: oacute
Encoding: 243 243 220
Width: 660
VWidth: 825
Flags: HW
LayerCount: 2
Fore
SplineSet
430 430 m 5
 430 330 l 5
 330 330 l 5
 330 430 l 5
 430 430 l 5
320 430 m 5
 320 330 l 5
 220 330 l 5
 220 430 l 5
 320 430 l 5
210 430 m 5
 210 330 l 5
 110 330 l 5
 110 430 l 5
 210 430 l 5
430 100 m 1
 430 0 l 1
 330 0 l 1
 330 100 l 1
 430 100 l 1
320 100 m 1
 320 0 l 1
 220 0 l 1
 220 100 l 1
 320 100 l 1
210 100 m 1
 210 0 l 1
 110 0 l 1
 110 100 l 1
 210 100 l 1
540 210 m 1
 540 110 l 1
 440 110 l 1
 440 210 l 1
 540 210 l 1
100 210 m 1
 100 110 l 1
 0 110 l 1
 0 210 l 1
 100 210 l 1
540 320 m 1
 540 220 l 1
 440 220 l 1
 440 320 l 1
 540 320 l 1
100 320 m 1
 100 220 l 1
 0 220 l 1
 0 320 l 1
 100 320 l 1
320 650 m 1
 320 550 l 1
 220 550 l 1
 220 650 l 1
 320 650 l 1
430 760 m 1
 430 660 l 1
 330 660 l 1
 330 760 l 1
 430 760 l 1
EndSplineSet
EndChar

StartChar: ocircumflex
Encoding: 244 244 221
Width: 660
VWidth: 825
Flags: HW
LayerCount: 2
Fore
SplineSet
430 430 m 5
 430 330 l 5
 330 330 l 5
 330 430 l 5
 430 430 l 5
320 430 m 5
 320 330 l 5
 220 330 l 5
 220 430 l 5
 320 430 l 5
210 430 m 5
 210 330 l 5
 110 330 l 5
 110 430 l 5
 210 430 l 5
430 100 m 1
 430 0 l 1
 330 0 l 1
 330 100 l 1
 430 100 l 1
320 100 m 1
 320 0 l 1
 220 0 l 1
 220 100 l 1
 320 100 l 1
210 100 m 1
 210 0 l 1
 110 0 l 1
 110 100 l 1
 210 100 l 1
540 210 m 1
 540 110 l 1
 440 110 l 1
 440 210 l 1
 540 210 l 1
100 210 m 1
 100 110 l 1
 0 110 l 1
 0 210 l 1
 100 210 l 1
540 320 m 1
 540 220 l 1
 440 220 l 1
 440 320 l 1
 540 320 l 1
100 320 m 1
 100 220 l 1
 0 220 l 1
 0 320 l 1
 100 320 l 1
430 650 m 1
 430 550 l 1
 330 550 l 1
 330 650 l 1
 430 650 l 1
210 650 m 1
 210 550 l 1
 110 550 l 1
 110 650 l 1
 210 650 l 1
320 760 m 1
 320 660 l 1
 220 660 l 1
 220 760 l 1
 320 760 l 1
EndSplineSet
EndChar

StartChar: ucircumflex
Encoding: 251 251 222
Width: 660
VWidth: 825
Flags: HW
LayerCount: 2
Fore
SplineSet
540 100 m 1
 540 0 l 1
 440 0 l 1
 440 100 l 1
 540 100 l 1
320 100 m 1
 320 0 l 1
 220 0 l 1
 220 100 l 1
 320 100 l 1
210 100 m 1
 210 0 l 1
 110 0 l 1
 110 100 l 1
 210 100 l 1
540 210 m 1
 540 110 l 1
 440 110 l 1
 440 210 l 1
 540 210 l 1
430 210 m 1
 430 110 l 1
 330 110 l 1
 330 210 l 1
 430 210 l 1
100 210 m 1
 100 110 l 1
 0 110 l 1
 0 210 l 1
 100 210 l 1
540 320 m 1
 540 220 l 1
 440 220 l 1
 440 320 l 1
 540 320 l 1
100 320 m 1
 100 220 l 1
 0 220 l 1
 0 320 l 1
 100 320 l 1
540 430 m 1
 540 330 l 1
 440 330 l 1
 440 430 l 1
 540 430 l 1
100 430 m 1
 100 330 l 1
 0 330 l 1
 0 430 l 1
 100 430 l 1
540 540 m 5
 540 440 l 5
 440 440 l 5
 440 540 l 5
 540 540 l 5
100 540 m 5
 100 440 l 5
 0 440 l 5
 0 540 l 5
 100 540 l 5
430 650 m 1
 430 550 l 1
 330 550 l 1
 330 650 l 1
 430 650 l 1
210 650 m 1
 210 550 l 1
 110 550 l 1
 110 650 l 1
 210 650 l 1
320 760 m 1
 320 660 l 1
 220 660 l 1
 220 760 l 1
 320 760 l 1
EndSplineSet
EndChar

StartChar: uacute
Encoding: 250 250 223
Width: 660
VWidth: 825
Flags: HW
LayerCount: 2
Fore
SplineSet
540 100 m 1
 540 0 l 1
 440 0 l 1
 440 100 l 1
 540 100 l 1
320 100 m 1
 320 0 l 1
 220 0 l 1
 220 100 l 1
 320 100 l 1
210 100 m 1
 210 0 l 1
 110 0 l 1
 110 100 l 1
 210 100 l 1
540 210 m 1
 540 110 l 1
 440 110 l 1
 440 210 l 1
 540 210 l 1
430 210 m 1
 430 110 l 1
 330 110 l 1
 330 210 l 1
 430 210 l 1
100 210 m 1
 100 110 l 1
 0 110 l 1
 0 210 l 1
 100 210 l 1
540 320 m 1
 540 220 l 1
 440 220 l 1
 440 320 l 1
 540 320 l 1
100 320 m 1
 100 220 l 1
 0 220 l 1
 0 320 l 1
 100 320 l 1
540 430 m 1
 540 330 l 1
 440 330 l 1
 440 430 l 1
 540 430 l 1
100 430 m 1
 100 330 l 1
 0 330 l 1
 0 430 l 1
 100 430 l 1
540 540 m 1
 540 440 l 1
 440 440 l 1
 440 540 l 1
 540 540 l 1
100 540 m 1
 100 440 l 1
 0 440 l 1
 0 540 l 1
 100 540 l 1
320 650 m 1
 320 550 l 1
 220 550 l 1
 220 650 l 1
 320 650 l 1
430 760 m 1
 430 660 l 1
 330 660 l 1
 330 760 l 1
 430 760 l 1
EndSplineSet
EndChar

StartChar: ugrave
Encoding: 249 249 224
Width: 660
VWidth: 825
Flags: HW
LayerCount: 2
Fore
SplineSet
540 100 m 1
 540 0 l 1
 440 0 l 1
 440 100 l 1
 540 100 l 1
320 100 m 1
 320 0 l 1
 220 0 l 1
 220 100 l 1
 320 100 l 1
210 100 m 1
 210 0 l 1
 110 0 l 1
 110 100 l 1
 210 100 l 1
540 210 m 1
 540 110 l 1
 440 110 l 1
 440 210 l 1
 540 210 l 1
430 210 m 1
 430 110 l 1
 330 110 l 1
 330 210 l 1
 430 210 l 1
100 210 m 1
 100 110 l 1
 0 110 l 1
 0 210 l 1
 100 210 l 1
540 320 m 1
 540 220 l 1
 440 220 l 1
 440 320 l 1
 540 320 l 1
100 320 m 1
 100 220 l 1
 0 220 l 1
 0 320 l 1
 100 320 l 1
540 430 m 1
 540 330 l 1
 440 330 l 1
 440 430 l 1
 540 430 l 1
100 430 m 1
 100 330 l 1
 0 330 l 1
 0 430 l 1
 100 430 l 1
540 540 m 1
 540 440 l 1
 440 440 l 1
 440 540 l 1
 540 540 l 1
100 540 m 1
 100 440 l 1
 0 440 l 1
 0 540 l 1
 100 540 l 1
320 650 m 1
 320 550 l 1
 220 550 l 1
 220 650 l 1
 320 650 l 1
210 760 m 1
 210 660 l 1
 110 660 l 1
 110 760 l 1
 210 760 l 1
EndSplineSet
EndChar

StartChar: oslash
Encoding: 248 248 225
Width: 660
VWidth: 825
Flags: HW
LayerCount: 2
Fore
SplineSet
210 210 m 1
 210 110 l 1
 110 110 l 1
 110 210 l 1
 210 210 l 1
320 320 m 1
 320 220 l 1
 220 220 l 1
 220 320 l 1
 320 320 l 1
430 430 m 1
 430 330 l 1
 330 330 l 1
 330 430 l 1
 430 430 l 1
430 100 m 1
 430 0 l 1
 330 0 l 1
 330 100 l 1
 430 100 l 1
320 100 m 1
 320 0 l 1
 220 0 l 1
 220 100 l 1
 320 100 l 1
210 100 m 1
 210 0 l 1
 110 0 l 1
 110 100 l 1
 210 100 l 1
540 210 m 1
 540 110 l 1
 440 110 l 1
 440 210 l 1
 540 210 l 1
100 210 m 1
 100 110 l 1
 0 110 l 1
 0 210 l 1
 100 210 l 1
540 320 m 1
 540 220 l 1
 440 220 l 1
 440 320 l 1
 540 320 l 1
100 320 m 1
 100 220 l 1
 0 220 l 1
 0 320 l 1
 100 320 l 1
540 430 m 1
 540 330 l 1
 440 330 l 1
 440 430 l 1
 540 430 l 1
100 430 m 1
 100 330 l 1
 0 330 l 1
 0 430 l 1
 100 430 l 1
430 540 m 1
 430 440 l 1
 330 440 l 1
 330 540 l 1
 430 540 l 1
320 540 m 1
 320 440 l 1
 220 440 l 1
 220 540 l 1
 320 540 l 1
210 540 m 1
 210 440 l 1
 110 440 l 1
 110 540 l 1
 210 540 l 1
EndSplineSet
EndChar

StartChar: Oslash
Encoding: 216 216 226
Width: 660
VWidth: 825
Flags: HW
LayerCount: 2
Fore
SplineSet
100 100 m 1
 100 0 l 1
 0 0 l 1
 0 100 l 1
 100 100 l 1
430 210 m 1
 430 110 l 1
 330 110 l 1
 330 210 l 1
 430 210 l 1
320 210 m 1
 320 110 l 1
 220 110 l 1
 220 210 l 1
 320 210 l 1
210 210 m 1
 210 110 l 1
 110 110 l 1
 110 210 l 1
 210 210 l 1
540 320 m 1
 540 220 l 1
 440 220 l 1
 440 320 l 1
 540 320 l 1
210 320 m 1
 210 220 l 1
 110 220 l 1
 110 320 l 1
 210 320 l 1
100 320 m 1
 100 220 l 1
 0 220 l 1
 0 320 l 1
 100 320 l 1
540 430 m 1
 540 330 l 1
 440 330 l 1
 440 430 l 1
 540 430 l 1
320 430 m 1
 320 330 l 1
 220 330 l 1
 220 430 l 1
 320 430 l 1
100 430 m 1
 100 330 l 1
 0 330 l 1
 0 430 l 1
 100 430 l 1
540 540 m 1
 540 440 l 1
 440 440 l 1
 440 540 l 1
 540 540 l 1
430 540 m 1
 430 440 l 1
 330 440 l 1
 330 540 l 1
 430 540 l 1
100 540 m 1
 100 440 l 1
 0 440 l 1
 0 540 l 1
 100 540 l 1
430 650 m 1
 430 550 l 1
 330 550 l 1
 330 650 l 1
 430 650 l 1
320 650 m 1
 320 550 l 1
 220 550 l 1
 220 650 l 1
 320 650 l 1
210 650 m 1
 210 550 l 1
 110 550 l 1
 110 650 l 1
 210 650 l 1
540 760 m 1
 540 660 l 1
 440 660 l 1
 440 760 l 1
 540 760 l 1
EndSplineSet
EndChar

StartChar: thorn
Encoding: 254 254 227
Width: 660
VWidth: 825
Flags: HW
LayerCount: 2
Fore
SplineSet
430 100 m 1
 430 0 l 1
 330 0 l 1
 330 100 l 1
 430 100 l 1
320 100 m 1
 320 0 l 1
 220 0 l 1
 220 100 l 1
 320 100 l 1
210 100 m 1
 210 0 l 1
 110 0 l 1
 110 100 l 1
 210 100 l 1
320 210 m 1
 320 110 l 1
 220 110 l 1
 220 210 l 1
 320 210 l 1
430 320 m 1
 430 220 l 1
 330 220 l 1
 330 320 l 1
 430 320 l 1
320 320 m 1
 320 220 l 1
 220 220 l 1
 220 320 l 1
 320 320 l 1
540 430 m 1
 540 330 l 1
 440 330 l 1
 440 430 l 1
 540 430 l 1
320 430 m 1
 320 330 l 1
 220 330 l 1
 220 430 l 1
 320 430 l 1
430 540 m 1
 430 440 l 1
 330 440 l 1
 330 540 l 1
 430 540 l 1
320 540 m 1
 320 440 l 1
 220 440 l 1
 220 540 l 1
 320 540 l 1
320 650 m 1
 320 550 l 1
 220 550 l 1
 220 650 l 1
 320 650 l 1
320 760 m 1
 320 660 l 1
 220 660 l 1
 220 760 l 1
 320 760 l 1
210 760 m 1
 210 660 l 1
 110 660 l 1
 110 760 l 1
 210 760 l 1
EndSplineSet
EndChar

StartChar: otilde
Encoding: 245 245 228
Width: 660
VWidth: 825
Flags: HW
LayerCount: 2
Fore
SplineSet
430 100 m 1
 430 0 l 1
 330 0 l 1
 330 100 l 1
 430 100 l 1
320 100 m 1
 320 0 l 1
 220 0 l 1
 220 100 l 1
 320 100 l 1
210 100 m 1
 210 0 l 1
 110 0 l 1
 110 100 l 1
 210 100 l 1
540 210 m 1
 540 110 l 1
 440 110 l 1
 440 210 l 1
 540 210 l 1
100 210 m 1
 100 110 l 1
 0 110 l 1
 0 210 l 1
 100 210 l 1
540 320 m 1
 540 220 l 1
 440 220 l 1
 440 320 l 1
 540 320 l 1
100 320 m 1
 100 220 l 1
 0 220 l 1
 0 320 l 1
 100 320 l 1
430 430 m 5
 430 330 l 5
 330 330 l 5
 330 430 l 5
 430 430 l 5
320 430 m 5
 320 330 l 5
 220 330 l 5
 220 430 l 5
 320 430 l 5
210 430 m 5
 210 330 l 5
 110 330 l 5
 110 430 l 5
 210 430 l 5
430 650 m 1
 430 550 l 1
 330 550 l 1
 330 650 l 1
 430 650 l 1
100 650 m 1
 100 550 l 1
 0 550 l 1
 0 650 l 1
 100 650 l 1
540 760 m 1
 540 660 l 1
 440 660 l 1
 440 760 l 1
 540 760 l 1
320 760 m 1
 320 660 l 1
 220 660 l 1
 220 760 l 1
 320 760 l 1
210 760 m 1
 210 660 l 1
 110 660 l 1
 110 760 l 1
 210 760 l 1
EndSplineSet
EndChar

StartChar: eth
Encoding: 240 240 229
Width: 660
VWidth: 825
Flags: HW
LayerCount: 2
Fore
SplineSet
430 100 m 1
 430 0 l 1
 330 0 l 1
 330 100 l 1
 430 100 l 1
320 100 m 1
 320 0 l 1
 220 0 l 1
 220 100 l 1
 320 100 l 1
210 100 m 1
 210 0 l 1
 110 0 l 1
 110 100 l 1
 210 100 l 1
540 210 m 1
 540 110 l 1
 440 110 l 1
 440 210 l 1
 540 210 l 1
100 210 m 1
 100 110 l 1
 0 110 l 1
 0 210 l 1
 100 210 l 1
540 320 m 1
 540 220 l 1
 440 220 l 1
 440 320 l 1
 540 320 l 1
430 320 m 1
 430 220 l 1
 330 220 l 1
 330 320 l 1
 430 320 l 1
320 320 m 1
 320 220 l 1
 220 220 l 1
 220 320 l 1
 320 320 l 1
210 320 m 1
 210 220 l 1
 110 220 l 1
 110 320 l 1
 210 320 l 1
430 430 m 1
 430 330 l 1
 330 330 l 1
 330 430 l 1
 430 430 l 1
320 540 m 1
 320 440 l 1
 220 440 l 1
 220 540 l 1
 320 540 l 1
100 540 m 1
 100 440 l 1
 0 440 l 1
 0 540 l 1
 100 540 l 1
210 650 m 1
 210 550 l 1
 110 550 l 1
 110 650 l 1
 210 650 l 1
320 760 m 1
 320 660 l 1
 220 660 l 1
 220 760 l 1
 320 760 l 1
100 760 m 1
 100 660 l 1
 0 660 l 1
 0 760 l 1
 100 760 l 1
EndSplineSet
EndChar

